<svg width="67" height="72" viewBox="0 0 67 72" fill="none" xmlns="http://www.w3.org/2000/svg">
<g clip-path="url(#clip0_448_14412)">
<path fill-rule="evenodd" clip-rule="evenodd" d="M47.8768 11.5466L47.1382 11.1267C40.7137 7.54786 33.6439 5.27723 26.3371 4.44592C24.9217 4.28434 24.3203 10.1925 25.593 10.8131C25.7767 10.9004 25.9774 10.946 26.1807 10.9466C32.8138 11.7749 38.3085 14.4972 43.1004 18.2295L43.0363 18.3423L43.4388 18.4939L43.7944 18.7732L43.8585 18.6605C49.5256 20.8533 54.9201 24.1771 59.0248 29.4529C59.13 29.6202 59.2699 29.7629 59.4351 29.8714C60.6156 30.6453 65.1156 27.118 64.2683 25.9933C59.8163 20.14 54.2488 15.2267 47.8873 11.5371L47.8768 11.5466Z" fill="#F29B1A"/>
<path fill-rule="evenodd" clip-rule="evenodd" d="M19.714 60.7893L59.0127 29.4563C55.0163 24.3152 50.0308 20.0265 44.3502 16.8431C38.6696 13.6598 32.409 11.6464 25.9378 10.9217L19.714 60.7893Z" fill="#FFD324"/>
<path fill-rule="evenodd" clip-rule="evenodd" d="M45.7412 40.0343L48.1276 38.1347C43.925 35.972 38.4979 35.7006 27.3692 40.6089C25.4126 41.4728 23.5561 42.5477 21.8328 43.8146L21.1246 49.5848C23.2705 47.0135 25.9374 44.5481 29.3831 43.0295C37.6352 39.3718 42.3148 38.9764 45.7534 40.0309L45.7412 40.0343ZM56.0322 31.8309L59.0128 29.4563C58.1157 28.3016 57.1739 27.1952 56.1876 26.1373C55.3882 25.9484 54.5996 25.7165 53.8253 25.4425C48.5166 23.5513 45.5603 28.1001 41.6251 29.7109C38.2713 31.0862 34.7245 32.5113 29.844 30.5908C27.7349 29.7259 25.7451 28.5947 23.923 27.2249L23.3321 31.8839C24.5789 31.9673 25.8021 32.2642 26.9484 32.7616C33.8919 35.5051 38.4855 33.6411 42.8746 31.8563C45.8018 30.6706 48.6104 29.5305 51.93 30.7129C53.2682 31.1809 54.6376 31.5537 56.0283 31.8287L56.0322 31.8309Z" fill="#FCC705"/>
<path fill-rule="evenodd" clip-rule="evenodd" d="M39.0178 20.1629C40.591 21.1961 40.1096 15.9892 38.1931 18.2022C37.3483 19.1726 37.7446 19.3259 39.0178 20.1629Z" fill="#FCBE06"/>
<path fill-rule="evenodd" clip-rule="evenodd" d="M44.2018 20.0748C44.7432 21.6017 46.4674 19.4645 44.8648 19.1348C44.2049 19.0014 43.8662 19.0815 44.2018 20.0748Z" fill="#FCBE06"/>
<path fill-rule="evenodd" clip-rule="evenodd" d="M45.2087 21.6605C43.5927 21.5804 44.9144 23.9881 45.826 22.6287C46.2003 22.0699 46.2694 21.7131 45.2087 21.6605Z" fill="#FCBE06"/>
<path fill-rule="evenodd" clip-rule="evenodd" d="M35.065 26.5372C33.4452 26.4549 34.7685 28.8687 35.6823 27.5054C36.0566 26.9466 36.1257 26.5898 35.065 26.5372Z" fill="#FCBE06"/>
<path fill-rule="evenodd" clip-rule="evenodd" d="M26.8087 50.9334C26.8779 49.3729 26.4364 48.4121 25.4676 47.9899C25.0003 47.75 24.468 47.6676 23.95 47.7548C23.4751 47.9747 23.0849 48.3434 22.8385 48.805C22.2836 49.7088 22.4707 50.7461 23.4175 51.9943C25.2833 54.413 26.7073 53.9622 26.8087 50.9334Z" fill="#6FAB15"/>
<path fill-rule="evenodd" clip-rule="evenodd" d="M23.9566 47.7431C23.4817 47.963 23.0915 48.3317 22.8451 48.7934C22.2902 49.6971 22.4772 50.7345 23.4241 51.9826C24.371 53.2307 25.1635 53.6916 25.7583 53.505L23.9488 47.7387L23.9566 47.7431Z" fill="#8BC03A"/>
<path fill-rule="evenodd" clip-rule="evenodd" d="M25.7661 53.5094C25.4455 52.4989 24.1309 48.7578 23.8026 47.815C23.8503 47.7884 23.8998 47.7649 23.9505 47.7448C24.0028 47.7308 24.0563 47.7216 24.1102 47.7172C24.3814 48.679 25.4516 52.4973 25.76 53.5111L25.7661 53.5094Z" fill="#FFD83D"/>
<path fill-rule="evenodd" clip-rule="evenodd" d="M31.7536 43.4563C32.4472 42.0553 32.4315 40.997 31.7181 40.216C31.3862 39.8114 30.9346 39.5223 30.4283 39.3901C29.9048 39.4043 29.3995 39.5858 28.9867 39.9081C28.125 40.5191 27.8666 41.5347 28.2172 43.0715C28.92 46.043 30.3853 46.2073 31.7409 43.4697L31.7536 43.4563Z" fill="#6FAB15"/>
<path fill-rule="evenodd" clip-rule="evenodd" d="M30.4172 39.4096C29.8937 39.4237 29.3885 39.6053 28.9756 39.9275C28.1139 40.5385 27.8555 41.5541 28.2062 43.0909C28.5568 44.6277 29.1153 45.3465 29.7472 45.4022L30.4261 39.394L30.4172 39.4096Z" fill="#8BC03A"/>
<path fill-rule="evenodd" clip-rule="evenodd" d="M29.7472 45.4022C29.8636 44.3469 30.1765 40.3941 30.2536 39.3988L30.42 39.3957C30.4727 39.4069 30.5248 39.4211 30.5759 39.438C30.4312 40.4257 29.8675 44.3491 29.7528 45.4105L29.7472 45.4022Z" fill="#578C08"/>
<path d="M37.4871 41.8494C37.3772 43.2604 36.8514 44.6071 35.9761 45.7192C35.1008 46.8313 33.9154 47.6589 32.5697 48.0973C31.224 48.5356 29.7786 48.5651 28.4162 48.1819C27.0538 47.7987 25.8356 47.0201 24.9157 45.9445C23.9959 44.869 23.4156 43.5448 23.2484 42.1394C23.0812 40.7341 23.3345 39.3107 23.9763 38.0493C24.6181 36.7879 25.6195 35.7452 26.8539 35.053C28.0884 34.3608 29.5004 34.0503 30.9113 34.1606C32.8028 34.3085 34.5581 35.2016 35.7912 36.6434C37.0243 38.0853 37.6343 39.9578 37.4871 41.8494Z" fill="#E70803"/>
<path d="M29.0964 37.8871L28.847 37.2309C28.7654 37.0164 28.7359 36.7857 28.7607 36.5575C28.7854 36.3294 28.8639 36.1104 28.9896 35.9184C29.1153 35.7264 29.2847 35.5669 29.4838 35.453C29.683 35.339 29.9064 35.2739 30.1356 35.2628C30.3684 35.2536 30.6015 35.2573 30.8339 35.274C32.0069 35.3699 33.1266 35.8051 34.0565 36.5265C34.9864 37.2478 35.6863 38.2242 36.0709 39.3365C36.1446 39.554 36.1655 39.7859 36.132 40.0131C36.0985 40.2402 36.0114 40.4562 35.878 40.6431C35.7446 40.8301 35.5687 40.9826 35.3648 41.0882C35.1608 41.1938 34.9347 41.2494 34.7051 41.2504L34.0056 41.2592C32.9388 41.2681 31.895 40.949 31.0156 40.345C30.1361 39.7411 29.4634 38.8816 29.0886 37.8827L29.0964 37.8871Z" fill="#C20300"/>
<path d="M28.0619 44.1047L27.6144 44.6476C27.4698 44.825 27.2852 44.9656 27.0757 45.0578C26.8663 45.1501 26.6379 45.1915 26.4094 45.1785C26.1809 45.1655 25.9587 45.0986 25.7611 44.9833C25.5634 44.8679 25.3959 44.7073 25.2722 44.5147C24.5789 43.4162 24.2586 42.1233 24.359 40.8281C24.4595 39.533 24.9753 38.3049 25.8297 37.3264C25.982 37.1552 26.1726 37.0223 26.386 36.9388C26.5993 36.8552 26.8294 36.8233 27.0575 36.8456C27.2856 36.8679 27.5051 36.9438 27.6983 37.0672C27.8914 37.1905 28.0526 37.3578 28.1688 37.5553L28.5229 38.163C29.0661 39.0807 29.3133 40.1435 29.2308 41.2066C29.1483 42.2698 28.7402 43.2818 28.0619 44.1047Z" fill="#C20300"/>
<path d="M33.9639 41.8939L34.6503 42.0166C34.8769 42.0531 35.0915 42.143 35.2766 42.2788C35.4616 42.4145 35.6118 42.5923 35.7147 42.7975C35.8176 43.0027 35.8702 43.2293 35.8684 43.4588C35.8665 43.6883 35.8101 43.9141 35.7039 44.1176C35.1519 45.1571 34.3093 46.0134 33.279 46.5823C32.2486 47.1511 31.075 47.4078 29.9013 47.3211C29.6661 47.3005 29.4219 47.2595 29.2094 47.2261C28.9825 47.1799 28.7699 47.0802 28.5894 46.9353C28.4088 46.7903 28.2655 46.6043 28.1714 46.3928C28.0773 46.1813 28.035 45.9503 28.0482 45.7191C28.0614 45.488 28.1296 45.2633 28.2472 45.0639L28.5964 44.4496C29.1211 43.521 29.9189 42.7763 30.8814 42.3167C31.8439 41.8571 32.9245 41.7048 33.9766 41.8805L33.9639 41.8939Z" fill="#C20300"/>
<path d="M30.6263 40.1096L29.9829 38.391C29.9384 38.2728 29.9225 38.1457 29.9365 38.0201C29.9506 37.8946 29.9941 37.7742 30.0636 37.6687C30.1331 37.5632 30.2266 37.4757 30.3364 37.4132C30.4462 37.3508 30.5692 37.3152 30.6954 37.3094C30.8258 37.3064 30.9517 37.3111 31.0815 37.318C31.7277 37.3729 32.344 37.6148 32.8551 38.014C33.3662 38.4133 33.7501 38.9527 33.9598 39.5664C34 39.686 34.0114 39.8134 33.993 39.9383C33.9746 40.0632 33.9269 40.1819 33.8538 40.2848C33.7808 40.3878 33.6844 40.472 33.5726 40.5305C33.4608 40.5891 33.3368 40.6204 33.2106 40.6219L31.3884 40.6149C31.2283 40.6145 31.072 40.5658 30.94 40.4751C30.808 40.3845 30.7064 40.2561 30.6484 40.1068L30.6263 40.1096Z" fill="#ED4811"/>
<path d="M29.2745 41.6097L28.2656 42.8417C28.1959 42.9268 28.1071 42.9942 28.0064 43.0384C27.9057 43.0827 27.796 43.1025 27.6862 43.0962C27.5764 43.09 27.4696 43.0579 27.3746 43.0025C27.2796 42.9471 27.199 42.8701 27.1394 42.7776C26.8081 42.2502 26.6553 41.6301 26.7036 41.0091C26.7518 40.3881 26.9986 39.7991 27.4074 39.3291C27.4812 39.2489 27.5729 39.1871 27.6749 39.1486C27.777 39.1102 27.8867 39.0963 27.9951 39.1079C28.1035 39.1195 28.2077 39.1564 28.2994 39.2156C28.391 39.2748 28.4674 39.3546 28.5226 39.4487L29.3366 40.8219C29.4082 40.9454 29.4403 41.0879 29.4284 41.2302C29.4165 41.3724 29.3613 41.5076 29.2701 41.6175L29.2745 41.6097Z" fill="#ED4811"/>
<path d="M31.2043 42.1152L32.7741 42.3852C32.8836 42.4021 32.9874 42.4451 33.0768 42.5105C33.1663 42.5758 33.2388 42.6617 33.2882 42.7608C33.3376 42.8599 33.3626 42.9695 33.361 43.0802C33.3594 43.191 33.3312 43.2998 33.2789 43.3974C33.0139 43.8992 32.6081 44.3125 32.1114 44.5867C31.6146 44.8609 31.0486 44.9839 30.4829 44.9407C30.3707 44.9324 30.2591 44.9171 30.1488 44.8948C30.0405 44.8729 29.9388 44.8258 29.8521 44.7571C29.7655 44.6885 29.6962 44.6004 29.65 44.4999C29.6039 44.3995 29.5821 44.2895 29.5864 44.1791C29.5908 44.0686 29.6211 43.9607 29.6751 43.8642L30.4685 42.4685C30.5381 42.3441 30.6438 42.2437 30.7715 42.1805C30.8993 42.1172 31.0432 42.0941 31.1843 42.1141L31.2043 42.1152Z" fill="#ED4811"/>
<path d="M32.295 40.5131L30.3573 39.18C30.3434 39.367 30.2803 39.5469 30.1745 39.7017C30.0687 39.8564 29.9239 39.9805 29.7548 40.0613C29.5856 40.1421 29.3982 40.1768 29.2113 40.1619C29.0244 40.147 28.8448 40.083 28.6906 39.9764L28.5095 42.322C28.6782 42.2413 28.8652 42.2064 29.0516 42.2209C29.2381 42.2354 29.4174 42.2988 29.5716 42.4047C29.7258 42.5106 29.8493 42.6553 29.9298 42.8241C30.0102 42.9929 30.0448 43.18 30.03 43.3664L32.1488 42.3538C31.9954 42.2472 31.8726 42.1023 31.7926 41.9334C31.7127 41.7645 31.6784 41.5777 31.6932 41.3914C31.708 41.2052 31.7714 41.0261 31.877 40.872C31.9825 40.7178 32.1267 40.5941 32.295 40.5131Z" fill="#ED4811"/>
<path d="M32.9819 45.2862C32.7815 44.9871 32.3963 44.5881 32.3082 44.6615C32.2202 44.7349 32.4332 45.2469 32.6485 45.5288C32.8638 45.8107 32.952 45.8093 33.0373 45.7498C33.1226 45.6903 33.1878 45.5936 32.9814 45.2962L32.9819 45.2862Z" fill="#ED4811"/>
<path d="M31.9279 45.9731C31.8167 45.6167 31.5498 45.0997 31.4401 45.1299C31.3303 45.1601 31.4087 45.7191 31.5259 46.0738C31.6432 46.4286 31.7442 46.45 31.8462 46.4153C31.9482 46.3807 32.0313 46.3251 31.9162 45.9664L31.9279 45.9731Z" fill="#ED4811"/>
<path d="M33.8221 44.4778C33.5137 44.2511 33.01 43.9699 32.9575 44.0532C32.905 44.1365 33.3275 44.5516 33.6336 44.7822C33.9397 45.0128 34.0356 44.9799 34.0843 44.8944C34.1329 44.8088 34.1399 44.7151 33.8337 44.4845L33.8221 44.4778Z" fill="#ED4811"/>
<path d="M30.6437 46.205C30.6481 45.9349 30.5745 45.5124 30.479 45.4993C30.3836 45.4862 30.293 45.9079 30.3014 46.1647C30.3097 46.4215 30.3747 46.4791 30.4663 46.49C30.5578 46.5009 30.641 46.4813 30.632 46.1984L30.6437 46.205Z" fill="#ED4811"/>
<path d="M34.3798 43.4061C34.1085 43.3495 33.6963 43.3416 33.6849 43.4431C33.6735 43.5446 34.0616 43.7396 34.3313 43.79C34.601 43.8404 34.6425 43.7765 34.65 43.6728C34.6576 43.5691 34.6424 43.4781 34.3732 43.4177L34.3798 43.4061Z" fill="#ED4811"/>
<path d="M29.31 45.8275C29.4381 45.602 29.6115 45.2427 29.5404 45.1869C29.4693 45.131 29.1981 45.4089 29.0544 45.6256C28.9106 45.8422 28.9529 45.9126 29.0241 45.9685C29.0952 46.0243 29.164 46.048 29.31 45.8275Z" fill="#ED4811"/>
<path d="M34.0249 42.1755C33.8015 42.2337 33.4774 42.3786 33.5019 42.444C33.5265 42.5094 33.8803 42.4842 34.1037 42.426C34.3271 42.3678 34.3342 42.3101 34.3118 42.2408C34.2895 42.1716 34.25 42.1234 34.0249 42.1755Z" fill="#ED4811"/>
<path d="M25.5899 41.4493C25.9538 41.4607 26.5006 41.3857 26.5048 41.2698C26.509 41.1538 25.9601 41.0425 25.6101 41.0338C25.2601 41.0252 25.207 41.1185 25.2029 41.2344C25.1987 41.3503 25.2377 41.4446 25.5916 41.4554L25.5899 41.4493Z" fill="#ED4811"/>
<path d="M25.657 40.1912C26.015 40.3124 26.5715 40.3922 26.6268 40.295C26.682 40.1978 26.1661 39.9199 25.8097 39.8048C25.4534 39.6897 25.3775 39.7597 25.334 39.8635C25.2904 39.9674 25.2967 40.0739 25.6608 40.1934L25.657 40.1912Z" fill="#ED4811"/>
<path d="M25.7423 42.6111C26.1087 42.5004 26.6323 42.258 26.5933 42.1637C26.5543 42.0695 25.976 42.1729 25.6096 42.2835C25.2432 42.3942 25.2284 42.4835 25.2657 42.5716C25.3031 42.6597 25.3737 42.7256 25.754 42.6177L25.7423 42.6111Z" fill="#ED4811"/>
<path d="M26.2263 39.0179C26.448 39.1799 26.8328 39.3626 26.8942 39.2998C26.9557 39.237 26.6837 38.9281 26.4643 38.7622C26.2448 38.5963 26.1606 38.6358 26.1186 38.7097C26.0766 38.7836 26.0324 38.8613 26.2402 39.0206L26.2263 39.0179Z" fill="#ED4811"/>
<path d="M26.2826 43.6693C26.4886 43.488 26.7385 43.1569 26.6618 43.0927C26.5852 43.0285 26.2095 43.2368 26.0014 43.422C25.7933 43.6071 25.8511 43.6863 25.91 43.7456C25.969 43.8048 26.0772 43.8406 26.2826 43.6693Z" fill="#ED4811"/>
<path d="M27.3193 38.1629C27.4086 38.404 27.6162 38.7535 27.7016 38.73C27.787 38.7065 27.7256 38.3167 27.6364 38.0757C27.5471 37.8346 27.4655 37.8242 27.3763 37.8455C27.287 37.8668 27.2322 37.9179 27.3193 38.1629Z" fill="#ED4811"/>
<path d="M27.4963 44.1226C27.5818 43.9088 27.6581 43.5664 27.5871 43.5466C27.516 43.5268 27.332 43.8234 27.2443 44.041C27.1565 44.2587 27.2065 44.2974 27.2715 44.3189C27.3364 44.3404 27.4108 44.3363 27.4963 44.1226Z" fill="#ED4811"/>
<path d="M33.7923 37.3364C33.5649 37.6187 33.1287 37.988 33.0375 37.895C32.9463 37.802 33.1982 37.3227 33.4255 37.0405C33.6529 36.7582 33.7611 36.794 33.8628 36.8775C33.9645 36.961 34.0213 37.0602 33.7856 37.3481L33.7923 37.3364Z" fill="#ED4811"/>
<path d="M32.6665 36.4753C32.5314 36.8306 32.2324 37.3294 32.1147 37.283C31.997 37.2367 32.0995 36.6674 32.2263 36.3176C32.3531 35.9679 32.4823 35.9487 32.5911 36.0106C32.7 36.0725 32.7972 36.1278 32.6598 36.4869L32.6665 36.4753Z" fill="#ED4811"/>
<path d="M34.6786 38.2929C34.3418 38.4873 33.7854 38.7059 33.7325 38.609C33.6796 38.512 34.1475 38.1504 34.4843 37.9561C34.8211 37.7618 34.9044 37.8143 34.9595 37.9073C35.0146 38.0004 35.0193 38.1008 34.6786 38.2929Z" fill="#ED4811"/>
<path d="M31.2811 36.0529C31.274 36.3369 31.1873 36.7609 31.0791 36.7611C30.971 36.7614 30.9018 36.3311 30.9028 36.0488C30.9039 35.7664 30.9898 35.7329 31.0863 35.7261C31.1828 35.7192 31.2705 35.7639 31.2695 36.0463L31.2811 36.0529Z" fill="#ED4811"/>
<path d="M35.2486 39.4709C34.9569 39.4954 34.5069 39.4453 34.4967 39.3367C34.4865 39.228 34.9255 39.1072 35.2172 39.0827C35.5089 39.0582 35.5485 39.1424 35.5587 39.2511C35.5689 39.3598 35.5403 39.4464 35.2486 39.4709Z" fill="#ED4811"/>
<path d="M29.8244 36.2537C29.9736 36.4979 30.1381 36.9053 30.0595 36.9531C29.9808 37.001 29.7016 36.6777 29.5408 36.4268C29.3799 36.1759 29.4352 36.1147 29.5139 36.0669C29.5926 36.019 29.6713 36.0072 29.8288 36.2459L29.8244 36.2537Z" fill="#ED4811"/>
<path d="M34.8476 40.7193C34.6061 40.6283 34.2618 40.4377 34.2916 40.3672C34.3214 40.2967 34.6976 40.3768 34.9391 40.4678C35.1806 40.5588 35.1957 40.6137 35.1615 40.6919C35.1273 40.7702 35.0952 40.8086 34.8476 40.7193Z" fill="#ED4811"/>
<path fill-rule="evenodd" clip-rule="evenodd" d="M49.8415 21.7273L52.9165 23.1049L45.4825 39.7021L42.4076 38.3244C40.2067 37.3386 38.4875 35.5189 37.6283 33.2655C36.7691 31.0122 36.8402 28.5098 37.826 26.3089C38.8118 24.108 40.6315 22.3888 42.8849 21.5296C45.1382 20.6704 47.6406 20.7415 49.8415 21.7273Z" fill="#FFABAB"/>
<path fill-rule="evenodd" clip-rule="evenodd" d="M49.5551 22.3669L52.6301 23.7446L45.7624 39.0741L42.6913 37.6987C40.6619 36.7831 39.0777 35.1009 38.2852 33.0203C37.4928 30.9397 37.5566 28.6299 38.4626 26.5962C39.3773 24.5684 41.0576 22.9852 43.1362 22.1927C45.2148 21.4002 47.5226 21.4628 49.5551 22.3669Z" fill="#F29191"/>
<path fill-rule="evenodd" clip-rule="evenodd" d="M51.2364 26.8567C49.2954 28.2893 46.763 30.147 47.2409 32.3015C47.5417 32.6923 47.951 32.9858 48.4176 33.1453L48.1649 33.7166L47.6284 33.4477C47.5213 33.4599 47.4127 33.4458 47.3122 33.4068C47.3122 33.4068 41.6683 32.1686 38.4197 33.2591C38.2383 32.8454 38.091 32.4176 37.9792 31.9799C45.0902 29.7054 44.8042 34.0542 46.2351 30.4694C46.6774 29.3474 46.9951 28.0465 46.1431 27.0117C44.5128 25.0201 40.2727 26.7147 38.1478 27.5027C38.2429 27.1986 38.3558 26.9003 38.4859 26.6094C38.6092 26.3375 38.7464 26.0721 38.8968 25.8142C41.4622 25.0658 45.1751 24.5067 47.0066 26.7413C47.9789 27.9267 48.0393 24.6894 46.5525 23.8031C45.1722 22.9464 43.2704 22.8169 41.6854 22.9447C42.2278 22.6046 42.8077 22.3284 43.4136 22.1216L43.6661 22.1571C44.7911 22.2552 45.8806 22.6005 46.8567 23.1684C50.5771 25.4737 47.5603 28.2649 49.9741 26.9416C50.6085 26.5691 51.2146 26.1502 51.7873 25.6884L51.2553 26.8777L51.2364 26.8567Z" fill="#E87B7B"/>
<path fill-rule="evenodd" clip-rule="evenodd" d="M50.8138 24.1524C51.1164 23.81 49.467 23.644 50.1809 24.1887C50.4965 24.4299 50.552 24.4409 50.8138 24.1524Z" fill="#E87B7B"/>
<path fill-rule="evenodd" clip-rule="evenodd" d="M50.4645 24.9569C50.6345 24.5855 49.7245 24.4488 50.0861 24.9167C50.2418 25.1133 50.3535 25.1974 50.4645 24.9569Z" fill="#E87B7B"/>
<path fill-rule="evenodd" clip-rule="evenodd" d="M40.8988 29.6221C41.4761 29.8011 41.2627 28.6201 40.7413 29.121C40.5094 29.339 40.5203 29.5098 40.8988 29.6221Z" fill="#E87B7B"/>
<path fill-rule="evenodd" clip-rule="evenodd" d="M40.126 29.8052C40.28 29.4349 39.6074 29.5412 39.8483 29.8685C39.9473 30.0019 40.0251 30.0461 40.126 29.8052Z" fill="#E87B7B"/>
<path fill-rule="evenodd" clip-rule="evenodd" d="M40.1965 28.8577C39.7961 28.8563 40.1518 29.4341 40.3624 29.0908C40.4441 28.947 40.4589 28.8576 40.1965 28.8577Z" fill="#E87B7B"/>
<path fill-rule="evenodd" clip-rule="evenodd" d="M47.2962 34.4574C47.5405 34.0819 46.2628 34.194 46.8146 34.662C47.0558 34.8711 47.0911 34.7729 47.2962 34.4574Z" fill="#E87B7B"/>
<path fill-rule="evenodd" clip-rule="evenodd" d="M46.9364 35.0451C46.554 34.9306 46.7274 35.5847 47.0302 35.3144C47.1503 35.2027 47.1867 35.1205 46.9364 35.0451Z" fill="#E87B7B"/>
<path d="M38.128 22.5428C38.128 22.5428 36.0218 20.2755 32.9812 20.3577C29.1142 20.464 27.9768 22.8267 27.9768 22.8267L27.8696 19.0157L38.0229 18.7279L38.128 22.5428Z" fill="#DB9E68"/>
<path d="M37.2932 21.8213L37.091 21.7064L37.7461 20.4636C37.7531 20.45 37.7627 20.4379 37.7744 20.4281C37.7861 20.4182 37.7996 20.4108 37.8142 20.4062C37.8288 20.4016 37.8441 20.3999 37.8593 20.4012C37.8746 20.4025 37.8894 20.4068 37.9029 20.4138C37.9169 20.4204 37.9295 20.4298 37.9397 20.4414C37.9499 20.453 37.9575 20.4666 37.9622 20.4814C37.9669 20.4961 37.9685 20.5117 37.9668 20.527C37.9652 20.5424 37.9603 20.5573 37.9527 20.5707L37.2821 21.8408L37.2932 21.8213ZM36.5832 21.3509L36.3772 21.2337L37.0247 19.606L36.1616 19.0793L35.7635 20.9106L35.5442 20.8168L35.9775 18.8512C35.9817 18.8399 35.9876 18.8294 35.9952 18.8201C36.0021 18.8078 36.0114 18.797 36.0225 18.7883C36.0336 18.7796 36.0463 18.7732 36.0599 18.7694L36.1282 18.7671L36.1554 18.7825L37.2357 19.443C37.2606 19.4578 37.2795 19.4807 37.2894 19.5078C37.2993 19.535 37.2994 19.5648 37.2898 19.5921L36.5937 21.3414L36.5832 21.3509Z" fill="#BF7635"/>
<path d="M30.4628 20.8243C30.3852 20.8522 30.3154 20.8845 30.2417 20.9147L29.7776 19.2516L28.9468 19.8082L29.605 21.2112L29.4023 21.3325L28.72 19.8181C28.7084 19.792 28.7064 19.7626 28.7145 19.7351C28.7225 19.7077 28.7401 19.684 28.764 19.6683L29.7808 18.9654L29.7941 18.9421L29.8623 18.9397C29.8894 18.9449 29.914 18.9589 29.9323 18.9795L29.9595 18.995L30.4783 20.7971L30.4628 20.8243ZM28.884 21.7375C28.8209 21.7942 28.7622 21.8432 28.7052 21.8982L28.0577 20.8202C28.0494 20.8075 28.0438 20.7931 28.0412 20.7781C28.0386 20.7631 28.0392 20.7477 28.0428 20.7329C28.0464 20.718 28.053 20.7041 28.0621 20.6919C28.0713 20.6798 28.0829 20.6696 28.0962 20.6621C28.1094 20.6539 28.1242 20.6484 28.1396 20.646C28.155 20.6436 28.1707 20.6443 28.1858 20.6481C28.2009 20.6519 28.2151 20.6587 28.2276 20.6681C28.24 20.6775 28.2504 20.6893 28.2582 20.7028L28.8801 21.7353L28.884 21.7375Z" fill="#BF7635"/>
<path d="M32.8443 14.4723C27.7599 14.6118 26.2589 18.347 26.3223 20.6516C26.3529 21.1069 26.4794 21.5505 26.6937 21.9534C26.908 22.3563 27.2051 22.7092 27.5656 22.989C27.6184 23.0353 27.6839 23.0646 27.7537 23.073C27.8234 23.0815 27.894 23.0687 27.9564 23.0363C28.0187 23.0039 28.0698 22.9534 28.103 22.8915C28.1361 22.8296 28.1499 22.7592 28.1423 22.6893C28.135 22.6389 28.1166 22.0831 28.1153 22.031C28.0908 20.9882 28.8438 20.3514 30.0184 19.7692C30.098 19.7346 30.1845 19.7189 30.2712 19.7236C30.3578 19.7282 30.4422 19.7529 30.5177 19.7958C30.5931 19.8387 30.6575 19.8985 30.7058 19.9706C30.7541 20.0427 30.785 20.1251 30.7959 20.2112C30.9228 21.3635 31.4212 23.9977 30.9426 25.0116C30.8466 25.9859 35.256 25.8484 35.2511 24.8889C34.7146 23.8689 35.0499 21.2611 35.1266 20.0856C35.1278 19.9897 35.1537 19.8957 35.202 19.8129C35.2503 19.73 35.3193 19.6611 35.4021 19.6129C35.485 19.5646 35.579 19.5387 35.6749 19.5376C35.7708 19.5365 35.8653 19.5604 35.9493 19.6067C37.1635 20.1221 37.9437 20.7405 37.9721 21.7854L37.9852 22.441C37.9823 22.5104 38.0001 22.5791 38.0365 22.6383C38.0728 22.6975 38.126 22.7444 38.1893 22.7732C38.2525 22.8019 38.3228 22.8112 38.3913 22.7997C38.4598 22.7882 38.5233 22.7565 38.5737 22.7088C38.9225 22.4107 39.2036 22.0415 39.3981 21.626C39.5926 21.2105 39.6961 20.7582 39.7016 20.2995C39.6382 17.9949 37.88 14.3462 32.8477 14.4845L32.8443 14.4723Z" fill="#F5D8C1"/>
<path d="M27.1567 17.4736C26.5959 18.4378 26.3075 19.5363 26.3223 20.6516C26.3529 21.1069 26.4794 21.5505 26.6937 21.9534C26.908 22.3563 27.2051 22.7092 27.5656 22.989C27.6184 23.0353 27.6839 23.0646 27.7537 23.073C27.8234 23.0815 27.894 23.0687 27.9564 23.0363C28.0187 23.0039 28.0698 22.9534 28.103 22.8915C28.1361 22.8296 28.1499 22.7592 28.1423 22.6893C28.135 22.6389 28.1166 22.0831 28.1153 22.031C28.0908 20.9882 28.8438 20.3514 30.0184 19.7692C30.098 19.7346 30.1845 19.7189 30.2712 19.7236C30.3578 19.7282 30.4422 19.7529 30.5177 19.7958C30.5931 19.8387 30.6575 19.8985 30.7058 19.9706C30.7541 20.0427 30.785 20.1251 30.7959 20.2112C30.9228 21.3635 31.4212 23.9977 30.9426 25.0116C30.8466 25.9859 35.256 25.8484 35.2511 24.8889C34.7146 23.8689 35.0499 21.2611 35.1266 20.0856C35.1278 19.9897 35.1537 19.8957 35.202 19.8129C35.2503 19.73 35.3193 19.6611 35.4021 19.6129C35.485 19.5646 35.579 19.5387 35.6749 19.5376C35.7708 19.5365 35.8653 19.5604 35.9493 19.6067C37.1635 20.1221 37.9437 20.7405 37.9721 21.7854L37.9852 22.441C37.9823 22.5104 38.0001 22.5791 38.0365 22.6383C38.0728 22.6975 38.126 22.7444 38.1893 22.7732C38.2525 22.8019 38.3228 22.8112 38.3913 22.7997C38.4598 22.7882 38.5233 22.7565 38.5737 22.7088C38.9225 22.4107 39.2036 22.0415 39.3981 21.626C39.5926 21.2105 39.6961 20.7582 39.7016 20.2995C39.6535 19.1891 39.303 18.1129 38.6879 17.1872C37.1666 15.5559 35.058 14.9488 32.8638 15.0081C30.6696 15.0673 28.5951 15.7759 27.16 17.4858L27.1567 17.4736Z" fill="#FFEBDB"/>
<path d="M30.3011 19.7242C30.4338 19.7289 30.5605 19.7807 30.6585 19.8704C30.7564 19.96 30.8193 20.0816 30.8358 20.2133C30.9626 21.3657 31.4611 23.9998 30.9824 25.0138C30.8864 25.988 35.2958 25.8506 35.2909 24.891C34.7545 23.871 35.0898 21.2633 35.1665 20.0877C35.1711 20.0069 35.1933 19.9281 35.2316 19.8569C35.2698 19.7856 35.3233 19.7235 35.3881 19.6751C35.4529 19.6266 35.5275 19.5929 35.6067 19.5764C35.6859 19.5598 35.7677 19.5608 35.8465 19.5792C33.8045 18.9637 30.932 19.5736 30.3033 19.7203L30.3011 19.7242ZM35.9492 19.6067L36.1358 19.7128C36.0776 19.6708 36.015 19.6352 35.9492 19.6067Z" fill="#F5D8C1"/>
<path d="M28.0756 20.8612C28.1044 20.6204 27.5311 20.9684 27.8985 21.0641C28.0545 21.1064 28.0494 21.0521 28.0756 20.8612Z" fill="#F5D8C1"/>
<path d="M27.5358 21.0688C27.3318 21.1019 27.5598 21.3704 27.6403 21.1745C27.6823 21.1006 27.6711 21.0479 27.5358 21.0688Z" fill="#F5D8C1"/>
<path d="M27.7416 21.3761C27.5376 21.4093 27.7656 21.6778 27.8461 21.4818C27.8881 21.408 27.8769 21.3553 27.7416 21.3761Z" fill="#F5D8C1"/>
<path d="M35.3093 17.1853C35.5014 17.2636 35.3398 16.6882 35.1735 16.9898C35.1028 17.1142 35.1505 17.1208 35.3093 17.1853Z" fill="#F5D8C1"/>
<path d="M31.5312 18.3297C31.6269 18.487 31.7677 18.2122 31.593 18.2209C31.5209 18.221 31.4821 18.235 31.5312 18.3297Z" fill="#F5D8C1"/>
<path d="M31.689 18.4863C31.5132 18.515 31.709 18.7498 31.7802 18.5793C31.8178 18.5132 31.806 18.4706 31.689 18.4863Z" fill="#F5D8C1"/>
<path d="M30.6928 19.2523C30.5132 19.2788 30.7128 19.5158 30.784 19.3453C30.8216 19.2792 30.8098 19.2366 30.6928 19.2523Z" fill="#F5D8C1"/>
<path d="M38.8378 21.0224C38.6468 21.1865 39.3394 21.3075 39.1201 20.9874C39.0277 20.8423 38.9951 20.8906 38.8378 21.0224Z" fill="#F5D8C1"/>
<path d="M38.658 21.6918C38.4411 21.7023 38.6492 22.0058 38.7536 21.8131C38.7978 21.7353 38.8199 21.6964 38.658 21.6918Z" fill="#F5D8C1"/>
<path d="M38.418 21.7611C38.4869 21.5585 38.1282 21.6375 38.2694 21.8053C38.3278 21.8745 38.3706 21.8988 38.418 21.7611Z" fill="#F5D8C1"/>
<path d="M38.1473 20.2646C38.2184 20.0581 37.8575 20.141 37.9987 20.3087C38.0571 20.378 38.1021 20.3984 38.1473 20.2646Z" fill="#F5D8C1"/>
<path d="M30.1366 27.7325C29.6752 27.4702 29.1465 27.3506 28.6172 27.3889C28.0879 27.4271 27.5818 27.6215 27.1629 27.9473C26.7441 28.2732 26.4313 28.716 26.264 29.2196C26.0968 29.7233 26.0827 30.2652 26.2235 30.7769C26.3643 31.2885 26.6536 31.747 27.0549 32.0942C27.4562 32.4414 27.9515 32.6619 28.4781 32.7276C29.0047 32.7934 29.539 32.7015 30.0133 32.4636C30.4877 32.2257 30.8809 31.8525 31.1432 31.3911C31.4949 30.7725 31.5864 30.0395 31.3976 29.3533C31.2088 28.6672 30.7552 28.0842 30.1366 27.7325ZM28.1763 31.1809C27.9571 31.0563 27.7798 30.8695 27.6668 30.6442C27.5538 30.4189 27.5102 30.1651 27.5414 29.915C27.5727 29.6648 27.6774 29.4296 27.8423 29.2389C28.0072 29.0483 28.225 28.9109 28.468 28.844C28.7111 28.7772 28.9685 28.7839 29.2077 28.8633C29.447 28.9427 29.6573 29.0913 29.8121 29.2903C29.9668 29.4892 30.0592 29.7296 30.0773 29.981C30.0955 30.2324 30.0387 30.4836 29.9141 30.7027C29.8318 30.8487 29.7215 30.9769 29.5894 31.08C29.4574 31.1831 29.3062 31.2591 29.1447 31.3035C28.9832 31.348 28.8144 31.36 28.6482 31.339C28.482 31.3179 28.3216 31.2642 28.1763 31.1809Z" fill="#04060D"/>
<path d="M29.8558 28.2262C29.4906 28.0186 29.072 27.9239 28.6529 27.9542C28.2339 27.9845 27.8332 28.1383 27.5017 28.3963C27.1701 28.6543 26.9224 29.0048 26.79 29.4035C26.6577 29.8022 26.6465 30.2313 26.7579 30.6363C26.8694 31.0414 27.0984 31.4043 27.4161 31.6792C27.7339 31.9541 28.126 32.1286 28.5428 32.1807C28.9597 32.2327 29.3827 32.16 29.7582 31.9717C30.1338 31.7833 30.4451 31.4879 30.6527 31.1226C30.9299 30.6326 31.0017 30.0527 30.8523 29.5099C30.703 28.967 30.3447 28.5055 29.8558 28.2262ZM28.1762 31.1809C27.957 31.0563 27.7797 30.8695 27.6667 30.6442C27.5537 30.4189 27.5101 30.1651 27.5413 29.915C27.5726 29.6648 27.6773 29.4296 27.8422 29.2389C28.0071 29.0483 28.2249 28.9109 28.4679 28.844C28.711 28.7771 28.9684 28.7838 29.2076 28.8633C29.4469 28.9427 29.6572 29.0913 29.8119 29.2902C29.9667 29.4892 30.0591 29.7296 30.0772 29.981C30.0954 30.2324 30.0386 30.4836 29.914 30.7027C29.8317 30.8487 29.7214 30.9769 29.5893 31.08C29.4573 31.1831 29.3061 31.2591 29.1446 31.3035C28.9831 31.348 28.8143 31.36 28.6481 31.3389C28.4819 31.3179 28.3215 31.2642 28.1762 31.1809Z" fill="#3D2D28"/>
</g>
<defs>
<clipPath id="clip0_448_14412">
<rect width="44.4023" height="56.7271" fill="white" transform="translate(38.7833 71.6296) rotate(-150.383)"/>
</clipPath>
</defs>
</svg>
