<?xml version="1.0" standalone="no"?>
<!DOCTYPE svg PUBLIC "-//W3C//DTD SVG 20010904//EN"
 "http://www.w3.org/TR/2001/REC-SVG-20010904/DTD/svg10.dtd">
<svg version="1.0" xmlns="http://www.w3.org/2000/svg"
 width="3408.000000pt" height="3263.000000pt" viewBox="0 0 3408.000000 3263.000000"
 preserveAspectRatio="xMidYMid meet">

<g transform="translate(0.000000,3263.000000) scale(0.100000,-0.100000)"
fill="#000000" stroke="none">
<path d="M12595 32619 c-905 -86 -1650 -755 -1830 -1644 -137 -676 74 -1373
563 -1864 678 -680 1725 -802 2540 -297 126 78 227 159 350 280 124 120 190
200 302 361 280 402 565 729 865 992 l130 114 3 -9137 c1 -5026 0 -9139 -3
-9142 -8 -8 -245 211 -395 364 -224 229 -375 417 -567 704 -119 178 -197 276
-309 387 -306 302 -671 487 -1119 568 -123 22 -423 31 -555 16 -718 -82 -1320
-504 -1635 -1146 -266 -542 -281 -1165 -41 -1720 327 -756 1070 -1245 1891
-1245 316 0 595 63 880 199 209 100 367 209 537 371 113 106 208 221 343 415
203 290 402 531 623 752 130 130 332 313 346 313 3 0 6 -2252 6 -5005 l0
-5005 520 0 520 0 0 1025 c0 564 3 1025 6 1025 14 0 218 -184 344 -310 209
-209 429 -473 597 -715 187 -269 304 -405 466 -542 977 -819 2441 -567 3097
534 357 599 381 1352 63 1976 -312 612 -894 1023 -1576 1112 -627 81 -1273
-135 -1716 -574 -122 -121 -193 -209 -311 -386 -193 -290 -344 -478 -570 -709
-150 -153 -387 -372 -395 -364 -3 3 -4 3732 -3 8287 l3 8283 110 -95 c61 -52
182 -168 270 -258 232 -237 388 -428 610 -744 121 -173 198 -265 312 -376 209
-203 432 -345 701 -449 233 -90 459 -131 727 -131 334 0 603 61 900 206 846
412 1305 1340 1120 2261 -126 625 -538 1160 -1110 1440 -574 280 -1232 284
-1810 10 -226 -108 -413 -243 -595 -432 -115 -119 -181 -203 -285 -364 -210
-325 -528 -689 -848 -968 l-107 -93 0 5865 0 5866 -520 0 -520 0 -2 -1029 -3
-1030 -115 101 c-320 282 -599 601 -840 963 -127 191 -168 243 -285 364 -437
451 -1054 679 -1680 620z m3593 -866 l-3 -458 -125 0 -125 0 -3 458 -2 457
130 0 130 0 -2 -457z m-4094 -869 c13 -12 16 -38 16 -120 0 -57 2 -104 5 -104
2 0 19 9 37 20 48 29 128 28 155 -2 37 -41 41 -61 44 -227 l3 -164 -23 -9
c-33 -12 -60 -1 -72 29 -5 13 -9 85 -9 158 0 126 -1 135 -21 145 -24 13 -71 0
-101 -27 -16 -14 -18 -34 -18 -160 l0 -143 -45 0 -45 0 0 310 0 310 29 0 c16
0 37 -7 45 -16z m4096 -464 l0 -460 -130 0 -130 0 0 460 0 460 130 0 130 0 0
-460z m-4334 411 c70 -39 102 -122 82 -213 -19 -93 -84 -137 -200 -138 l-68 0
0 -100 0 -100 -50 0 -50 0 0 283 c0 156 3 287 8 291 4 4 59 6 122 4 98 -3 121
-7 156 -27z m2138 -17 c14 -5 16 -35 16 -230 l0 -224 56 0 55 0 -3 -37 -3 -38
-162 -3 -163 -2 0 40 0 40 60 0 60 0 0 118 c0 64 3 135 7 157 l6 39 -39 -30
c-70 -55 -85 -60 -106 -34 -10 12 -18 26 -18 30 0 5 22 24 48 44 27 19 62 55
78 78 16 24 33 46 39 50 12 9 48 10 69 2z m-1294 -132 c49 -35 60 -75 60 -212
0 -82 4 -130 11 -137 9 -9 8 -18 -5 -37 -18 -28 -36 -26 -73 6 -21 20 -21 20
-53 -4 -46 -33 -138 -33 -174 1 -67 63 -52 176 28 218 19 10 57 17 99 17 l68
1 -3 35 c-2 25 -10 38 -29 49 -23 13 -34 13 -95 -2 -65 -16 -70 -16 -81 0 -26
35 -16 52 40 67 104 29 164 29 207 -2z m358 17 c65 -16 73 -24 60 -61 -9 -26
-14 -29 -37 -23 -68 16 -127 17 -140 2 -23 -29 -8 -51 55 -77 86 -36 114 -57
131 -97 27 -66 -7 -135 -80 -162 -41 -16 -116 -13 -171 5 -55 19 -65 34 -42
68 l15 24 53 -20 c60 -23 112 -18 128 12 17 32 -4 56 -67 80 -77 29 -109 54
-123 95 -15 46 -5 86 29 119 46 44 105 55 189 35z m390 -16 c59 -44 92 -126
77 -193 l-7 -30 -119 0 c-93 0 -119 -3 -119 -14 0 -28 23 -77 40 -86 27 -14
81 -12 129 5 41 14 42 14 53 -10 16 -36 4 -52 -53 -69 -115 -34 -195 -12 -239
65 -22 38 -25 56 -25 134 0 77 4 96 25 135 47 84 167 116 238 63z m2742 -1598
l0 -455 -130 0 -130 0 0 455 0 455 130 0 130 0 0 -455z m0 -1335 l0 -460 -130
0 -130 0 0 460 0 460 130 0 130 0 0 -460z m0 -1330 l0 -460 -130 0 -130 0 0
460 0 460 130 0 130 0 0 -460z m0 -1335 l0 -455 -130 0 -130 0 0 455 0 455
130 0 130 0 0 -455z m0 -1335 l0 -460 -130 0 -130 0 0 460 0 460 130 0 130 0
0 -460z m-2 -1332 l2 -458 -130 0 -130 0 0 453 c0 250 3 457 7 461 4 3 61 5
127 4 l121 -3 3 -457z m0 -1335 l-3 -458 -125 0 -125 0 -3 458 -2 457 130 0
130 0 -2 -457z m2390 135 c8 -8 12 -49 12 -120 l0 -108 38 19 c58 29 95 34
136 17 55 -23 64 -54 67 -246 l4 -165 -45 0 c-56 0 -58 6 -59 181 -1 86 -5
134 -13 142 -18 18 -46 15 -89 -10 l-39 -22 0 -148 0 -148 -45 0 -45 0 0 310
0 310 33 0 c18 0 38 -5 45 -12z m-238 -54 c74 -43 104 -132 76 -228 -26 -88
-88 -126 -208 -126 l-58 0 0 -100 0 -100 -50 0 -50 0 0 291 0 291 128 -3 c106
-3 133 -7 162 -25z m2124 -15 c27 -7 57 -24 77 -45 29 -30 34 -42 37 -97 5
-79 -11 -103 -132 -208 -49 -42 -92 -82 -96 -90 -7 -12 13 -14 118 -14 l127 0
-2 -30 c-4 -49 -22 -55 -179 -55 -140 0 -142 0 -158 25 -37 56 -22 83 115 215
102 99 109 107 109 144 0 52 -23 76 -70 76 -27 0 -45 -7 -64 -26 -14 -15 -26
-31 -26 -35 0 -15 -47 -10 -60 6 -29 35 35 112 110 133 47 14 45 14 94 1z
m-1305 -125 c66 -26 75 -49 81 -209 3 -77 9 -146 13 -152 11 -18 -10 -53 -32
-53 -10 0 -30 9 -44 21 l-26 20 -30 -22 c-75 -56 -183 -26 -207 58 -32 110 39
183 179 183 44 0 47 2 47 27 0 35 -27 63 -60 63 -14 0 -50 -7 -79 -16 -59 -17
-71 -12 -74 32 -2 28 1 30 63 46 83 21 120 22 169 2z m399 1 c29 -9 52 -17 52
-19 0 -8 -22 -66 -25 -66 -2 0 -29 7 -60 15 -60 15 -101 8 -111 -20 -10 -24
21 -51 84 -74 82 -29 117 -69 117 -131 0 -40 -5 -54 -28 -78 -53 -55 -165 -66
-250 -26 -42 20 -45 32 -19 64 17 22 19 22 50 6 40 -21 116 -21 136 0 34 33
13 58 -75 93 -79 31 -112 68 -112 126 0 101 107 150 241 110z m361 -4 c21 -11
45 -31 54 -45 26 -38 41 -108 33 -149 l-7 -37 -120 0 -121 0 7 -32 c14 -70 75
-93 160 -63 22 8 41 15 42 15 1 0 9 -13 18 -30 l15 -29 -40 -21 c-125 -64
-251 -23 -285 93 -62 207 80 381 244 298z m-3729 -1271 l0 -460 -130 0 -130 0
0 460 0 460 130 0 130 0 0 -460z m-2 -1332 l2 -458 -130 0 -130 0 0 453 c0
250 3 457 7 461 4 3 61 5 127 4 l121 -3 3 -457z m0 -1335 l-3 -458 -125 0
-125 0 -3 458 -2 457 130 0 130 0 -2 -457z m2 -1333 l0 -460 -130 0 -130 0 0
460 0 460 130 0 130 0 0 -460z m-2 -1332 l2 -458 -130 0 -130 0 0 453 c0 250
3 457 7 461 4 3 61 5 127 4 l121 -3 3 -457z m0 -1335 l-3 -458 -125 0 -125 0
-3 458 -2 457 130 0 130 0 -2 -457z m-4018 -509 c6 -14 10 -66 10 -115 0 -49
1 -89 3 -89 1 0 20 9 42 20 57 29 108 26 145 -7 41 -36 49 -77 51 -247 1 -149
-1 -156 -51 -156 -46 0 -50 14 -50 165 0 166 -6 182 -65 172 -70 -11 -74 -21
-77 -186 l-3 -146 -45 0 -45 0 -3 308 -2 307 40 0 c34 0 42 -4 50 -26z m-250
-37 c82 -43 114 -158 71 -253 -31 -69 -102 -103 -213 -104 l-48 0 0 -101 0
-100 -47 3 -48 3 -3 288 -2 287 123 0 c110 0 129 -3 167 -23z m2230 -36 c21
-40 11 -65 -50 -126 l-60 -60 50 -22 c69 -30 92 -69 88 -148 -4 -73 -31 -116
-91 -146 -59 -30 -151 -29 -214 2 -55 28 -60 38 -34 70 19 23 19 23 55 6 42
-20 124 -22 147 -4 45 35 52 105 13 144 -22 22 -32 25 -75 21 -37 -4 -52 -1
-64 12 -8 9 -15 21 -15 26 0 5 34 43 76 85 l76 76 -104 -1 -103 -1 -3 28 c-7
56 -5 57 152 57 133 0 146 -2 156 -19z m-1367 -129 l32 -32 6 -143 c3 -78 9
-150 13 -159 9 -20 -9 -58 -29 -58 -7 0 -26 11 -42 24 -28 24 -29 24 -52 5
-90 -73 -221 -18 -221 93 0 90 62 138 176 138 l67 0 -7 32 c-3 17 -11 37 -17
45 -15 17 -86 17 -138 -2 l-42 -15 -14 33 c-7 17 -11 35 -7 39 19 18 113 37
175 35 61 -2 70 -6 100 -35z m359 28 c47 -13 53 -24 38 -61 -10 -22 -17 -28
-29 -23 -9 4 -38 12 -64 18 -58 12 -82 1 -82 -39 0 -25 7 -31 70 -56 90 -36
125 -74 125 -133 0 -50 -24 -87 -73 -112 -41 -22 -140 -21 -194 1 -46 18 -53
37 -29 70 13 17 15 18 55 2 79 -32 146 -16 139 33 -3 25 -7 28 -111 75 -63 29
-87 62 -87 117 0 92 114 143 242 108z m393 -30 c42 -41 58 -86 53 -155 l-3
-50 -117 -3 c-109 -2 -118 -4 -118 -22 0 -70 54 -98 144 -75 62 16 69 14 81
-23 6 -20 0 -25 -41 -44 -67 -29 -159 -29 -207 1 -54 33 -81 97 -81 191 0 93
29 162 84 198 30 20 45 23 102 20 61 -3 71 -7 103 -38z m2655 -620 l0 -460
-130 0 -130 0 0 460 0 460 130 0 130 0 0 -460z m-2 -1332 l2 -458 -130 0 -130
0 0 453 c0 250 3 457 7 461 4 3 61 5 127 4 l121 -3 3 -457z m0 -1335 l-3 -458
-125 0 -125 0 -3 458 -2 457 130 0 130 0 -2 -457z m2 -1333 l0 -460 -130 0
-130 0 0 460 0 460 130 0 130 0 0 -460z m0 -1335 l0 -455 -130 0 -130 0 0 455
0 455 130 0 130 0 0 -455z m0 -1335 l0 -460 -130 0 -130 0 0 460 0 460 130 0
130 0 0 -460z m2328 -452 c8 -8 12 -49 12 -119 l0 -106 47 23 c73 37 136 29
170 -23 15 -22 19 -57 24 -198 4 -116 2 -172 -5 -178 -6 -4 -24 -6 -41 -5 -46
4 -55 34 -55 184 0 87 -4 134 -12 142 -18 18 -57 14 -94 -9 l-34 -21 0 -149 0
-149 -45 0 -45 0 0 310 0 310 33 0 c18 0 38 -5 45 -12z m-257 -42 c137 -58
141 -273 7 -342 -17 -9 -63 -18 -104 -21 l-73 -6 -3 -96 -3 -96 -47 -3 -48 -3
0 290 0 291 119 0 c80 0 130 -5 152 -14z m2145 -40 c3 -7 -27 -81 -66 -166
-38 -84 -70 -155 -70 -157 0 -2 25 -3 55 -3 l55 0 0 59 c0 52 3 62 26 80 15
12 35 21 45 21 17 0 19 -9 19 -80 l0 -80 40 0 c45 0 56 -14 46 -55 -5 -21 -12
-25 -46 -25 l-40 0 0 -60 0 -60 -45 0 -45 0 0 60 0 60 -99 0 c-106 0 -111 2
-111 56 0 27 144 354 160 364 16 10 71 -1 76 -14z m-1288 -116 c50 -31 62 -71
62 -210 0 -76 4 -127 12 -140 10 -15 9 -23 -6 -39 -24 -26 -37 -26 -69 -1
l-25 20 -38 -22 c-56 -33 -125 -30 -164 7 -37 35 -51 82 -40 130 16 71 71 105
170 105 60 0 60 0 60 29 0 16 -7 37 -16 45 -20 20 -79 20 -134 1 -23 -8 -44
-15 -45 -15 -1 0 -8 14 -15 31 -16 37 -8 46 56 64 76 21 153 18 192 -5z m392
6 c28 -11 34 -18 32 -36 -5 -43 -17 -49 -76 -32 -62 17 -102 11 -111 -19 -9
-29 9 -46 75 -70 110 -40 155 -113 114 -188 -27 -51 -74 -74 -148 -75 -60 -1
-156 26 -156 44 0 15 23 60 30 60 4 0 24 -7 43 -15 105 -44 203 23 106 72 -13
7 -46 23 -73 35 -63 30 -91 67 -90 118 2 49 26 87 67 105 40 18 141 18 187 1z
m358 -6 c59 -36 93 -125 77 -199 l-7 -31 -120 0 -120 0 7 -27 c18 -74 64 -95
149 -69 54 16 70 11 79 -25 4 -16 -3 -24 -36 -38 -134 -57 -249 -20 -282 92
-38 129 -1 255 90 305 34 19 126 14 163 -8z m-3678 -680 l0 -460 -130 0 -130
0 0 460 0 460 130 0 130 0 0 -460z"/>
<path d="M11670 30671 l0 -111 60 0 c88 0 119 39 107 132 -8 60 -34 81 -107
86 l-60 4 0 -111z"/>
<path d="M12540 30450 c-22 -22 -26 -51 -10 -81 13 -24 61 -25 101 -2 25 15
29 23 29 60 l0 43 -50 0 c-37 0 -55 -5 -70 -20z"/>
<path d="M13335 30630 c-29 -11 -44 -32 -51 -68 l-6 -32 76 0 76 0 0 29 c0 51
-51 89 -95 71z"/>
<path d="M18150 21000 l0 -110 50 0 c87 0 120 30 120 110 0 80 -33 110 -120
110 l-50 0 0 -110z"/>
<path d="M19020 20780 c-39 -39 -19 -100 34 -100 51 0 86 33 86 81 l0 39 -50
0 c-37 0 -55 -5 -70 -20z"/>
<path d="M19796 20948 c-13 -13 -27 -38 -31 -55 l-7 -33 76 0 76 0 0 30 c0 36
-38 80 -69 80 -11 0 -31 -10 -45 -22z"/>
<path d="M11732 12373 l3 -108 35 -3 c53 -5 104 14 121 44 21 40 18 107 -7
141 -19 25 -28 28 -88 31 l-67 3 3 -108z"/>
<path d="M12606 12154 c-24 -23 -21 -81 5 -94 46 -25 119 21 119 76 l0 34 -54
0 c-36 0 -60 -5 -70 -16z"/>
<path d="M13371 12314 c-12 -15 -21 -40 -21 -55 l0 -29 75 0 c82 0 84 2 64 59
-20 56 -83 70 -118 25z"/>
<path d="M18090 4409 l0 -111 62 4 c51 4 65 9 85 32 39 46 25 162 -22 180 -9
3 -41 6 -71 6 l-54 0 0 -111z"/>
<path d="M18956 4188 c-21 -30 -20 -61 2 -81 24 -22 50 -21 90 3 27 17 32 25
32 60 l0 40 -54 0 c-45 0 -58 -4 -70 -22z"/>
<path d="M19737 4368 c-9 -7 -21 -26 -27 -41 -20 -54 -16 -57 65 -57 l75 0 0
33 c0 59 -68 98 -113 65z"/>
<path d="M440 32038 c1 -2 36 -136 78 -298 l78 -295 41 -3 c33 -2 42 1 47 15
2 10 33 122 67 248 34 127 65 234 69 238 4 4 38 -107 76 -248 l69 -256 39 3
38 3 79 290 c43 160 79 293 79 298 0 4 -17 7 -38 7 l-38 0 -59 -251 c-47 -194
-62 -244 -67 -222 -4 15 -34 127 -66 248 l-59 220 -49 3 -49 3 -63 -233 c-35
-128 -66 -241 -70 -251 -5 -11 -26 63 -56 200 -71 312 -60 283 -106 283 -22 0
-40 -1 -40 -2z"/>
<path d="M1710 31740 l0 -300 35 0 c32 0 35 2 35 31 l0 31 28 -30 c70 -74 202
-41 252 64 17 34 23 66 24 118 2 129 -54 217 -148 231 -54 8 -83 0 -118 -33
l-28 -26 0 107 0 107 -40 0 -40 0 0 -300z m239 65 c45 -23 64 -75 59 -162 -3
-72 -5 -76 -41 -109 -83 -77 -187 -11 -187 118 0 129 79 200 169 153z"/>
<path d="M2610 32005 c0 -33 2 -35 35 -35 33 0 35 2 35 35 0 33 -2 35 -35 35
-33 0 -35 -2 -35 -35z"/>
<path d="M3720 31740 l0 -300 185 0 185 0 0 35 0 35 -145 0 -145 0 0 265 0
265 -40 0 -40 0 0 -300z"/>
<path d="M5980 31740 l0 -300 39 0 40 0 3 161 3 161 33 29 c39 35 97 39 133
10 23 -19 24 -24 27 -190 l3 -171 40 0 39 0 0 128 c0 184 -12 251 -49 283 -53
49 -145 49 -201 2 l-30 -25 0 106 0 106 -40 0 -40 0 0 -300z"/>
<path d="M2833 32007 c-31 -18 -33 -22 -33 -73 0 -53 0 -54 -30 -54 -28 0 -30
-3 -30 -35 0 -32 2 -35 30 -35 l30 0 0 -164 c0 -199 5 -210 91 -211 53 0 54 0
54 30 0 24 -5 31 -25 33 -48 7 -50 15 -50 168 l0 144 35 0 c33 0 35 2 35 35 0
33 -2 35 -35 35 l-34 0 -3 73 -3 73 -32 -19z"/>
<path d="M1363 31879 c-138 -42 -179 -299 -65 -402 73 -66 212 -60 284 13 47
47 48 66 6 73 -26 4 -37 0 -53 -18 -28 -32 -57 -45 -104 -45 -53 0 -108 47
-120 103 l-9 37 165 0 166 0 -7 53 c-16 118 -77 185 -177 192 -30 3 -69 0 -86
-6z m135 -79 c29 -18 52 -54 52 -81 0 -5 -52 -9 -120 -9 -77 0 -120 4 -120 10
0 6 7 24 15 40 30 58 112 77 173 40z"/>
<path d="M2269 31881 c-68 -21 -99 -61 -99 -127 0 -58 46 -95 150 -123 121
-33 150 -66 94 -110 -41 -33 -117 -29 -153 7 -15 15 -30 32 -32 38 -2 7 -17 9
-36 7 -39 -6 -42 -23 -13 -70 29 -48 73 -67 155 -67 113 0 175 49 175 140 0
65 -26 89 -128 119 -112 33 -136 46 -140 72 -4 30 33 53 88 53 49 0 90 -21 90
-47 0 -11 6 -14 23 -9 12 3 30 6 39 6 14 0 15 4 7 29 -25 70 -129 109 -220 82z"/>
<path d="M3123 31879 c-138 -42 -179 -299 -65 -402 73 -66 212 -60 284 13 47
47 48 66 6 73 -26 4 -37 0 -53 -18 -28 -32 -57 -45 -104 -45 -53 0 -108 47
-120 103 l-9 37 165 0 166 0 -7 53 c-16 118 -77 185 -177 192 -30 3 -69 0 -86
-6z m135 -79 c29 -18 52 -54 52 -81 0 -5 -52 -9 -120 -9 -77 0 -120 4 -120 10
0 6 7 24 15 40 30 58 112 77 173 40z"/>
<path d="M4281 31881 c-46 -12 -83 -41 -103 -82 l-18 -34 32 -7 c27 -5 36 -1
63 28 29 31 38 34 87 34 72 0 111 -27 106 -74 -3 -29 -6 -32 -63 -42 -33 -7
-82 -15 -108 -19 -104 -14 -159 -116 -105 -195 43 -63 147 -76 237 -31 49 26
47 26 54 1 4 -15 14 -20 42 -20 32 0 36 3 29 18 -4 9 -9 89 -11 177 -2 88 -9
173 -15 188 -6 15 -24 35 -40 43 -35 18 -141 26 -187 15z m169 -265 c0 -62
-64 -116 -137 -116 -51 0 -83 23 -83 60 0 40 27 56 125 73 44 8 83 15 88 16 4
0 7 -14 7 -33z"/>
<path d="M5240 31875 c-19 -9 -42 -23 -52 -32 -17 -15 -18 -14 -18 10 0 24 -4
27 -35 27 l-35 0 0 -220 0 -220 39 0 40 0 3 161 3 161 33 29 c39 35 97 39 133
10 23 -19 24 -24 27 -190 l3 -171 35 0 34 0 0 178 c0 189 -5 210 -50 244 -35
26 -116 32 -160 13z"/>
<path d="M5667 31875 c-82 -29 -122 -102 -122 -220 1 -125 60 -206 162 -221
88 -13 171 34 198 111 7 22 12 41 12 41 -1 1 -19 4 -39 8 -34 6 -38 5 -38 -14
0 -12 -13 -35 -29 -51 -52 -51 -148 -32 -177 36 -18 45 -18 149 1 189 39 82
165 89 195 10 8 -20 14 -23 42 -17 42 8 40 5 28 39 -33 87 -133 125 -233 89z"/>
<path d="M2610 31660 l0 -220 35 0 35 0 0 220 0 220 -35 0 -35 0 0 -220z"/>
<path d="M4632 31701 c3 -163 5 -182 24 -208 52 -71 153 -81 226 -23 l38 31 0
-31 c0 -27 3 -30 30 -30 l30 0 0 220 0 220 -35 0 -35 0 0 -140 c0 -159 -11
-199 -59 -224 -44 -23 -88 -20 -116 9 -25 24 -25 27 -25 190 l0 165 -41 0 -41
0 4 -179z"/>
<path d="M4337 31036 c-142 -40 -223 -188 -196 -357 13 -80 38 -128 93 -176
100 -88 282 -91 409 -7 l37 24 0 115 0 115 -125 0 -125 0 0 -35 0 -35 90 0 90
0 0 -60 0 -61 -62 -29 c-95 -45 -180 -39 -257 18 -89 66 -101 256 -23 361 71
95 254 94 312 -2 11 -18 21 -36 23 -41 2 -5 18 -5 36 -1 29 6 32 10 26 33 -12
49 -53 99 -99 121 -57 28 -164 36 -229 17z"/>
<path d="M6819 31035 c-125 -40 -158 -192 -59 -264 24 -17 73 -37 127 -50 154
-38 194 -68 184 -136 -11 -75 -143 -110 -239 -63 -37 17 -49 31 -66 70 -18 44
-23 48 -53 48 -39 0 -43 -18 -18 -78 33 -77 95 -117 197 -128 179 -18 305 109
241 243 -23 50 -73 78 -195 111 -141 38 -160 51 -156 105 2 35 9 45 38 65 30
20 44 23 102 20 74 -4 101 -20 125 -75 11 -28 18 -33 48 -33 30 0 35 3 35 23
0 43 -43 101 -93 126 -60 30 -154 37 -218 16z"/>
<path d="M450 31005 l0 -35 100 0 100 0 0 -265 0 -265 35 0 35 0 0 265 0 265
100 0 100 0 0 35 0 35 -235 0 -235 0 0 -35z"/>
<path d="M1360 30740 l0 -300 40 0 40 0 0 300 0 300 -40 0 -40 0 0 -300z"/>
<path d="M7763 31007 c-31 -18 -33 -22 -33 -73 0 -53 0 -54 -30 -54 -28 0 -30
-3 -30 -35 0 -32 2 -35 30 -35 l30 0 0 -164 c0 -199 5 -210 91 -211 53 0 54 0
54 30 0 24 -5 31 -25 33 -48 7 -50 15 -50 168 l0 144 35 0 c33 0 35 2 35 35 0
33 -2 35 -35 35 l-34 0 -3 73 -3 73 -32 -19z"/>
<path d="M1013 30879 c-138 -42 -179 -299 -65 -402 73 -66 212 -60 284 13 47
47 48 66 6 73 -26 4 -37 0 -53 -18 -28 -32 -57 -45 -104 -45 -53 0 -108 47
-120 103 l-9 37 165 0 166 0 -7 53 c-16 118 -77 185 -177 192 -30 3 -69 0 -86
-6z m135 -79 c29 -18 52 -54 52 -81 0 -5 -52 -9 -120 -9 -77 0 -120 4 -120 10
0 6 7 24 15 40 30 58 112 77 173 40z"/>
<path d="M1663 30879 c-138 -42 -179 -299 -65 -402 73 -66 212 -60 284 13 47
47 48 66 6 73 -26 4 -37 0 -53 -18 -28 -32 -57 -45 -104 -45 -53 0 -108 47
-120 103 l-9 37 165 0 166 0 -7 53 c-16 118 -77 185 -177 192 -30 3 -69 0 -86
-6z m135 -79 c29 -18 52 -54 52 -81 0 -5 -52 -9 -120 -9 -77 0 -120 4 -120 10
0 6 7 24 15 40 30 58 112 77 173 40z"/>
<path d="M2119 30881 c-81 -26 -120 -90 -127 -203 -4 -69 -2 -83 23 -134 45
-92 133 -126 226 -86 l49 20 0 -34 c0 -75 -43 -114 -126 -114 -38 0 -51 5 -72
28 -15 16 -42 32 -61 35 -33 7 -33 7 -27 -25 14 -73 103 -117 206 -103 62 9
107 39 133 88 17 34 20 65 25 283 l5 244 -37 0 c-29 0 -36 -4 -36 -20 0 -25
-4 -25 -39 1 -32 23 -101 33 -142 20z m122 -84 c75 -50 79 -201 8 -261 -83
-70 -189 2 -189 129 0 124 93 192 181 132z"/>
<path d="M2600 30883 c-8 -3 -25 -17 -37 -31 l-23 -27 0 28 c0 24 -3 27 -35
27 l-35 0 0 -220 0 -220 39 0 40 0 3 164 c3 160 4 165 28 191 22 23 31 26 67
21 39 -5 42 -4 51 24 10 27 8 29 -20 39 -33 12 -54 13 -78 4z"/>
<path d="M2861 30881 c-46 -12 -83 -41 -103 -82 l-18 -34 32 -7 c27 -5 36 -1
63 28 29 31 38 34 87 34 72 0 111 -27 106 -74 -3 -29 -6 -32 -63 -42 -33 -7
-82 -15 -108 -19 -104 -14 -159 -116 -105 -195 43 -63 147 -76 237 -31 49 26
47 26 54 1 4 -15 14 -20 42 -20 32 0 36 3 29 18 -4 9 -9 89 -11 177 -2 88 -9
173 -15 188 -6 15 -24 35 -40 43 -35 18 -141 26 -187 15z m169 -265 c0 -62
-64 -116 -137 -116 -51 0 -83 23 -83 60 0 40 27 56 125 73 44 8 83 15 88 16 4
0 7 -14 7 -33z"/>
<path d="M3360 30879 c-14 -5 -37 -22 -52 -36 l-28 -27 0 32 c0 30 -2 32 -35
32 l-35 0 0 -220 0 -220 39 0 40 0 3 161 3 161 33 29 c43 39 92 40 121 3 19
-25 21 -40 21 -190 l0 -164 35 0 35 0 0 133 c0 72 5 149 10 169 13 46 52 78
94 78 71 0 85 -40 86 -242 l0 -138 36 0 35 0 -3 184 c-3 169 -5 187 -24 213
-47 63 -151 68 -210 9 l-32 -32 -28 34 c-23 27 -38 35 -74 38 -25 2 -56 -1
-70 -7z"/>
<path d="M4920 30883 c-8 -3 -25 -17 -37 -31 l-23 -27 0 28 c0 24 -3 27 -35
27 l-35 0 0 -220 0 -220 39 0 40 0 3 164 c3 160 4 165 28 191 22 23 31 26 67
21 39 -5 42 -4 51 24 10 27 8 29 -20 39 -33 12 -54 13 -78 4z"/>
<path d="M5165 30875 c-50 -18 -100 -71 -114 -122 -14 -49 -14 -137 0 -188 14
-51 73 -110 124 -124 152 -42 265 54 265 225 0 164 -128 261 -275 209z m135
-71 c46 -27 65 -71 64 -144 0 -100 -47 -160 -124 -160 -101 0 -160 124 -113
241 28 71 109 100 173 63z"/>
<path d="M6140 30883 c-8 -3 -30 -19 -47 -36 l-33 -31 0 32 c0 29 -3 32 -30
32 l-30 0 0 -305 0 -305 35 0 35 0 0 106 0 105 33 -23 c46 -33 121 -31 175 4
104 69 120 271 31 373 -40 45 -117 67 -169 48z m89 -78 c40 -20 61 -71 61
-145 0 -73 -19 -119 -59 -143 -85 -50 -171 20 -171 137 0 121 83 196 169 151z"/>
<path d="M7353 30879 c-138 -42 -179 -299 -65 -402 73 -66 212 -60 284 13 47
47 48 66 6 73 -26 4 -37 0 -53 -18 -28 -32 -57 -45 -104 -45 -53 0 -108 47
-120 103 l-9 37 165 0 166 0 -7 53 c-16 118 -77 185 -177 192 -30 3 -69 0 -86
-6z m135 -79 c29 -18 52 -54 52 -81 0 -5 -52 -9 -120 -9 -77 0 -120 4 -120 10
0 6 7 24 15 40 30 58 112 77 173 40z"/>
<path d="M8550 30883 c-8 -3 -30 -19 -47 -36 l-33 -31 0 32 c0 29 -3 32 -30
32 l-30 0 0 -305 0 -305 35 0 35 0 0 106 0 105 33 -23 c46 -33 121 -31 175 4
104 69 120 271 31 373 -40 45 -117 67 -169 48z m89 -78 c40 -20 61 -71 61
-145 0 -73 -19 -119 -59 -143 -85 -50 -171 20 -171 137 0 121 83 196 169 151z"/>
<path d="M5532 30701 c3 -163 5 -182 24 -208 52 -71 153 -81 226 -23 l38 31 0
-31 c0 -27 3 -30 30 -30 l30 0 0 220 0 220 -35 0 -35 0 0 -140 c0 -159 -11
-199 -59 -224 -44 -23 -88 -20 -116 9 -25 24 -25 27 -25 190 l0 165 -41 0 -41
0 4 -179z"/>
<path d="M7942 30701 c3 -163 5 -182 24 -208 52 -71 153 -81 226 -23 l38 31 0
-31 c0 -27 3 -30 30 -30 l30 0 0 220 0 220 -35 0 -35 0 0 -140 c0 -159 -11
-199 -59 -224 -44 -23 -88 -20 -116 9 -25 24 -25 27 -25 190 l0 165 -41 0 -41
0 4 -179z"/>
<path d="M609 30035 c-125 -40 -158 -192 -59 -264 24 -17 73 -37 127 -50 154
-38 194 -68 184 -136 -11 -75 -143 -110 -239 -63 -37 17 -49 31 -66 70 -18 44
-23 48 -53 48 -39 0 -43 -18 -18 -78 33 -77 95 -117 197 -128 179 -18 305 109
241 243 -23 50 -73 78 -195 111 -141 38 -160 51 -156 105 2 35 9 45 38 65 30
20 44 23 102 20 74 -4 101 -20 125 -75 11 -28 18 -33 48 -33 30 0 35 3 35 23
0 43 -43 101 -93 126 -60 30 -154 37 -218 16z"/>
<path d="M3127 30039 c-112 -26 -188 -120 -203 -251 -14 -120 38 -263 115
-314 54 -35 149 -50 223 -35 72 15 139 71 164 137 18 49 15 58 -28 68 -25 6
-29 2 -43 -31 -31 -74 -88 -113 -165 -113 -44 0 -104 26 -132 57 -66 73 -74
257 -15 345 32 47 92 78 150 78 68 0 113 -24 144 -77 24 -41 28 -44 57 -37 17
3 33 8 35 10 11 10 -15 61 -51 100 -60 65 -148 87 -251 63z"/>
<path d="M9430 30005 c0 -33 2 -35 35 -35 33 0 35 2 35 35 0 33 -2 35 -35 35
-33 0 -35 -2 -35 -35z"/>
<path d="M2523 30007 c-31 -17 -33 -23 -33 -72 l0 -53 -37 -4 c-21 -3 -49 -1
-63 4 -38 14 -86 1 -109 -30 l-20 -27 -1 28 c0 24 -4 27 -35 27 l-35 0 0 -220
0 -220 39 0 40 0 3 164 c3 160 4 165 28 191 22 23 31 26 67 21 38 -5 42 -3 51
22 l10 27 1 -27 c1 -24 5 -28 31 -28 l30 0 0 -164 c0 -199 5 -210 91 -211 53
0 54 0 54 30 0 24 -5 31 -25 33 -48 7 -50 15 -50 168 l0 144 35 0 c33 0 35 2
35 35 0 33 -2 35 -35 35 l-34 0 -3 73 -3 73 -32 -19z"/>
<path d="M4513 30007 c-31 -18 -33 -22 -33 -73 0 -53 0 -54 -30 -54 -28 0 -30
-3 -30 -35 0 -32 2 -35 30 -35 l30 0 0 -164 c0 -199 5 -210 91 -211 53 0 54 0
54 30 0 24 -5 31 -25 33 -48 7 -50 15 -50 168 l0 144 35 0 c33 0 35 2 35 35 0
33 -2 35 -35 35 l-34 0 -3 73 -3 73 -32 -19z"/>
<path d="M5903 30007 c-31 -18 -33 -22 -33 -73 0 -53 0 -54 -30 -54 -28 0 -30
-3 -30 -35 0 -32 2 -35 30 -35 l30 0 0 -164 c0 -199 5 -210 91 -211 53 0 54 0
54 30 0 24 -5 31 -25 33 -48 7 -50 15 -50 168 l0 144 35 0 c33 0 35 2 35 35 0
33 -2 35 -35 35 l-34 0 -3 73 -3 73 -32 -19z"/>
<path d="M9243 30007 c-31 -18 -33 -22 -33 -73 0 -53 0 -54 -30 -54 -28 0 -30
-3 -30 -35 0 -32 2 -35 30 -35 l30 0 0 -164 c0 -199 5 -210 91 -211 53 0 54 0
54 30 0 24 -5 31 -25 33 -48 7 -50 15 -50 168 l0 144 35 0 c33 0 35 2 35 35 0
33 -2 35 -35 35 l-34 0 -3 73 -3 73 -32 -19z"/>
<path d="M1190 29879 c-14 -5 -37 -22 -52 -36 l-28 -27 0 32 c0 30 -2 32 -35
32 l-35 0 0 -220 0 -220 39 0 40 0 3 161 3 161 33 29 c43 39 92 40 121 3 19
-25 21 -40 21 -190 l0 -164 35 0 35 0 0 133 c0 72 5 149 10 169 13 46 52 78
94 78 71 0 85 -40 86 -242 l0 -138 36 0 35 0 -3 184 c-3 169 -5 187 -24 213
-47 63 -151 68 -210 9 l-32 -32 -28 34 c-23 27 -38 35 -74 38 -25 2 -56 -1
-70 -7z"/>
<path d="M1841 29881 c-46 -12 -83 -41 -103 -82 l-18 -34 32 -7 c27 -5 36 -1
63 28 29 31 38 34 87 34 72 0 111 -27 106 -74 -3 -29 -6 -32 -63 -42 -33 -7
-82 -15 -108 -19 -104 -14 -159 -116 -105 -195 43 -63 147 -76 237 -31 49 26
47 26 54 1 4 -15 14 -20 42 -20 32 0 36 3 29 18 -4 9 -9 89 -11 177 -2 88 -9
173 -15 188 -6 15 -24 35 -40 43 -35 18 -141 26 -187 15z m169 -265 c0 -62
-64 -116 -137 -116 -51 0 -83 23 -83 60 0 40 27 56 125 73 44 8 83 15 88 16 4
0 7 -14 7 -33z"/>
<path d="M3645 29875 c-50 -18 -100 -71 -114 -122 -14 -49 -14 -137 0 -188 14
-51 73 -110 124 -124 152 -42 265 54 265 225 0 164 -128 261 -275 209z m135
-71 c46 -27 65 -71 64 -144 0 -100 -47 -160 -124 -160 -101 0 -160 124 -113
241 28 71 109 100 173 63z"/>
<path d="M4140 29875 c-19 -9 -42 -23 -52 -32 -17 -15 -18 -14 -18 10 0 24 -4
27 -35 27 l-35 0 0 -220 0 -220 39 0 40 0 3 161 3 161 33 29 c39 35 97 39 133
10 23 -19 24 -24 27 -190 l3 -171 35 0 34 0 0 178 c0 189 -5 210 -50 244 -35
26 -116 32 -160 13z"/>
<path d="M4820 29883 c-8 -3 -25 -17 -37 -31 l-23 -27 0 28 c0 24 -3 27 -35
27 l-35 0 0 -220 0 -220 39 0 40 0 3 164 c3 160 4 165 28 191 22 23 31 26 67
21 39 -5 42 -4 51 24 10 27 8 29 -20 39 -33 12 -54 13 -78 4z"/>
<path d="M5081 29881 c-46 -12 -83 -41 -103 -82 l-18 -34 32 -7 c27 -5 36 -1
63 28 29 31 38 34 87 34 72 0 111 -27 106 -74 -3 -29 -6 -32 -63 -42 -33 -7
-82 -15 -108 -19 -104 -14 -159 -116 -105 -195 43 -63 147 -76 237 -31 49 26
47 26 54 1 4 -15 14 -20 42 -20 32 0 36 3 29 18 -4 9 -9 89 -11 177 -2 88 -9
173 -15 188 -6 15 -24 35 -40 43 -35 18 -141 26 -187 15z m169 -265 c0 -62
-64 -116 -137 -116 -51 0 -83 23 -83 60 0 40 27 56 125 73 44 8 83 15 88 16 4
0 7 -14 7 -33z"/>
<path d="M5547 29875 c-82 -29 -122 -102 -122 -220 1 -125 60 -206 162 -221
88 -13 171 34 198 111 7 22 12 41 12 41 -1 1 -19 4 -39 8 -34 6 -38 5 -38 -14
0 -12 -13 -35 -29 -51 -52 -51 -148 -32 -177 36 -18 45 -18 149 1 189 39 82
165 89 195 10 8 -20 14 -23 42 -17 42 8 40 5 28 39 -33 87 -133 125 -233 89z"/>
<path d="M6460 29883 c-8 -3 -30 -19 -47 -36 l-33 -31 0 32 c0 29 -3 32 -30
32 l-30 0 0 -305 0 -305 35 0 35 0 0 106 0 105 33 -23 c46 -33 121 -31 175 4
104 69 120 271 31 373 -40 45 -117 67 -169 48z m89 -78 c40 -20 61 -71 61
-145 0 -73 -19 -119 -59 -143 -85 -50 -171 20 -171 137 0 121 83 196 169 151z"/>
<path d="M6910 29883 c-8 -3 -25 -17 -37 -31 l-23 -27 0 28 c0 24 -3 27 -35
27 l-35 0 0 -220 0 -220 39 0 40 0 3 164 c3 160 4 165 28 191 22 23 31 26 67
21 39 -5 42 -4 51 24 10 27 8 29 -20 39 -33 12 -54 13 -78 4z"/>
<path d="M7173 29879 c-138 -42 -179 -299 -65 -402 73 -66 212 -60 284 13 47
47 48 66 6 73 -26 4 -37 0 -53 -18 -28 -32 -57 -45 -104 -45 -53 0 -108 47
-120 103 l-9 37 165 0 166 0 -7 53 c-16 118 -77 185 -177 192 -30 3 -69 0 -86
-6z m135 -79 c29 -18 52 -54 52 -81 0 -5 -52 -9 -120 -9 -77 0 -120 4 -120 10
0 6 7 24 15 40 30 58 112 77 173 40z"/>
<path d="M7670 29883 c-8 -3 -30 -19 -47 -36 l-33 -31 0 32 c0 29 -3 32 -30
32 l-30 0 0 -305 0 -305 35 0 35 0 0 106 0 105 33 -23 c46 -33 121 -31 175 4
104 69 120 271 31 373 -40 45 -117 67 -169 48z m89 -78 c40 -20 61 -71 61
-145 0 -73 -19 -119 -59 -143 -85 -50 -171 20 -171 137 0 121 83 196 169 151z"/>
<path d="M8091 29881 c-46 -12 -83 -41 -103 -82 l-18 -34 32 -7 c27 -5 36 -1
63 28 29 31 38 34 87 34 72 0 111 -27 106 -74 -3 -29 -6 -32 -63 -42 -33 -7
-82 -15 -108 -19 -104 -14 -159 -116 -105 -195 43 -63 147 -76 237 -31 49 26
47 26 54 1 4 -15 14 -20 42 -20 32 0 36 3 29 18 -4 9 -9 89 -11 177 -2 88 -9
173 -15 188 -6 15 -24 35 -40 43 -35 18 -141 26 -187 15z m169 -265 c0 -62
-64 -116 -137 -116 -51 0 -83 23 -83 60 0 40 27 56 125 73 44 8 83 15 88 16 4
0 7 -14 7 -33z"/>
<path d="M8580 29883 c-8 -3 -25 -17 -37 -31 l-23 -27 0 28 c0 24 -3 27 -35
27 l-35 0 0 -220 0 -220 39 0 40 0 3 164 c3 160 4 165 28 191 22 23 31 26 67
21 39 -5 42 -4 51 24 10 27 8 29 -20 39 -33 12 -54 13 -78 4z"/>
<path d="M8831 29881 c-46 -12 -83 -41 -103 -82 l-18 -34 32 -7 c27 -5 36 -1
63 28 29 31 38 34 87 34 72 0 111 -27 106 -74 -3 -29 -6 -32 -63 -42 -33 -7
-82 -15 -108 -19 -104 -14 -159 -116 -105 -195 43 -63 147 -76 237 -31 49 26
47 26 54 1 4 -15 14 -20 42 -20 32 0 36 3 29 18 -4 9 -9 89 -11 177 -2 88 -9
173 -15 188 -6 15 -24 35 -40 43 -35 18 -141 26 -187 15z m169 -265 c0 -62
-64 -116 -137 -116 -51 0 -83 23 -83 60 0 40 27 56 125 73 44 8 83 15 88 16 4
0 7 -14 7 -33z"/>
<path d="M9705 29875 c-50 -18 -100 -71 -114 -122 -14 -49 -14 -137 0 -188 14
-51 73 -110 124 -124 152 -42 265 54 265 225 0 164 -128 261 -275 209z m135
-71 c46 -27 65 -71 64 -144 0 -100 -47 -160 -124 -160 -101 0 -160 124 -113
241 28 71 109 100 173 63z"/>
<path d="M10210 29875 c-19 -9 -42 -23 -52 -32 -17 -15 -18 -14 -18 10 0 24
-4 27 -35 27 l-35 0 0 -220 0 -220 39 0 40 0 3 161 3 161 33 29 c39 35 97 39
133 10 23 -19 24 -24 27 -190 l3 -171 35 0 34 0 0 178 c0 189 -5 210 -50 244
-35 26 -116 32 -160 13z"/>
<path d="M9430 29660 l0 -220 35 0 35 0 0 220 0 220 -35 0 -35 0 0 -220z"/>
<path d="M1690 28934 l0 -106 -30 26 c-85 71 -214 25 -254 -91 -18 -53 -21
-131 -6 -184 36 -128 180 -191 261 -113 l29 28 0 -27 c0 -24 4 -27 35 -27 l35
0 0 300 0 300 -35 0 -35 0 0 -106z m-60 -129 c109 -56 76 -305 -40 -305 -90 0
-141 83 -125 203 13 95 89 142 165 102z"/>
<path d="M2060 29005 l0 -35 100 0 100 0 0 -265 0 -265 35 0 35 0 0 265 0 265
100 0 100 0 0 35 0 35 -235 0 -235 0 0 -35z"/>
<path d="M3630 29005 c0 -33 2 -35 35 -35 33 0 35 2 35 35 0 33 -2 35 -35 35
-33 0 -35 -2 -35 -35z"/>
<path d="M3433 29007 c-31 -18 -33 -22 -33 -73 0 -53 0 -54 -30 -54 -28 0 -30
-3 -30 -35 0 -32 2 -35 30 -35 l30 0 0 -164 c0 -199 5 -210 91 -211 53 0 54 0
54 30 0 24 -5 31 -25 33 -48 7 -50 15 -50 168 l0 144 35 0 c33 0 35 2 35 35 0
33 -2 35 -35 35 l-34 0 -3 73 -3 73 -32 -19z"/>
<path d="M591 28881 c-46 -12 -83 -41 -103 -82 l-18 -34 32 -7 c27 -5 36 -1
63 28 29 31 38 34 87 34 72 0 111 -27 106 -74 -3 -29 -6 -32 -63 -42 -33 -7
-82 -15 -108 -19 -104 -14 -159 -116 -105 -195 43 -63 147 -76 237 -31 49 26
47 26 54 1 4 -15 14 -20 42 -20 32 0 36 3 29 18 -4 9 -9 89 -11 177 -2 88 -9
173 -15 188 -6 15 -24 35 -40 43 -35 18 -141 26 -187 15z m169 -265 c0 -62
-64 -116 -137 -116 -51 0 -83 23 -83 60 0 40 27 56 125 73 44 8 83 15 88 16 4
0 7 -14 7 -33z"/>
<path d="M1080 28875 c-19 -9 -42 -23 -52 -32 -17 -15 -18 -14 -18 10 0 24 -4
27 -35 27 l-35 0 0 -220 0 -220 39 0 40 0 3 161 3 161 33 29 c39 35 97 39 133
10 23 -19 24 -24 27 -190 l3 -171 35 0 34 0 0 178 c0 189 -5 210 -50 244 -35
26 -116 32 -160 13z"/>
<path d="M2613 28879 c-138 -42 -179 -299 -65 -402 73 -66 212 -60 284 13 47
47 48 66 6 73 -26 4 -37 0 -53 -18 -28 -32 -57 -45 -104 -45 -53 0 -108 47
-120 103 l-9 37 165 0 166 0 -7 53 c-16 118 -77 185 -177 192 -30 3 -69 0 -86
-6z m135 -79 c29 -18 52 -54 52 -81 0 -5 -52 -9 -120 -9 -77 0 -120 4 -120 10
0 6 7 24 15 40 30 58 112 77 173 40z"/>
<path d="M3059 28881 c-68 -21 -99 -61 -99 -127 0 -58 46 -95 150 -123 121
-33 150 -66 94 -110 -41 -33 -117 -29 -153 7 -15 15 -30 32 -32 38 -2 7 -17 9
-36 7 -39 -6 -42 -23 -13 -70 29 -48 73 -67 155 -67 113 0 175 49 175 140 0
65 -26 89 -128 119 -112 33 -136 46 -140 72 -4 30 33 53 88 53 49 0 90 -21 90
-47 0 -11 6 -14 23 -9 12 3 30 6 39 6 14 0 15 4 7 29 -25 70 -129 109 -220 82z"/>
<path d="M3940 28875 c-19 -9 -42 -23 -52 -32 -17 -15 -18 -14 -18 10 0 24 -4
27 -35 27 l-35 0 0 -220 0 -220 39 0 40 0 3 161 3 161 33 29 c39 35 97 39 133
10 23 -19 24 -24 27 -190 l3 -171 35 0 34 0 0 178 c0 189 -5 210 -50 244 -35
26 -116 32 -160 13z"/>
<path d="M4369 28881 c-81 -26 -120 -90 -127 -203 -4 -69 -2 -83 23 -134 45
-92 133 -126 226 -86 l49 20 0 -34 c0 -75 -43 -114 -126 -114 -38 0 -51 5 -72
28 -15 16 -42 32 -61 35 -33 7 -33 7 -27 -25 14 -73 103 -117 206 -103 62 9
107 39 133 88 17 34 20 65 25 283 l5 244 -37 0 c-29 0 -36 -4 -36 -20 0 -25
-4 -25 -39 1 -32 23 -101 33 -142 20z m122 -84 c75 -50 79 -201 8 -261 -83
-70 -189 2 -189 129 0 124 93 192 181 132z"/>
<path d="M3630 28660 l0 -220 35 0 35 0 0 220 0 220 -35 0 -35 0 0 -220z"/>
<path d="M609 28035 c-125 -40 -158 -192 -59 -264 24 -17 73 -37 127 -50 154
-38 194 -68 184 -136 -11 -75 -143 -110 -239 -63 -37 17 -49 31 -66 70 -18 44
-23 48 -53 48 -39 0 -43 -18 -18 -78 33 -77 95 -117 197 -128 179 -18 305 109
241 243 -23 50 -73 78 -195 111 -141 38 -160 51 -156 105 2 35 9 45 38 65 30
20 44 23 102 20 74 -4 101 -20 125 -75 11 -28 18 -33 48 -33 30 0 35 3 35 23
0 43 -43 101 -93 126 -60 30 -154 37 -218 16z"/>
<path d="M2190 27740 l0 -300 40 0 40 0 0 300 0 300 -40 0 -40 0 0 -300z"/>
<path d="M2610 27740 l0 -300 39 0 40 0 3 161 3 161 33 29 c39 35 97 39 133
10 23 -19 24 -24 27 -190 l3 -171 40 0 39 0 0 128 c0 184 -12 251 -49 283 -53
49 -145 49 -201 2 l-30 -25 0 106 0 106 -40 0 -40 0 0 -300z"/>
<path d="M3320 27740 l0 -300 185 0 185 0 0 35 0 35 -145 0 -145 0 0 265 0
265 -40 0 -40 0 0 -300z"/>
<path d="M5580 27740 l0 -300 39 0 40 0 3 161 3 161 33 29 c39 35 97 39 133
10 23 -19 24 -24 27 -190 l3 -171 40 0 39 0 0 128 c0 184 -12 251 -49 283 -53
49 -145 49 -201 2 l-30 -25 0 106 0 106 -40 0 -40 0 0 -300z"/>
<path d="M1093 28007 c-31 -18 -33 -22 -33 -73 0 -53 0 -54 -30 -54 -28 0 -30
-3 -30 -35 0 -32 2 -35 30 -35 l30 0 0 -164 c0 -199 5 -210 91 -211 53 0 54 0
54 30 0 24 -5 31 -25 33 -48 7 -50 15 -50 168 l0 144 35 0 c33 0 35 2 35 35 0
33 -2 35 -35 35 l-34 0 -3 73 -3 73 -32 -19z"/>
<path d="M2433 28007 c-31 -18 -33 -22 -33 -73 0 -53 0 -54 -30 -54 -28 0 -30
-3 -30 -35 0 -32 2 -35 30 -35 l30 0 0 -164 c0 -199 5 -210 91 -211 53 0 54 0
54 30 0 24 -5 31 -25 33 -48 7 -50 15 -50 168 l0 144 35 0 c33 0 35 2 35 35 0
33 -2 35 -35 35 l-34 0 -3 73 -3 73 -32 -19z"/>
<path d="M1383 27879 c-138 -42 -179 -299 -65 -402 73 -66 212 -60 284 13 47
47 48 66 6 73 -26 4 -37 0 -53 -18 -28 -32 -57 -45 -104 -45 -53 0 -108 47
-120 103 l-9 37 165 0 166 0 -7 53 c-16 118 -77 185 -177 192 -30 3 -69 0 -86
-6z m135 -79 c29 -18 52 -54 52 -81 0 -5 -52 -9 -120 -9 -77 0 -120 4 -120 10
0 6 7 24 15 40 30 58 112 77 173 40z"/>
<path d="M1841 27881 c-46 -12 -83 -41 -103 -82 l-18 -34 32 -7 c27 -5 36 -1
63 28 29 31 38 34 87 34 72 0 111 -27 106 -74 -3 -29 -6 -32 -63 -42 -33 -7
-82 -15 -108 -19 -104 -14 -159 -116 -105 -195 43 -63 147 -76 237 -31 49 26
47 26 54 1 4 -15 14 -20 42 -20 32 0 36 3 29 18 -4 9 -9 89 -11 177 -2 88 -9
173 -15 188 -6 15 -24 35 -40 43 -35 18 -141 26 -187 15z m169 -265 c0 -62
-64 -116 -137 -116 -51 0 -83 23 -83 60 0 40 27 56 125 73 44 8 83 15 88 16 4
0 7 -14 7 -33z"/>
<path d="M3881 27881 c-46 -12 -83 -41 -103 -82 l-18 -34 32 -7 c27 -5 36 -1
63 28 29 31 38 34 87 34 72 0 111 -27 106 -74 -3 -29 -6 -32 -63 -42 -33 -7
-82 -15 -108 -19 -104 -14 -159 -116 -105 -195 43 -63 147 -76 237 -31 49 26
47 26 54 1 4 -15 14 -20 42 -20 32 0 36 3 29 18 -4 9 -9 89 -11 177 -2 88 -9
173 -15 188 -6 15 -24 35 -40 43 -35 18 -141 26 -187 15z m169 -265 c0 -62
-64 -116 -137 -116 -51 0 -83 23 -83 60 0 40 27 56 125 73 44 8 83 15 88 16 4
0 7 -14 7 -33z"/>
<path d="M4840 27875 c-19 -9 -42 -23 -52 -32 -17 -15 -18 -14 -18 10 0 24 -4
27 -35 27 l-35 0 0 -220 0 -220 39 0 40 0 3 161 3 161 33 29 c39 35 97 39 133
10 23 -19 24 -24 27 -190 l3 -171 35 0 34 0 0 178 c0 189 -5 210 -50 244 -35
26 -116 32 -160 13z"/>
<path d="M5267 27875 c-82 -29 -122 -102 -122 -220 1 -125 60 -206 162 -221
88 -13 171 34 198 111 7 22 12 41 12 41 -1 1 -19 4 -39 8 -34 6 -38 5 -38 -14
0 -12 -13 -35 -29 -51 -52 -51 -148 -32 -177 36 -18 45 -18 149 1 189 39 82
165 89 195 10 8 -20 14 -23 42 -17 42 8 40 5 28 39 -33 87 -133 125 -233 89z"/>
<path d="M4232 27701 c3 -163 5 -182 24 -208 52 -71 153 -81 226 -23 l38 31 0
-31 c0 -27 3 -30 30 -30 l30 0 0 220 0 220 -35 0 -35 0 0 -140 c0 -159 -11
-199 -59 -224 -44 -23 -88 -20 -116 9 -25 24 -25 27 -25 190 l0 165 -41 0 -41
0 4 -179z"/>
<path d="M22277 22319 c-112 -26 -188 -120 -203 -251 -14 -120 38 -263 115
-314 54 -35 149 -50 223 -35 72 15 139 71 164 137 18 49 15 58 -28 68 -25 6
-29 2 -43 -31 -31 -74 -88 -113 -165 -113 -44 0 -104 26 -132 57 -66 73 -74
257 -15 345 32 47 92 78 150 78 68 0 113 -24 144 -77 24 -41 28 -44 57 -37 17
3 33 8 35 10 11 10 -15 61 -51 100 -60 65 -148 87 -251 63z"/>
<path d="M24780 22285 c0 -33 2 -35 35 -35 33 0 35 2 35 35 0 33 -2 35 -35 35
-33 0 -35 -2 -35 -35z"/>
<path d="M25840 22019 l0 -301 163 4 c178 5 203 11 250 68 50 59 47 152 -6
205 -18 18 -39 34 -47 37 -12 4 -8 13 18 40 55 58 56 130 1 192 -39 45 -91 56
-254 56 l-125 0 0 -301z m299 216 c32 -16 41 -33 41 -75 0 -72 -34 -90 -165
-90 l-95 0 0 90 0 90 95 0 c65 0 105 -5 124 -15z m38 -268 c22 -22 28 -37 28
-73 0 -39 -5 -50 -33 -75 -32 -28 -35 -29 -142 -29 l-110 0 0 106 0 106 115
-4 c110 -3 116 -4 142 -31z"/>
<path d="M26860 22285 c0 -33 2 -35 35 -35 33 0 35 2 35 35 0 33 -2 35 -35 35
-33 0 -35 -2 -35 -35z"/>
<path d="M27040 22020 l0 -300 40 0 40 0 0 300 0 300 -40 0 -40 0 0 -300z"/>
<path d="M27500 22214 l0 -106 -30 26 c-85 71 -214 25 -254 -91 -18 -53 -21
-131 -6 -184 36 -128 180 -191 261 -113 l29 28 0 -27 c0 -24 4 -27 35 -27 l35
0 0 300 0 300 -35 0 -35 0 0 -106z m-60 -129 c109 -56 76 -305 -40 -305 -90 0
-141 83 -125 203 13 95 89 142 165 102z"/>
<path d="M27690 22285 c0 -33 2 -35 35 -35 33 0 35 2 35 35 0 33 -2 35 -35 35
-33 0 -35 -2 -35 -35z"/>
<path d="M25003 22287 c-31 -18 -33 -22 -33 -73 0 -53 0 -54 -30 -54 -28 0
-30 -3 -30 -35 0 -32 2 -35 30 -35 l30 0 0 -164 c0 -199 5 -210 91 -211 53 0
54 0 54 30 0 24 -5 31 -25 33 -48 7 -50 15 -50 168 l0 144 35 0 c33 0 35 2 35
35 0 33 -2 35 -35 35 l-34 0 -3 73 -3 73 -32 -19z"/>
<path d="M22785 22155 c-50 -18 -100 -71 -114 -122 -14 -49 -14 -137 0 -188
21 -74 106 -135 189 -135 120 0 200 94 200 236 0 164 -128 261 -275 209z m135
-71 c46 -27 65 -71 64 -144 0 -100 -47 -160 -124 -160 -101 0 -160 124 -113
241 28 71 109 100 173 63z"/>
<path d="M23300 22159 c-14 -5 -37 -22 -52 -36 l-28 -27 0 32 c0 30 -2 32 -35
32 l-35 0 0 -220 0 -220 39 0 40 0 3 161 3 161 33 29 c43 39 92 40 121 3 19
-25 21 -40 21 -190 l0 -164 35 0 35 0 0 133 c0 72 5 149 10 169 13 46 52 78
94 78 71 0 85 -40 86 -242 l0 -138 36 0 35 0 -3 184 c-3 169 -5 187 -24 213
-47 63 -151 68 -210 9 l-32 -32 -28 34 c-23 27 -38 35 -74 38 -25 2 -56 -1
-70 -7z"/>
<path d="M24440 22155 c-19 -9 -42 -23 -52 -32 -17 -15 -18 -14 -18 10 0 24
-4 27 -35 27 l-35 0 0 -220 0 -220 39 0 40 0 3 161 3 161 33 29 c39 35 97 39
133 10 23 -19 24 -24 27 -190 l3 -171 35 0 34 0 0 178 c0 189 -5 210 -50 244
-35 26 -116 32 -160 13z"/>
<path d="M28010 22155 c-19 -9 -42 -23 -52 -32 -17 -15 -18 -14 -18 10 0 24
-4 27 -35 27 l-35 0 0 -220 0 -220 39 0 40 0 3 161 3 161 33 29 c39 35 97 39
133 10 23 -19 24 -24 27 -190 l3 -171 35 0 34 0 0 178 c0 189 -5 210 -50 244
-35 26 -116 32 -160 13z"/>
<path d="M28439 22161 c-81 -26 -120 -90 -127 -203 -4 -69 -2 -83 23 -134 45
-92 133 -126 226 -86 l49 20 0 -34 c0 -75 -43 -114 -126 -114 -38 0 -51 5 -72
28 -15 16 -42 32 -61 35 -33 7 -33 7 -27 -25 14 -73 103 -117 206 -103 62 9
107 39 133 88 17 34 20 65 25 283 l5 244 -37 0 c-29 0 -36 -4 -36 -20 0 -25
-4 -25 -39 1 -32 23 -101 33 -142 20z m122 -84 c75 -50 79 -201 8 -261 -83
-70 -189 2 -189 129 0 124 93 192 181 132z"/>
<path d="M23842 21981 c3 -163 5 -182 24 -208 52 -71 153 -81 226 -23 l38 31
0 -31 c0 -27 3 -30 30 -30 l30 0 0 220 0 220 -35 0 -35 0 0 -140 c0 -159 -11
-199 -59 -224 -44 -23 -88 -20 -116 9 -25 24 -25 27 -25 190 l0 165 -41 0 -41
0 4 -179z"/>
<path d="M24780 21940 l0 -220 35 0 35 0 0 220 0 220 -35 0 -35 0 0 -220z"/>
<path d="M25153 22138 c4 -13 40 -113 80 -223 65 -174 73 -203 64 -230 -16
-50 -46 -75 -87 -75 -35 0 -37 -2 -32 -27 6 -32 18 -43 50 -43 39 0 81 29 102
71 12 22 63 155 114 295 l94 254 -37 0 c-34 0 -39 -4 -48 -32 -6 -18 -33 -97
-61 -175 l-50 -142 -59 172 -59 172 -38 3 c-36 3 -38 2 -33 -20z"/>
<path d="M26392 21981 c3 -163 5 -182 24 -208 52 -71 153 -81 226 -23 l38 31
0 -31 c0 -27 3 -30 30 -30 l30 0 0 220 0 220 -35 0 -35 0 0 -140 c0 -159 -11
-199 -59 -224 -44 -23 -88 -20 -116 9 -25 24 -25 27 -25 190 l0 165 -41 0 -41
0 4 -179z"/>
<path d="M26860 21940 l0 -220 35 0 35 0 0 220 0 220 -35 0 -35 0 0 -220z"/>
<path d="M27690 21940 l0 -220 35 0 35 0 0 220 0 220 -35 0 -35 0 0 -220z"/>
<path d="M22277 21319 c-112 -26 -188 -120 -203 -251 -14 -120 38 -263 115
-314 54 -35 149 -50 223 -35 72 15 139 71 164 137 18 49 15 58 -28 68 -25 6
-29 2 -43 -31 -31 -74 -88 -113 -165 -113 -44 0 -104 26 -132 57 -66 73 -74
257 -15 345 32 47 92 78 150 78 68 0 113 -24 144 -77 24 -41 28 -44 57 -37 17
3 33 8 35 10 11 10 -15 61 -51 100 -60 65 -148 87 -251 63z"/>
<path d="M25617 21319 c-112 -26 -188 -120 -203 -251 -14 -120 38 -263 115
-314 54 -35 149 -50 223 -35 72 15 139 71 164 137 18 49 15 58 -28 68 -25 6
-29 2 -43 -31 -31 -74 -88 -113 -165 -113 -44 0 -104 26 -132 57 -66 73 -74
257 -15 345 32 47 92 78 150 78 68 0 113 -24 144 -77 24 -41 28 -44 57 -37 17
3 33 8 35 10 11 10 -15 61 -51 100 -60 65 -148 87 -251 63z"/>
<path d="M22680 21020 l0 -300 39 0 40 0 3 161 3 161 33 29 c39 35 97 39 133
10 23 -19 24 -24 27 -190 l3 -171 40 0 39 0 0 128 c0 184 -12 251 -49 283 -53
49 -145 49 -201 2 l-30 -25 0 106 0 106 -40 0 -40 0 0 -300z"/>
<path d="M25000 21020 l0 -300 40 0 40 0 0 300 0 300 -40 0 -40 0 0 -300z"/>
<path d="M26480 21020 l0 -300 40 0 40 0 0 300 0 300 -40 0 -40 0 0 -300z"/>
<path d="M26670 21020 l0 -300 40 0 40 0 0 300 0 300 -40 0 -40 0 0 -300z"/>
<path d="M23261 21161 c-46 -12 -83 -41 -103 -82 l-18 -34 32 -7 c27 -5 36 -1
63 28 29 31 38 34 87 34 72 0 111 -27 106 -74 -3 -29 -6 -32 -63 -42 -33 -7
-82 -15 -108 -19 -104 -14 -159 -116 -105 -195 43 -63 147 -76 237 -31 49 26
47 26 54 1 4 -15 14 -20 42 -20 32 0 36 3 29 18 -4 9 -9 89 -11 177 -2 88 -9
173 -15 188 -6 15 -24 35 -40 43 -35 18 -141 26 -187 15z m169 -265 c0 -62
-64 -116 -137 -116 -51 0 -83 23 -83 60 0 40 27 56 125 73 44 8 83 15 88 16 4
0 7 -14 7 -33z"/>
<path d="M23750 21155 c-19 -9 -42 -23 -52 -32 -17 -15 -18 -14 -18 10 0 24
-4 27 -35 27 l-35 0 0 -220 0 -220 39 0 40 0 3 161 3 161 33 29 c39 35 97 39
133 10 23 -19 24 -24 27 -190 l3 -171 35 0 34 0 0 178 c0 189 -5 210 -50 244
-35 26 -116 32 -160 13z"/>
<path d="M24210 21155 c-19 -9 -42 -23 -52 -32 -17 -15 -18 -14 -18 10 0 24
-4 27 -35 27 l-35 0 0 -220 0 -220 39 0 40 0 3 161 3 161 33 29 c39 35 97 39
133 10 23 -19 24 -24 27 -190 l3 -171 35 0 34 0 0 178 c0 189 -5 210 -50 244
-35 26 -116 32 -160 13z"/>
<path d="M24653 21159 c-138 -42 -179 -299 -65 -402 73 -66 212 -60 284 13 47
47 48 66 6 73 -26 4 -37 0 -53 -18 -28 -32 -57 -45 -104 -45 -53 0 -108 47
-120 103 l-9 37 165 0 166 0 -7 53 c-16 118 -77 185 -177 192 -30 3 -69 0 -86
-6z m135 -79 c29 -18 52 -54 52 -81 0 -5 -52 -9 -120 -9 -77 0 -120 4 -120 10
0 6 7 24 15 40 30 58 112 77 173 40z"/>
<path d="M26131 21161 c-46 -12 -83 -41 -103 -82 l-18 -34 32 -7 c27 -5 36 -1
63 28 29 31 38 34 87 34 72 0 111 -27 106 -74 -3 -29 -6 -32 -63 -42 -33 -7
-82 -15 -108 -19 -104 -14 -159 -116 -105 -195 43 -63 147 -76 237 -31 49 26
47 26 54 1 4 -15 14 -20 42 -20 32 0 36 3 29 18 -4 9 -9 89 -11 177 -2 88 -9
173 -15 188 -6 15 -24 35 -40 43 -35 18 -141 26 -187 15z m169 -265 c0 -62
-64 -116 -137 -116 -51 0 -83 23 -83 60 0 40 27 56 125 73 44 8 83 15 88 16 4
0 7 -14 7 -33z"/>
<path d="M26939 21161 c-68 -21 -99 -61 -99 -127 0 -58 46 -95 150 -123 121
-33 150 -66 94 -110 -41 -33 -117 -29 -153 7 -15 15 -30 32 -32 38 -2 7 -17 9
-36 7 -39 -6 -42 -23 -13 -70 29 -48 73 -67 155 -67 113 0 175 49 175 140 0
65 -26 89 -128 119 -112 33 -136 46 -140 72 -4 30 33 53 88 53 49 0 90 -21 90
-47 0 -11 6 -14 23 -9 12 3 30 6 39 6 14 0 15 4 7 29 -25 70 -129 109 -220 82z"/>
<path d="M22090 20020 l0 -300 40 0 40 0 0 119 0 119 123 4 c95 3 131 8 162
23 140 69 115 292 -37 324 -27 6 -112 11 -188 11 l-140 0 0 -300z m338 205
c37 -31 48 -81 28 -129 -22 -53 -57 -66 -181 -66 l-105 0 0 110 0 110 114 0
c107 0 116 -2 144 -25z"/>
<path d="M23380 20285 c0 -34 1 -35 40 -35 39 0 40 1 40 35 0 34 -1 35 -40 35
-39 0 -40 -1 -40 -35z"/>
<path d="M24930 20020 l0 -300 35 0 35 0 0 140 0 140 155 0 155 0 0 -140 0
-140 40 0 40 0 0 300 0 300 -40 0 -40 0 0 -125 0 -125 -155 0 -155 0 0 125 0
125 -35 0 -35 0 0 -300z"/>
<path d="M24493 20287 c-31 -18 -33 -22 -33 -73 0 -53 0 -54 -30 -54 -28 0
-30 -3 -30 -35 0 -32 2 -35 30 -35 l30 0 0 -164 c0 -199 5 -210 91 -211 53 0
54 0 54 30 0 24 -5 31 -25 33 -48 7 -50 15 -50 168 l0 144 35 0 c33 0 35 2 35
35 0 33 -2 35 -35 35 l-34 0 -3 73 -3 73 -32 -19z"/>
<path d="M22770 20163 c-8 -3 -25 -17 -37 -31 l-23 -27 0 28 c0 24 -3 27 -35
27 l-35 0 0 -220 0 -220 39 0 40 0 3 164 c3 160 4 165 28 191 22 23 31 26 67
21 39 -5 42 -4 51 24 10 27 8 29 -20 39 -33 12 -54 13 -78 4z"/>
<path d="M23015 20155 c-50 -18 -100 -71 -114 -122 -14 -49 -14 -137 0 -188
14 -51 73 -110 124 -124 152 -42 265 54 265 225 0 164 -128 261 -275 209z
m135 -71 c46 -27 65 -71 64 -144 0 -100 -47 -160 -124 -160 -101 0 -160 124
-113 241 28 71 109 100 173 63z"/>
<path d="M23673 20159 c-138 -42 -179 -299 -65 -402 73 -66 212 -60 284 13 47
47 48 66 6 73 -26 4 -37 0 -53 -18 -28 -32 -57 -45 -104 -45 -53 0 -108 47
-120 103 l-9 37 165 0 166 0 -7 53 c-16 118 -77 185 -177 192 -30 3 -69 0 -86
-6z m135 -79 c29 -18 52 -54 52 -81 0 -5 -52 -9 -120 -9 -77 0 -120 4 -120 10
0 6 7 24 15 40 30 58 112 77 173 40z"/>
<path d="M24137 20155 c-82 -29 -122 -102 -122 -220 1 -125 60 -206 162 -221
88 -13 171 34 198 111 7 22 12 41 12 41 -1 1 -19 4 -39 8 -34 6 -38 5 -38 -14
0 -12 -13 -35 -29 -51 -52 -51 -148 -32 -177 36 -18 45 -18 149 1 189 39 82
165 89 195 10 8 -20 14 -23 42 -17 42 8 40 5 28 39 -33 87 -133 125 -233 89z"/>
<path d="M26070 20163 c-8 -3 -30 -19 -47 -36 l-33 -31 0 32 c0 29 -3 32 -30
32 l-30 0 0 -305 0 -305 35 0 35 0 0 106 0 105 33 -23 c46 -33 121 -31 175 4
104 69 120 271 31 373 -40 45 -117 67 -169 48z m89 -78 c40 -20 61 -71 61
-145 0 -73 -19 -119 -59 -143 -85 -50 -171 20 -171 137 0 121 83 196 169 151z"/>
<path d="M26503 20159 c-138 -42 -179 -299 -65 -402 73 -66 212 -60 284 13 47
47 48 66 6 73 -26 4 -37 0 -53 -18 -28 -32 -57 -45 -104 -45 -53 0 -108 47
-120 103 l-9 37 165 0 166 0 -7 53 c-16 118 -77 185 -177 192 -30 3 -69 0 -86
-6z m135 -79 c29 -18 52 -54 52 -81 0 -5 -52 -9 -120 -9 -77 0 -120 4 -120 10
0 6 7 24 15 40 30 58 112 77 173 40z"/>
<path d="M23380 19897 c0 -282 -1 -287 -51 -287 -22 0 -27 -5 -31 -30 -4 -26
-1 -31 20 -37 39 -9 93 9 116 40 20 27 21 43 24 303 l3 274 -40 0 -41 0 0
-263z"/>
<path d="M25483 20138 c4 -13 40 -113 80 -223 65 -174 73 -203 64 -230 -16
-50 -46 -75 -87 -75 -35 0 -37 -2 -32 -27 6 -32 18 -43 50 -43 39 0 81 29 102
71 12 22 63 155 114 295 l94 254 -37 0 c-34 0 -39 -4 -48 -32 -6 -18 -33 -97
-61 -175 l-50 -142 -59 172 -59 172 -38 3 c-36 3 -38 2 -33 -20z"/>
<path d="M500 13640 l0 -300 40 0 40 0 1 253 1 252 83 -250 83 -250 37 0 37 0
83 250 83 250 1 -252 1 -253 40 0 40 0 0 300 0 300 -58 0 -58 0 -78 -242 c-43
-134 -81 -246 -85 -250 -3 -3 -42 106 -86 243 l-80 249 -62 0 -63 0 0 -300z"/>
<path d="M2630 13640 l0 -300 40 0 40 0 1 253 1 252 83 -250 83 -250 37 0 37
0 83 250 83 250 1 -252 1 -253 40 0 40 0 0 300 0 300 -58 0 -58 0 -78 -242
c-43 -134 -81 -246 -85 -250 -3 -3 -42 106 -86 243 l-80 249 -62 0 -63 0 0
-300z"/>
<path d="M4070 13640 l0 -300 35 0 35 0 0 88 c0 81 2 90 25 112 l24 23 72
-112 73 -111 43 0 c33 0 42 3 37 13 -4 6 -46 68 -92 135 l-85 124 84 84 84 84
-45 0 c-43 0 -48 -4 -132 -87 l-88 -88 0 168 0 167 -35 0 -35 0 0 -300z"/>
<path d="M5180 13905 c0 -33 2 -35 35 -35 33 0 35 2 35 35 0 33 -2 35 -35 35
-33 0 -35 -2 -35 -35z"/>
<path d="M4993 13907 c-31 -18 -33 -22 -33 -73 0 -53 0 -54 -30 -54 -28 0 -30
-3 -30 -35 0 -32 2 -35 30 -35 l30 0 0 -164 c0 -199 5 -210 91 -211 53 0 54 0
54 30 0 24 -5 31 -25 33 -48 7 -50 15 -50 168 l0 144 35 0 c33 0 35 2 35 35 0
33 -2 35 -35 35 l-34 0 -3 73 -3 73 -32 -19z"/>
<path d="M1285 13775 c-50 -18 -100 -71 -114 -122 -14 -49 -14 -137 0 -188 14
-51 73 -110 124 -124 152 -42 265 54 265 225 0 164 -128 261 -275 209z m135
-71 c46 -27 65 -71 64 -144 0 -100 -47 -160 -124 -160 -101 0 -160 124 -113
241 28 71 109 100 173 63z"/>
<path d="M1780 13783 c-8 -3 -25 -17 -37 -31 l-23 -27 0 28 c0 24 -3 27 -35
27 l-35 0 0 -220 0 -220 39 0 40 0 3 164 c3 160 4 165 28 191 22 23 31 26 67
21 39 -5 42 -4 51 24 10 27 8 29 -20 39 -33 12 -54 13 -78 4z"/>
<path d="M2043 13779 c-138 -42 -179 -299 -65 -402 73 -66 212 -60 284 13 47
47 48 66 6 73 -26 4 -37 0 -53 -18 -28 -32 -57 -45 -104 -45 -53 0 -108 47
-120 103 l-9 37 165 0 166 0 -7 53 c-16 118 -77 185 -177 192 -30 3 -69 0 -86
-6z m135 -79 c29 -18 52 -54 52 -81 0 -5 -52 -9 -120 -9 -77 0 -120 4 -120 10
0 6 7 24 15 40 30 58 112 77 173 40z"/>
<path d="M3421 13781 c-46 -12 -83 -41 -103 -82 l-18 -34 32 -7 c27 -5 36 -1
63 28 29 31 38 34 87 34 72 0 111 -27 106 -74 -3 -29 -6 -32 -63 -42 -33 -7
-82 -15 -108 -19 -104 -14 -159 -116 -105 -195 43 -63 147 -76 237 -31 49 26
47 26 54 1 4 -15 14 -20 42 -20 32 0 36 3 29 18 -4 9 -9 89 -11 177 -2 88 -9
173 -15 188 -6 15 -24 35 -40 43 -35 18 -141 26 -187 15z m169 -265 c0 -62
-64 -116 -137 -116 -51 0 -83 23 -83 60 0 40 27 56 125 73 44 8 83 15 88 16 4
0 7 -14 7 -33z"/>
<path d="M3910 13783 c-8 -3 -25 -17 -37 -31 l-23 -27 0 28 c0 24 -3 27 -35
27 l-35 0 0 -220 0 -220 39 0 40 0 3 164 c3 160 4 165 28 191 22 23 31 26 67
21 39 -5 42 -4 51 24 10 27 8 29 -20 39 -33 12 -54 13 -78 4z"/>
<path d="M4583 13779 c-138 -42 -179 -299 -65 -402 73 -66 212 -60 284 13 47
47 48 66 6 73 -26 4 -37 0 -53 -18 -28 -32 -57 -45 -104 -45 -53 0 -108 47
-120 103 l-9 37 165 0 166 0 -7 53 c-16 118 -77 185 -177 192 -30 3 -69 0 -86
-6z m135 -79 c29 -18 52 -54 52 -81 0 -5 -52 -9 -120 -9 -77 0 -120 4 -120 10
0 6 7 24 15 40 30 58 112 77 173 40z"/>
<path d="M5490 13775 c-19 -9 -42 -23 -52 -32 -17 -15 -18 -14 -18 10 0 24 -4
27 -35 27 l-35 0 0 -220 0 -220 39 0 40 0 3 161 3 161 33 29 c39 35 97 39 133
10 23 -19 24 -24 27 -190 l3 -171 35 0 34 0 0 178 c0 189 -5 210 -50 244 -35
26 -116 32 -160 13z"/>
<path d="M5929 13781 c-81 -26 -120 -90 -127 -203 -4 -69 -2 -83 23 -134 45
-92 133 -126 226 -86 l49 20 0 -34 c0 -75 -43 -114 -126 -114 -38 0 -51 5 -72
28 -15 16 -42 32 -61 35 -33 7 -33 7 -27 -25 14 -73 103 -117 206 -103 62 9
107 39 133 88 17 34 20 65 25 283 l5 244 -37 0 c-29 0 -36 -4 -36 -20 0 -25
-4 -25 -39 1 -32 23 -101 33 -142 20z m122 -84 c75 -50 79 -201 8 -261 -83
-70 -189 2 -189 129 0 124 93 192 181 132z"/>
<path d="M5180 13560 l0 -220 35 0 35 0 0 220 0 220 -35 0 -35 0 0 -220z"/>
<path d="M661 12918 c-5 -13 -57 -146 -115 -297 -58 -150 -106 -275 -106 -278
0 -2 19 -3 41 -1 l42 3 32 90 33 90 123 3 124 3 35 -93 35 -93 43 -3 c23 -2
42 0 42 5 0 4 -54 140 -121 301 l-121 292 -39 0 c-32 0 -41 -4 -48 -22z m96
-185 c24 -64 43 -120 43 -125 0 -4 -41 -8 -91 -8 -82 0 -91 2 -86 18 26 82 83
238 86 235 3 -2 24 -56 48 -120z"/>
<path d="M1060 12640 l0 -300 40 0 40 0 1 253 1 252 83 -250 83 -250 37 0 37
0 83 250 83 250 1 -252 1 -253 40 0 40 0 0 300 0 300 -58 0 -58 0 -78 -242
c-43 -134 -81 -246 -85 -250 -3 -3 -42 106 -86 243 l-80 249 -62 0 -63 0 0
-300z"/>
<path d="M1911 12918 c-5 -13 -57 -146 -115 -297 -58 -150 -106 -275 -106
-278 0 -2 19 -3 41 -1 l42 3 32 90 33 90 123 3 124 3 35 -93 35 -93 43 -3 c23
-2 42 0 42 5 0 4 -54 140 -121 301 l-121 292 -39 0 c-32 0 -41 -4 -48 -22z
m96 -185 c24 -64 43 -120 43 -125 0 -4 -41 -8 -91 -8 -82 0 -91 2 -86 18 26
82 83 238 86 235 3 -2 24 -56 48 -120z"/>
<path d="M2230 12905 c0 -29 4 -35 21 -35 19 0 21 -4 15 -32 -3 -17 -13 -40
-22 -49 -9 -10 -14 -25 -10 -34 5 -13 10 -14 27 -5 29 16 49 70 49 135 l0 55
-40 0 c-39 0 -40 -1 -40 -35z"/>
<path d="M2489 12781 c-68 -21 -99 -61 -99 -127 0 -58 46 -95 150 -123 121
-33 150 -66 94 -110 -41 -33 -117 -29 -153 7 -15 15 -30 32 -32 38 -2 7 -17 9
-36 7 -39 -6 -42 -23 -13 -70 29 -48 73 -67 155 -67 113 0 175 49 175 140 0
65 -26 89 -128 119 -112 33 -136 46 -140 72 -4 30 33 53 88 53 49 0 90 -21 90
-47 0 -11 6 -14 23 -9 12 3 30 6 39 6 14 0 15 4 7 29 -25 70 -129 109 -220 82z"/>
<path d="M687 11939 c-112 -26 -188 -120 -203 -251 -14 -120 38 -263 115 -314
54 -35 149 -50 223 -35 72 15 139 71 164 137 18 49 15 58 -28 68 -25 6 -29 2
-43 -31 -31 -74 -88 -113 -165 -113 -44 0 -104 26 -132 57 -66 73 -74 257 -15
345 32 47 92 78 150 78 68 0 113 -24 144 -77 24 -41 28 -44 57 -37 17 3 33 8
35 10 11 10 -15 61 -51 100 -60 65 -148 87 -251 63z"/>
<path d="M5137 11939 c-112 -26 -188 -120 -203 -251 -14 -120 38 -263 115
-314 54 -35 149 -50 223 -35 72 15 139 71 164 137 18 49 15 58 -28 68 -25 6
-29 2 -43 -31 -31 -74 -88 -113 -165 -113 -44 0 -104 26 -132 57 -66 73 -74
257 -15 345 32 47 92 78 150 78 68 0 113 -24 144 -77 24 -41 28 -44 57 -37 17
3 33 8 35 10 11 10 -15 61 -51 100 -60 65 -148 87 -251 63z"/>
<path d="M3880 11905 c0 -33 2 -35 35 -35 33 0 35 2 35 35 0 33 -2 35 -35 35
-33 0 -35 -2 -35 -35z"/>
<path d="M4113 11907 c-31 -18 -33 -22 -33 -73 0 -53 0 -54 -30 -54 -28 0 -30
-3 -30 -35 0 -32 2 -35 30 -35 l30 0 0 -164 c0 -199 5 -210 91 -211 53 0 54 0
54 30 0 24 -5 31 -25 33 -48 7 -50 15 -50 168 l0 144 35 0 c33 0 35 2 35 35 0
33 -2 35 -35 35 l-34 0 -3 73 -3 73 -32 -19z"/>
<path d="M6513 11907 c-31 -18 -33 -22 -33 -73 0 -53 0 -54 -30 -54 -28 0 -30
-3 -30 -35 0 -32 2 -35 30 -35 l30 0 0 -164 c0 -199 5 -210 91 -211 53 0 54 0
54 30 0 24 -5 31 -25 33 -48 7 -50 15 -50 168 l0 144 35 0 c33 0 35 2 35 35 0
33 -2 35 -35 35 l-34 0 -3 73 -3 73 -32 -19z"/>
<path d="M7633 11907 c-31 -18 -33 -22 -33 -73 0 -53 0 -54 -30 -54 -28 0 -30
-3 -30 -35 0 -32 2 -35 30 -35 l30 0 0 -164 c0 -199 5 -210 91 -211 53 0 54 0
54 30 0 24 -5 31 -25 33 -48 7 -50 15 -50 168 l0 144 35 0 c33 0 35 2 35 35 0
33 -2 35 -35 35 l-34 0 -3 73 -3 73 -32 -19z"/>
<path d="M1195 11775 c-50 -18 -100 -71 -114 -122 -14 -49 -14 -137 0 -188 14
-51 73 -110 124 -124 152 -42 265 54 265 225 0 164 -128 261 -275 209z m135
-71 c46 -27 65 -71 64 -144 0 -100 -47 -160 -124 -160 -101 0 -160 124 -113
241 28 71 109 100 173 63z"/>
<path d="M1710 11779 c-14 -5 -37 -22 -52 -36 l-28 -27 0 32 c0 30 -2 32 -35
32 l-35 0 0 -220 0 -220 39 0 40 0 3 161 3 161 33 29 c43 39 92 40 121 3 19
-25 21 -40 21 -190 l0 -164 35 0 35 0 0 133 c0 72 5 149 10 169 13 46 52 78
94 78 71 0 85 -40 86 -242 l0 -138 36 0 35 0 -3 184 c-3 169 -5 187 -24 213
-47 63 -151 68 -210 9 l-32 -32 -28 34 c-23 27 -38 35 -74 38 -25 2 -56 -1
-70 -7z"/>
<path d="M2400 11779 c-14 -5 -37 -22 -52 -36 l-28 -27 0 32 c0 30 -2 32 -35
32 l-35 0 0 -220 0 -220 39 0 40 0 3 161 3 161 33 29 c43 39 92 40 121 3 19
-25 21 -40 21 -190 l0 -164 35 0 35 0 0 133 c0 72 5 149 10 169 13 46 52 78
94 78 71 0 85 -40 86 -242 l0 -138 36 0 35 0 -3 184 c-3 169 -5 187 -24 213
-47 63 -151 68 -210 9 l-32 -32 -28 34 c-23 27 -38 35 -74 38 -25 2 -56 -1
-70 -7z"/>
<path d="M3550 11775 c-19 -9 -42 -23 -52 -32 -17 -15 -18 -14 -18 10 0 24 -4
27 -35 27 l-35 0 0 -220 0 -220 39 0 40 0 3 161 3 161 33 29 c39 35 97 39 133
10 23 -19 24 -24 27 -190 l3 -171 35 0 34 0 0 178 c0 189 -5 210 -50 244 -35
26 -116 32 -160 13z"/>
<path d="M5645 11775 c-50 -18 -100 -71 -114 -122 -14 -49 -14 -137 0 -188 14
-51 73 -110 124 -124 152 -42 265 54 265 225 0 164 -128 261 -275 209z m135
-71 c46 -27 65 -71 64 -144 0 -100 -47 -160 -124 -160 -101 0 -160 124 -113
241 28 71 109 100 173 63z"/>
<path d="M6140 11775 c-19 -9 -42 -23 -52 -32 -17 -15 -18 -14 -18 10 0 24 -4
27 -35 27 l-35 0 0 -220 0 -220 39 0 40 0 3 161 3 161 33 29 c39 35 97 39 133
10 23 -19 24 -24 27 -190 l3 -171 35 0 34 0 0 178 c0 189 -5 210 -50 244 -35
26 -116 32 -160 13z"/>
<path d="M6813 11779 c-138 -42 -179 -299 -65 -402 73 -66 212 -60 284 13 47
47 48 66 6 73 -26 4 -37 0 -53 -18 -28 -32 -57 -45 -104 -45 -53 0 -108 47
-120 103 l-9 37 165 0 166 0 -7 53 c-16 118 -77 185 -177 192 -30 3 -69 0 -86
-6z m135 -79 c29 -18 52 -54 52 -81 0 -5 -52 -9 -120 -9 -77 0 -120 4 -120 10
0 6 7 24 15 40 30 58 112 77 173 40z"/>
<path d="M7249 11781 c-68 -21 -99 -61 -99 -127 0 -58 46 -95 150 -123 121
-33 150 -66 94 -110 -41 -33 -117 -29 -153 7 -15 15 -30 32 -32 38 -2 7 -17 9
-36 7 -39 -6 -42 -23 -13 -70 29 -48 73 -67 155 -67 113 0 175 49 175 140 0
65 -26 89 -128 119 -112 33 -136 46 -140 72 -4 30 33 53 88 53 49 0 90 -21 90
-47 0 -11 6 -14 23 -9 12 3 30 6 39 6 14 0 15 4 7 29 -25 70 -129 109 -220 82z"/>
<path d="M2942 11601 c3 -163 5 -182 24 -208 52 -71 153 -81 226 -23 l38 31 0
-31 c0 -27 3 -30 30 -30 l30 0 0 220 0 220 -35 0 -35 0 0 -140 c0 -159 -11
-199 -59 -224 -44 -23 -88 -20 -116 9 -25 24 -25 27 -25 190 l0 165 -41 0 -41
0 4 -179z"/>
<path d="M3880 11560 l0 -220 35 0 35 0 0 220 0 220 -35 0 -35 0 0 -220z"/>
<path d="M4263 11758 c4 -13 40 -113 80 -223 65 -174 73 -203 64 -230 -16 -50
-46 -75 -87 -75 -35 0 -37 -2 -32 -27 6 -32 18 -43 50 -43 39 0 81 29 102 71
12 22 63 155 114 295 l94 254 -37 0 c-34 0 -39 -4 -48 -32 -6 -18 -33 -97 -61
-175 l-50 -142 -59 172 -59 172 -38 3 c-36 3 -38 2 -33 -20z"/>
<path d="M2895 10941 c-39 -17 -58 -50 -63 -106 -4 -53 -6 -55 -33 -55 -26 0
-29 -3 -29 -35 0 -32 2 -35 30 -35 l30 0 0 -185 0 -185 35 0 35 0 0 185 0 185
45 0 c45 0 45 0 45 35 0 35 0 35 -46 35 l-47 0 6 36 c8 50 23 64 67 64 33 0
38 3 43 28 3 15 3 29 1 31 -8 9 -100 10 -119 2z"/>
<path d="M4207 10939 c-112 -26 -188 -120 -203 -251 -14 -120 38 -263 115
-314 54 -35 149 -50 223 -35 72 15 139 71 164 137 18 49 15 58 -28 68 -25 6
-29 2 -43 -31 -31 -74 -88 -113 -165 -113 -44 0 -104 26 -132 57 -66 73 -74
257 -15 345 32 47 92 78 150 78 68 0 113 -24 144 -77 24 -41 28 -44 57 -37 17
3 33 8 35 10 11 10 -15 61 -51 100 -60 65 -148 87 -251 63z"/>
<path d="M5507 10939 c-112 -26 -188 -120 -203 -251 -14 -120 38 -263 115
-314 54 -35 149 -50 223 -35 72 15 139 71 164 137 18 49 15 58 -28 68 -25 6
-29 2 -43 -31 -31 -74 -88 -113 -165 -113 -44 0 -104 26 -132 57 -66 73 -74
257 -15 345 32 47 92 78 150 78 68 0 113 -24 144 -77 24 -41 28 -44 57 -37 17
3 33 8 35 10 11 10 -15 61 -51 100 -60 65 -148 87 -251 63z"/>
<path d="M7957 10939 c-112 -26 -188 -120 -203 -251 -14 -120 38 -263 115
-314 54 -35 149 -50 223 -35 72 15 139 71 164 137 18 49 15 58 -28 68 -25 6
-29 2 -43 -31 -31 -74 -88 -113 -165 -113 -44 0 -104 26 -132 57 -66 73 -74
257 -15 345 32 47 92 78 150 78 68 0 113 -24 144 -77 24 -41 28 -44 57 -37 17
3 33 8 35 10 11 10 -15 61 -51 100 -60 65 -148 87 -251 63z"/>
<path d="M8557 10936 c-142 -40 -223 -188 -196 -357 13 -80 38 -128 93 -176
100 -88 282 -91 409 -7 l37 24 0 115 0 115 -125 0 -125 0 0 -35 0 -35 90 0 90
0 0 -60 0 -61 -62 -29 c-95 -45 -180 -39 -257 18 -89 66 -101 256 -23 361 71
95 254 94 312 -2 11 -18 21 -36 23 -41 2 -5 18 -5 36 -1 29 6 32 10 26 33 -12
49 -53 99 -99 121 -57 28 -164 36 -229 17z"/>
<path d="M661 10918 c-5 -13 -57 -146 -115 -297 -58 -150 -106 -275 -106 -278
0 -2 19 -3 41 -1 l42 3 32 90 33 90 123 3 124 3 35 -93 35 -93 43 -3 c23 -2
42 0 42 5 0 4 -54 140 -121 301 l-121 292 -39 0 c-32 0 -41 -4 -48 -22z m96
-185 c24 -64 43 -120 43 -125 0 -4 -41 -8 -91 -8 -82 0 -91 2 -86 18 26 82 83
238 86 235 3 -2 24 -56 48 -120z"/>
<path d="M1970 10640 l0 -300 40 0 40 0 0 300 0 300 -40 0 -40 0 0 -300z"/>
<path d="M4620 10640 l0 -300 40 0 40 0 1 253 1 252 83 -250 83 -250 37 0 37
0 83 250 83 250 1 -252 1 -253 40 0 40 0 0 300 0 300 -58 0 -58 0 -78 -242
c-43 -134 -81 -246 -85 -250 -3 -3 -42 106 -86 243 l-80 249 -62 0 -63 0 0
-300z"/>
<path d="M7350 10834 l0 -106 -30 26 c-85 71 -214 25 -254 -91 -18 -53 -21
-131 -6 -184 36 -128 180 -191 261 -113 l29 28 0 -27 c0 -24 4 -27 35 -27 l35
0 0 300 0 300 -35 0 -35 0 0 -106z m-60 -129 c109 -56 76 -305 -40 -305 -90 0
-141 83 -125 203 13 95 89 142 165 102z"/>
<path d="M1200 10783 c-8 -3 -30 -19 -47 -36 l-33 -31 0 32 c0 29 -3 32 -30
32 l-30 0 0 -305 0 -305 35 0 35 0 0 106 0 105 33 -23 c46 -33 121 -31 175 4
104 69 120 271 31 373 -40 45 -117 67 -169 48z m89 -78 c40 -20 61 -71 61
-145 0 -73 -19 -119 -59 -143 -85 -50 -171 20 -171 137 0 121 83 196 169 151z"/>
<path d="M1660 10783 c-8 -3 -30 -19 -47 -36 l-33 -31 0 32 c0 29 -3 32 -30
32 l-30 0 0 -305 0 -305 35 0 35 0 0 106 0 105 33 -23 c46 -33 121 -31 175 4
104 69 120 271 31 373 -40 45 -117 67 -169 48z m89 -78 c40 -20 61 -71 61
-145 0 -73 -19 -119 -59 -143 -85 -50 -171 20 -171 137 0 121 83 196 169 151z"/>
<path d="M3145 10775 c-50 -18 -100 -71 -114 -122 -14 -49 -14 -137 0 -188 14
-51 73 -110 124 -124 152 -42 265 54 265 225 0 164 -128 261 -275 209z m135
-71 c46 -27 65 -71 64 -144 0 -100 -47 -160 -124 -160 -101 0 -160 124 -113
241 28 71 109 100 173 63z"/>
<path d="M3630 10783 c-8 -3 -25 -17 -37 -31 l-23 -27 0 28 c0 24 -3 27 -35
27 l-35 0 0 -220 0 -220 39 0 40 0 3 164 c3 160 4 165 28 191 22 23 31 26 67
21 39 -5 42 -4 51 24 10 27 8 29 -20 39 -33 12 -54 13 -78 4z"/>
<path d="M6251 10781 c-46 -12 -83 -41 -103 -82 l-18 -34 32 -7 c27 -5 36 -1
63 28 29 31 38 34 87 34 72 0 111 -27 106 -74 -3 -29 -6 -32 -63 -42 -33 -7
-82 -15 -108 -19 -104 -14 -159 -116 -105 -195 43 -63 147 -76 237 -31 49 26
47 26 54 1 4 -15 14 -20 42 -20 32 0 36 3 29 18 -4 9 -9 89 -11 177 -2 88 -9
173 -15 188 -6 15 -24 35 -40 43 -35 18 -141 26 -187 15z m169 -265 c0 -62
-64 -116 -137 -116 -51 0 -83 23 -83 60 0 40 27 56 125 73 44 8 83 15 88 16 4
0 7 -14 7 -33z"/>
<path d="M6740 10775 c-19 -9 -42 -23 -52 -32 -17 -15 -18 -14 -18 10 0 24 -4
27 -35 27 l-35 0 0 -220 0 -220 39 0 40 0 3 161 3 161 33 29 c39 35 97 39 133
10 23 -19 24 -24 27 -190 l3 -171 35 0 34 0 0 178 c0 189 -5 210 -50 244 -35
26 -116 32 -160 13z"/>
<path d="M2133 10758 c4 -13 40 -113 80 -223 65 -174 73 -203 64 -230 -16 -50
-46 -75 -87 -75 -35 0 -37 -2 -32 -27 6 -32 18 -43 50 -43 39 0 81 29 102 71
12 22 63 155 114 295 l94 254 -37 0 c-34 0 -39 -4 -48 -32 -6 -18 -33 -97 -61
-175 l-50 -142 -59 172 -59 172 -38 3 c-36 3 -38 2 -33 -20z"/>
<path d="M687 9939 c-112 -26 -188 -120 -203 -251 -14 -120 38 -263 115 -314
54 -35 149 -50 223 -35 72 15 139 71 164 137 18 49 15 58 -28 68 -25 6 -29 2
-43 -31 -31 -74 -88 -113 -165 -113 -44 0 -104 26 -132 57 -66 73 -74 257 -15
345 32 47 92 78 150 78 68 0 113 -24 144 -77 24 -41 28 -44 57 -37 17 3 33 8
35 10 11 10 -15 61 -51 100 -60 65 -148 87 -251 63z"/>
<path d="M2210 9640 l0 -300 185 0 185 0 0 35 0 35 -145 0 -145 0 0 265 0 265
-40 0 -40 0 0 -300z"/>
<path d="M2680 9905 c0 -33 2 -35 35 -35 33 0 35 2 35 35 0 33 -2 35 -35 35
-33 0 -35 -2 -35 -35z"/>
<path d="M3510 9905 c0 -33 2 -35 35 -35 33 0 35 2 35 35 0 33 -2 35 -35 35
-33 0 -35 -2 -35 -35z"/>
<path d="M3323 9907 c-31 -18 -33 -22 -33 -73 0 -53 0 -54 -30 -54 -28 0 -30
-3 -30 -35 0 -32 2 -35 30 -35 l30 0 0 -164 c0 -199 5 -210 91 -211 53 0 54 0
54 30 0 24 -5 31 -25 33 -48 7 -50 15 -50 168 l0 144 35 0 c33 0 35 2 35 35 0
33 -2 35 -35 35 l-34 0 -3 73 -3 73 -32 -19z"/>
<path d="M1203 9779 c-138 -42 -179 -299 -65 -402 73 -66 212 -60 284 13 47
47 48 66 6 73 -26 4 -37 0 -53 -18 -28 -32 -57 -45 -104 -45 -53 0 -108 47
-120 103 l-9 37 165 0 166 0 -7 53 c-16 118 -77 185 -177 192 -30 3 -69 0 -86
-6z m135 -79 c29 -18 52 -54 52 -81 0 -5 -52 -9 -120 -9 -77 0 -120 4 -120 10
0 6 7 24 15 40 30 58 112 77 173 40z"/>
<path d="M2939 9781 c-68 -21 -99 -61 -99 -127 0 -58 46 -95 150 -123 121 -33
150 -66 94 -110 -41 -33 -117 -29 -153 7 -15 15 -30 32 -32 38 -2 7 -17 9 -36
7 -39 -6 -42 -23 -13 -70 29 -48 73 -67 155 -67 113 0 175 49 175 140 0 65
-26 89 -128 119 -112 33 -136 46 -140 72 -4 30 33 53 88 53 49 0 90 -21 90
-47 0 -11 6 -14 23 -9 12 3 30 6 39 6 14 0 15 4 7 29 -25 70 -129 109 -220 82z"/>
<path d="M3830 9775 c-19 -9 -42 -23 -52 -32 -17 -15 -18 -14 -18 10 0 24 -4
27 -35 27 l-35 0 0 -220 0 -220 39 0 40 0 3 161 3 161 33 29 c39 35 97 39 133
10 23 -19 24 -24 27 -190 l3 -171 35 0 34 0 0 178 c0 189 -5 210 -50 244 -35
26 -116 32 -160 13z"/>
<path d="M4259 9781 c-81 -26 -120 -90 -127 -203 -4 -69 -2 -83 23 -134 45
-92 133 -126 226 -86 l49 20 0 -34 c0 -75 -43 -114 -126 -114 -38 0 -51 5 -72
28 -15 16 -42 32 -61 35 -33 7 -33 7 -27 -25 14 -73 103 -117 206 -103 62 9
107 39 133 88 17 34 20 65 25 283 l5 244 -37 0 c-29 0 -36 -4 -36 -20 0 -25
-4 -25 -39 1 -32 23 -101 33 -142 20z m122 -84 c75 -50 79 -201 8 -261 -83
-70 -189 2 -189 129 0 124 93 192 181 132z"/>
<path d="M1601 9674 l72 -106 -70 -101 c-38 -56 -73 -108 -77 -114 -5 -10 4
-13 36 -13 43 0 43 1 96 80 28 44 56 80 61 80 5 0 32 -36 61 -80 51 -77 54
-80 91 -80 22 0 39 3 39 6 0 3 -34 55 -75 115 l-75 108 70 100 c38 55 70 103
70 106 0 3 -18 5 -39 5 -37 0 -42 -4 -87 -67 -26 -38 -50 -72 -54 -76 -4 -5
-28 26 -54 67 l-47 76 -45 0 -45 0 72 -106z"/>
<path d="M2680 9560 l0 -220 35 0 35 0 0 220 0 220 -35 0 -35 0 0 -220z"/>
<path d="M3510 9560 l0 -220 35 0 35 0 0 220 0 220 -35 0 -35 0 0 -220z"/>
<path d="M22100 6380 l0 -300 40 0 40 0 1 253 1 252 83 -250 83 -250 37 0 37
0 83 250 83 250 1 -252 1 -253 40 0 40 0 0 300 0 300 -58 0 -58 0 -78 -242
c-43 -134 -81 -246 -85 -250 -3 -3 -42 106 -86 243 l-80 249 -62 0 -63 0 0
-300z"/>
<path d="M24230 6380 l0 -300 40 0 40 0 1 253 1 252 83 -250 83 -250 37 0 37
0 83 250 83 250 1 -252 1 -253 40 0 40 0 0 300 0 300 -58 0 -58 0 -78 -242
c-43 -134 -81 -246 -85 -250 -3 -3 -42 106 -86 243 l-80 249 -62 0 -63 0 0
-300z"/>
<path d="M25670 6380 l0 -300 35 0 35 0 0 88 c0 81 2 90 25 112 l24 23 72
-112 73 -111 43 0 c33 0 42 3 37 13 -4 6 -46 68 -92 135 l-85 124 84 84 84 84
-45 0 c-43 0 -48 -4 -132 -87 l-88 -88 0 168 0 167 -35 0 -35 0 0 -300z"/>
<path d="M26780 6645 c0 -33 2 -35 35 -35 33 0 35 2 35 35 0 33 -2 35 -35 35
-33 0 -35 -2 -35 -35z"/>
<path d="M29970 6645 c0 -33 2 -35 35 -35 33 0 35 2 35 35 0 33 -2 35 -35 35
-33 0 -35 -2 -35 -35z"/>
<path d="M31012 6629 c-24 -27 -64 -61 -88 -75 -38 -23 -44 -30 -44 -60 0 -32
1 -33 26 -24 14 6 45 24 69 40 24 17 46 30 49 30 3 0 6 -103 6 -230 l0 -230
35 0 35 0 0 300 0 300 -22 0 c-15 -1 -39 -19 -66 -51z"/>
<path d="M31424 6669 c-44 -12 -90 -69 -109 -131 -21 -71 -20 -257 1 -328 22
-74 74 -126 136 -135 94 -14 157 19 196 103 25 53 27 66 27 197 0 136 -1 142
-30 200 -24 49 -38 64 -75 83 -46 23 -93 27 -146 11z m117 -76 c37 -22 58 -77
66 -172 6 -81 -10 -205 -30 -231 -37 -48 -103 -64 -145 -34 -48 33 -57 69 -57
219 0 114 3 146 17 172 34 62 92 80 149 46z"/>
<path d="M31884 6669 c-44 -12 -90 -69 -109 -131 -21 -71 -20 -257 1 -328 22
-74 74 -126 136 -135 94 -14 157 19 196 103 25 53 27 66 27 197 0 136 -1 142
-30 200 -24 49 -38 64 -75 83 -46 23 -93 27 -146 11z m117 -76 c37 -22 58 -77
66 -172 6 -81 -10 -205 -30 -231 -37 -48 -103 -64 -145 -34 -48 33 -57 69 -57
219 0 114 3 146 17 172 34 62 92 80 149 46z"/>
<path d="M32344 6669 c-44 -12 -90 -69 -109 -131 -21 -71 -20 -257 1 -328 22
-74 74 -126 136 -135 94 -14 157 19 196 103 25 53 27 66 27 197 0 136 -1 142
-30 200 -24 49 -38 64 -75 83 -46 23 -93 27 -146 11z m117 -76 c37 -22 58 -77
66 -172 6 -81 -10 -205 -30 -231 -37 -48 -103 -64 -145 -34 -48 33 -57 69 -57
219 0 114 3 146 17 172 34 62 92 80 149 46z"/>
<path d="M26593 6647 c-31 -18 -33 -22 -33 -73 0 -53 0 -54 -30 -54 -28 0 -30
-3 -30 -35 0 -32 2 -35 30 -35 l30 0 0 -164 c0 -199 5 -210 91 -211 53 0 54 0
54 30 0 24 -5 31 -25 33 -48 7 -50 15 -50 168 l0 144 35 0 c33 0 35 2 35 35 0
33 -2 35 -35 35 l-34 0 -3 73 -3 73 -32 -19z"/>
<path d="M28163 6647 c-31 -18 -33 -22 -33 -73 0 -53 0 -54 -30 -54 -28 0 -30
-3 -30 -35 0 -32 2 -35 30 -35 l30 0 0 -164 c0 -199 5 -210 91 -211 53 0 54 0
54 30 0 24 -5 31 -25 33 -48 7 -50 15 -50 168 l0 144 35 0 c33 0 35 2 35 35 0
33 -2 35 -35 35 l-34 0 -3 73 -3 73 -32 -19z"/>
<path d="M22885 6515 c-50 -18 -100 -71 -114 -122 -14 -49 -14 -137 0 -188 14
-51 73 -110 124 -124 152 -42 265 54 265 225 0 164 -128 261 -275 209z m135
-71 c46 -27 65 -71 64 -144 0 -100 -47 -160 -124 -160 -101 0 -160 124 -113
241 28 71 109 100 173 63z"/>
<path d="M23380 6523 c-8 -3 -25 -17 -37 -31 l-23 -27 0 28 c0 24 -3 27 -35
27 l-35 0 0 -220 0 -220 39 0 40 0 3 164 c3 160 4 165 28 191 22 23 31 26 67
21 39 -5 42 -4 51 24 10 27 8 29 -20 39 -33 12 -54 13 -78 4z"/>
<path d="M23643 6519 c-138 -42 -179 -299 -65 -402 73 -66 212 -60 284 13 47
47 48 66 6 73 -26 4 -37 0 -53 -18 -28 -32 -57 -45 -104 -45 -53 0 -108 47
-120 103 l-9 37 165 0 166 0 -7 53 c-16 118 -77 185 -177 192 -30 3 -69 0 -86
-6z m135 -79 c29 -18 52 -54 52 -81 0 -5 -52 -9 -120 -9 -77 0 -120 4 -120 10
0 6 7 24 15 40 30 58 112 77 173 40z"/>
<path d="M25021 6521 c-46 -12 -83 -41 -103 -82 l-18 -34 32 -7 c27 -5 36 -1
63 28 29 31 38 34 87 34 72 0 111 -27 106 -74 -3 -29 -6 -32 -63 -42 -33 -7
-82 -15 -108 -19 -104 -14 -159 -116 -105 -195 43 -63 147 -76 237 -31 49 26
47 26 54 1 4 -15 14 -20 42 -20 32 0 36 3 29 18 -4 9 -9 89 -11 177 -2 88 -9
173 -15 188 -6 15 -24 35 -40 43 -35 18 -141 26 -187 15z m169 -265 c0 -62
-64 -116 -137 -116 -51 0 -83 23 -83 60 0 40 27 56 125 73 44 8 83 15 88 16 4
0 7 -14 7 -33z"/>
<path d="M25510 6523 c-8 -3 -25 -17 -37 -31 l-23 -27 0 28 c0 24 -3 27 -35
27 l-35 0 0 -220 0 -220 39 0 40 0 3 164 c3 160 4 165 28 191 22 23 31 26 67
21 39 -5 42 -4 51 24 10 27 8 29 -20 39 -33 12 -54 13 -78 4z"/>
<path d="M26183 6519 c-138 -42 -179 -299 -65 -402 73 -66 212 -60 284 13 47
47 48 66 6 73 -26 4 -37 0 -53 -18 -28 -32 -57 -45 -104 -45 -53 0 -108 47
-120 103 l-9 37 165 0 166 0 -7 53 c-16 118 -77 185 -177 192 -30 3 -69 0 -86
-6z m135 -79 c29 -18 52 -54 52 -81 0 -5 -52 -9 -120 -9 -77 0 -120 4 -120 10
0 6 7 24 15 40 30 58 112 77 173 40z"/>
<path d="M27090 6515 c-19 -9 -42 -23 -52 -32 -17 -15 -18 -14 -18 10 0 24 -4
27 -35 27 l-35 0 0 -220 0 -220 39 0 40 0 3 161 3 161 33 29 c39 35 97 39 133
10 23 -19 24 -24 27 -190 l3 -171 35 0 34 0 0 178 c0 189 -5 210 -50 244 -35
26 -116 32 -160 13z"/>
<path d="M27529 6521 c-81 -26 -120 -90 -127 -203 -4 -69 -2 -83 23 -134 45
-92 133 -126 226 -86 l49 20 0 -34 c0 -75 -43 -114 -126 -114 -38 0 -51 5 -72
28 -15 16 -42 32 -61 35 -33 7 -33 7 -27 -25 14 -73 103 -117 206 -103 62 9
107 39 133 88 17 34 20 65 25 283 l5 244 -37 0 c-29 0 -36 -4 -36 -20 0 -25
-4 -25 -39 1 -32 23 -101 33 -142 20z m122 -84 c75 -50 79 -201 8 -261 -83
-70 -189 2 -189 129 0 124 93 192 181 132z"/>
<path d="M28445 6515 c-50 -18 -100 -71 -114 -122 -14 -49 -14 -137 0 -188 14
-51 73 -110 124 -124 152 -42 265 54 265 225 0 164 -128 261 -275 209z m135
-71 c46 -27 65 -71 64 -144 0 -100 -47 -160 -124 -160 -101 0 -160 124 -113
241 28 71 109 100 173 63z"/>
<path d="M29149 6521 c-81 -26 -120 -90 -127 -203 -4 -69 -2 -83 23 -134 45
-92 133 -126 226 -86 l49 20 0 -34 c0 -75 -43 -114 -126 -114 -38 0 -51 5 -72
28 -15 16 -42 32 -61 35 -33 7 -33 7 -27 -25 14 -73 103 -117 206 -103 62 9
107 39 133 88 17 34 20 65 25 283 l5 244 -37 0 c-29 0 -36 -4 -36 -20 0 -25
-4 -25 -39 1 -32 23 -101 33 -142 20z m122 -84 c75 -50 79 -201 8 -261 -83
-70 -189 2 -189 129 0 124 93 192 181 132z"/>
<path d="M29611 6521 c-46 -12 -83 -41 -103 -82 l-18 -34 32 -7 c27 -5 36 -1
63 28 29 31 38 34 87 34 72 0 111 -27 106 -74 -3 -29 -6 -32 -63 -42 -33 -7
-82 -15 -108 -19 -104 -14 -159 -116 -105 -195 43 -63 147 -76 237 -31 49 26
47 26 54 1 4 -15 14 -20 42 -20 32 0 36 3 29 18 -4 9 -9 89 -11 177 -2 88 -9
173 -15 188 -6 15 -24 35 -40 43 -35 18 -141 26 -187 15z m169 -265 c0 -62
-64 -116 -137 -116 -51 0 -83 23 -83 60 0 40 27 56 125 73 44 8 83 15 88 16 4
0 7 -14 7 -33z"/>
<path d="M30290 6515 c-19 -9 -42 -23 -52 -32 -17 -15 -18 -14 -18 10 0 24 -4
27 -35 27 l-35 0 0 -220 0 -220 39 0 40 0 3 161 3 161 33 29 c39 35 97 39 133
10 23 -19 24 -24 27 -190 l3 -171 35 0 34 0 0 178 c0 189 -5 210 -50 244 -35
26 -116 32 -160 13z"/>
<path d="M26780 6300 l0 -220 35 0 35 0 0 220 0 220 -35 0 -35 0 0 -220z"/>
<path d="M29970 6300 l0 -220 35 0 35 0 0 220 0 220 -35 0 -35 0 0 -220z"/>
<path d="M24230 5645 c0 -33 2 -35 35 -35 33 0 35 2 35 35 0 33 -2 35 -35 35
-33 0 -35 -2 -35 -35z"/>
<path d="M25060 5645 c0 -33 2 -35 35 -35 33 0 35 2 35 35 0 33 -2 35 -35 35
-33 0 -35 -2 -35 -35z"/>
<path d="M27053 5647 c-31 -18 -33 -22 -33 -73 0 -53 0 -54 -30 -54 -28 0 -30
-3 -30 -35 0 -32 2 -35 30 -35 l30 0 0 -164 c0 -199 5 -210 91 -211 53 0 54 0
54 30 0 24 -5 31 -25 33 -48 7 -50 15 -50 168 l0 144 35 0 c33 0 35 2 35 35 0
33 -2 35 -35 35 l-34 0 -3 73 -3 73 -32 -19z"/>
<path d="M22195 5515 c-50 -18 -100 -71 -114 -122 -14 -49 -14 -137 0 -188 14
-51 73 -110 124 -124 152 -42 265 54 265 225 0 164 -128 261 -275 209z m135
-71 c46 -27 65 -71 64 -144 0 -100 -47 -160 -124 -160 -101 0 -160 124 -113
241 28 71 109 100 173 63z"/>
<path d="M22680 5523 c-8 -3 -25 -17 -37 -31 l-23 -27 0 28 c0 24 -3 27 -35
27 l-35 0 0 -220 0 -220 39 0 40 0 3 164 c3 160 4 165 28 191 22 23 31 26 67
21 39 -5 42 -4 51 24 10 27 8 29 -20 39 -33 12 -54 13 -78 4z"/>
<path d="M22939 5521 c-81 -26 -120 -90 -127 -203 -4 -69 -2 -83 23 -134 45
-92 133 -126 226 -86 l49 20 0 -34 c0 -75 -43 -114 -126 -114 -38 0 -51 5 -72
28 -15 16 -42 32 -61 35 -33 7 -33 7 -27 -25 14 -73 103 -117 206 -103 62 9
107 39 133 88 17 34 20 65 25 283 l5 244 -37 0 c-29 0 -36 -4 -36 -20 0 -25
-4 -25 -39 1 -32 23 -101 33 -142 20z m122 -84 c75 -50 79 -201 8 -261 -83
-70 -189 2 -189 129 0 124 93 192 181 132z"/>
<path d="M23401 5521 c-46 -12 -83 -41 -103 -82 l-18 -34 32 -7 c27 -5 36 -1
63 28 29 31 38 34 87 34 72 0 111 -27 106 -74 -3 -29 -6 -32 -63 -42 -33 -7
-82 -15 -108 -19 -104 -14 -159 -116 -105 -195 43 -63 147 -76 237 -31 49 26
47 26 54 1 4 -15 14 -20 42 -20 32 0 36 3 29 18 -4 9 -9 89 -11 177 -2 88 -9
173 -15 188 -6 15 -24 35 -40 43 -35 18 -141 26 -187 15z m169 -265 c0 -62
-64 -116 -137 -116 -51 0 -83 23 -83 60 0 40 27 56 125 73 44 8 83 15 88 16 4
0 7 -14 7 -33z"/>
<path d="M23900 5515 c-19 -9 -42 -23 -52 -32 -17 -15 -18 -14 -18 10 0 24 -4
27 -35 27 l-35 0 0 -220 0 -220 39 0 40 0 3 161 3 161 33 29 c39 35 97 39 133
10 23 -19 24 -24 27 -190 l3 -171 35 0 34 0 0 178 c0 189 -5 210 -50 244 -35
26 -116 32 -160 13z"/>
<path d="M24517 5515 c-82 -29 -122 -102 -122 -220 1 -125 60 -206 162 -221
88 -13 171 34 198 111 7 22 12 41 12 41 -1 1 -19 4 -39 8 -34 6 -38 5 -38 -14
0 -12 -13 -35 -29 -51 -52 -51 -148 -32 -177 36 -18 45 -18 149 1 189 39 82
165 89 195 10 8 -20 14 -23 42 -17 42 8 40 5 28 39 -33 87 -133 125 -233 89z"/>
<path d="M25380 5515 c-19 -9 -42 -23 -52 -32 -17 -15 -18 -14 -18 10 0 24 -4
27 -35 27 l-35 0 0 -220 0 -220 39 0 40 0 3 161 3 161 33 29 c39 35 97 39 133
10 23 -19 24 -24 27 -190 l3 -171 35 0 34 0 0 178 c0 189 -5 210 -50 244 -35
26 -116 32 -160 13z"/>
<path d="M26233 5519 c-138 -42 -179 -299 -65 -402 73 -66 212 -60 284 13 47
47 48 66 6 73 -26 4 -37 0 -53 -18 -28 -32 -57 -45 -104 -45 -53 0 -108 47
-120 103 l-9 37 165 0 166 0 -7 53 c-16 118 -77 185 -177 192 -30 3 -69 0 -86
-6z m135 -79 c29 -18 52 -54 52 -81 0 -5 -52 -9 -120 -9 -77 0 -120 4 -120 10
0 6 7 24 15 40 30 58 112 77 173 40z"/>
<path d="M26669 5521 c-68 -21 -99 -61 -99 -127 0 -58 46 -95 150 -123 121
-33 150 -66 94 -110 -41 -33 -117 -29 -153 7 -15 15 -30 32 -32 38 -2 7 -17 9
-36 7 -39 -6 -42 -23 -13 -70 29 -48 73 -67 155 -67 113 0 175 49 175 140 0
65 -26 89 -128 119 -112 33 -136 46 -140 72 -4 30 33 53 88 53 49 0 90 -21 90
-47 0 -11 6 -14 23 -9 12 3 30 6 39 6 14 0 15 4 7 29 -25 70 -129 109 -220 82z"/>
<path d="M27335 5515 c-50 -18 -100 -71 -114 -122 -14 -49 -14 -137 0 -188 14
-51 73 -110 124 -124 152 -42 265 54 265 225 0 164 -128 261 -275 209z m135
-71 c46 -27 65 -71 64 -144 0 -100 -47 -160 -124 -160 -101 0 -160 124 -113
241 28 71 109 100 173 63z"/>
<path d="M27830 5523 c-8 -3 -25 -17 -37 -31 l-23 -27 0 28 c0 24 -3 27 -35
27 l-35 0 0 -220 0 -220 39 0 40 0 3 164 c3 160 4 165 28 191 22 23 31 26 67
21 39 -5 42 -4 51 24 10 27 8 29 -20 39 -33 12 -54 13 -78 4z"/>
<path d="M28059 5521 c-68 -21 -99 -61 -99 -127 0 -58 46 -95 150 -123 121
-33 150 -66 94 -110 -41 -33 -117 -29 -153 7 -15 15 -30 32 -32 38 -2 7 -17 9
-36 7 -39 -6 -42 -23 -13 -70 29 -48 73 -67 155 -67 113 0 175 49 175 140 0
65 -26 89 -128 119 -112 33 -136 46 -140 72 -4 30 33 53 88 53 49 0 90 -21 90
-47 0 -11 6 -14 23 -9 12 3 30 6 39 6 14 0 15 4 7 29 -25 70 -129 109 -220 82z"/>
<path d="M24230 5300 l0 -220 35 0 35 0 0 220 0 220 -35 0 -35 0 0 -220z"/>
<path d="M25060 5300 l0 -220 35 0 35 0 0 220 0 220 -35 0 -35 0 0 -220z"/>
<path d="M25674 5483 c39 -108 135 -370 141 -385 5 -13 18 -18 44 -18 l36 0
75 207 c41 113 76 212 78 220 5 21 -64 17 -73 -4 -4 -10 -29 -81 -56 -158 -27
-77 -52 -147 -55 -155 -4 -10 -11 -1 -20 25 -8 22 -35 100 -60 173 l-46 132
-39 0 -38 0 13 -37z"/>
<path d="M22120 4380 l0 -300 40 0 40 0 0 300 0 300 -40 0 -40 0 0 -300z"/>
<path d="M25470 4645 l0 -35 100 0 100 0 0 -265 0 -265 35 0 35 0 0 265 0 265
100 0 100 0 0 35 0 35 -235 0 -235 0 0 -35z"/>
<path d="M27000 4574 l0 -106 -30 26 c-85 71 -214 25 -254 -91 -18 -53 -21
-131 -6 -184 36 -128 180 -191 261 -113 l29 28 0 -27 c0 -24 4 -27 35 -27 l35
0 0 300 0 300 -35 0 -35 0 0 -106z m-60 -129 c109 -56 76 -305 -40 -305 -90 0
-141 83 -125 203 13 95 89 142 165 102z"/>
<path d="M28760 4380 l0 -300 40 0 40 0 0 300 0 300 -40 0 -40 0 0 -300z"/>
<path d="M22460 4515 c-19 -9 -42 -23 -52 -32 -17 -15 -18 -14 -18 10 0 24 -4
27 -35 27 l-35 0 0 -220 0 -220 39 0 40 0 3 161 3 161 33 29 c39 35 97 39 133
10 23 -19 24 -24 27 -190 l3 -171 35 0 34 0 0 178 c0 189 -5 210 -50 244 -35
26 -116 32 -160 13z"/>
<path d="M22887 4515 c-82 -29 -122 -102 -122 -220 1 -125 60 -206 162 -221
88 -13 171 34 198 111 7 22 12 41 12 41 -1 1 -19 4 -39 8 -34 6 -38 5 -38 -14
0 -12 -13 -35 -29 -51 -52 -51 -148 -32 -177 36 -18 45 -18 149 1 189 39 82
165 89 195 10 8 -20 14 -23 42 -17 42 8 40 5 28 39 -33 87 -133 125 -233 89z"/>
<path d="M23330 4523 c-8 -3 -25 -17 -37 -31 l-23 -27 0 28 c0 24 -3 27 -35
27 l-35 0 0 -220 0 -220 39 0 40 0 3 164 c3 160 4 165 28 191 22 23 31 26 67
21 39 -5 42 -4 51 24 10 27 8 29 -20 39 -33 12 -54 13 -78 4z"/>
<path d="M23593 4519 c-138 -42 -179 -299 -65 -402 73 -66 212 -60 284 13 47
47 48 66 6 73 -26 4 -37 0 -53 -18 -28 -32 -57 -45 -104 -45 -53 0 -108 47
-120 103 l-9 37 165 0 166 0 -7 53 c-16 118 -77 185 -177 192 -30 3 -69 0 -86
-6z m135 -79 c29 -18 52 -54 52 -81 0 -5 -52 -9 -120 -9 -77 0 -120 4 -120 10
0 6 7 24 15 40 30 58 112 77 173 40z"/>
<path d="M24051 4521 c-46 -12 -83 -41 -103 -82 l-18 -34 32 -7 c27 -5 36 -1
63 28 29 31 38 34 87 34 72 0 111 -27 106 -74 -3 -29 -6 -32 -63 -42 -33 -7
-82 -15 -108 -19 -104 -14 -159 -116 -105 -195 43 -63 147 -76 237 -31 49 26
47 26 54 1 4 -15 14 -20 42 -20 32 0 36 3 29 18 -4 9 -9 89 -11 177 -2 88 -9
173 -15 188 -6 15 -24 35 -40 43 -35 18 -141 26 -187 15z m169 -265 c0 -62
-64 -116 -137 -116 -51 0 -83 23 -83 60 0 40 27 56 125 73 44 8 83 15 88 16 4
0 7 -14 7 -33z"/>
<path d="M24499 4521 c-68 -21 -99 -61 -99 -127 0 -58 46 -95 150 -123 121
-33 150 -66 94 -110 -41 -33 -117 -29 -153 7 -15 15 -30 32 -32 38 -2 7 -17 9
-36 7 -39 -6 -42 -23 -13 -70 29 -48 73 -67 155 -67 113 0 175 49 175 140 0
65 -26 89 -128 119 -112 33 -136 46 -140 72 -4 30 33 53 88 53 49 0 90 -21 90
-47 0 -11 6 -14 23 -9 12 3 30 6 39 6 14 0 15 4 7 29 -25 70 -129 109 -220 82z"/>
<path d="M24933 4519 c-138 -42 -179 -299 -65 -402 73 -66 212 -60 284 13 47
47 48 66 6 73 -26 4 -37 0 -53 -18 -28 -32 -57 -45 -104 -45 -53 0 -108 47
-120 103 l-9 37 165 0 166 0 -7 53 c-16 118 -77 185 -177 192 -30 3 -69 0 -86
-6z m135 -79 c29 -18 52 -54 52 -81 0 -5 -52 -9 -120 -9 -77 0 -120 4 -120 10
0 6 7 24 15 40 30 58 112 77 173 40z"/>
<path d="M26110 4523 c-8 -3 -25 -17 -37 -31 l-23 -27 0 28 c0 24 -3 27 -35
27 l-35 0 0 -220 0 -220 39 0 40 0 3 164 c3 160 4 165 28 191 22 23 31 26 67
21 39 -5 42 -4 51 24 10 27 8 29 -20 39 -33 12 -54 13 -78 4z"/>
<path d="M26371 4521 c-46 -12 -83 -41 -103 -82 l-18 -34 32 -7 c27 -5 36 -1
63 28 29 31 38 34 87 34 72 0 111 -27 106 -74 -3 -29 -6 -32 -63 -42 -33 -7
-82 -15 -108 -19 -104 -14 -159 -116 -105 -195 43 -63 147 -76 237 -31 49 26
47 26 54 1 4 -15 14 -20 42 -20 32 0 36 3 29 18 -4 9 -9 89 -11 177 -2 88 -9
173 -15 188 -6 15 -24 35 -40 43 -35 18 -141 26 -187 15z m169 -265 c0 -62
-64 -116 -137 -116 -51 0 -83 23 -83 60 0 40 27 56 125 73 44 8 83 15 88 16 4
0 7 -14 7 -33z"/>
<path d="M27303 4519 c-138 -42 -179 -299 -65 -402 73 -66 212 -60 284 13 47
47 48 66 6 73 -26 4 -37 0 -53 -18 -28 -32 -57 -45 -104 -45 -53 0 -108 47
-120 103 l-9 37 165 0 166 0 -7 53 c-16 118 -77 185 -177 192 -30 3 -69 0 -86
-6z m135 -79 c29 -18 52 -54 52 -81 0 -5 -52 -9 -120 -9 -77 0 -120 4 -120 10
0 6 7 24 15 40 30 58 112 77 173 40z"/>
<path d="M28405 4515 c-50 -18 -100 -71 -114 -122 -14 -49 -14 -137 0 -188 14
-51 73 -110 124 -124 152 -42 265 54 265 225 0 164 -128 261 -275 209z m135
-71 c46 -27 65 -71 64 -144 0 -100 -47 -160 -124 -160 -101 0 -160 124 -113
241 28 71 109 100 173 63z"/>
<path d="M29560 4519 c-14 -5 -37 -22 -52 -36 l-28 -27 0 32 c0 30 -2 32 -35
32 l-35 0 0 -220 0 -220 39 0 40 0 3 161 3 161 33 29 c43 39 92 40 121 3 19
-25 21 -40 21 -190 l0 -164 35 0 35 0 0 133 c0 72 5 149 10 169 13 46 52 78
94 78 71 0 85 -40 86 -242 l0 -138 36 0 35 0 -3 184 c-3 169 -5 187 -24 213
-47 63 -151 68 -210 9 l-32 -32 -28 34 c-23 27 -38 35 -74 38 -25 2 -56 -1
-70 -7z"/>
<path d="M30213 4519 c-138 -42 -179 -299 -65 -402 73 -66 212 -60 284 13 47
47 48 66 6 73 -26 4 -37 0 -53 -18 -28 -32 -57 -45 -104 -45 -53 0 -108 47
-120 103 l-9 37 165 0 166 0 -7 53 c-16 118 -77 185 -177 192 -30 3 -69 0 -86
-6z m135 -79 c29 -18 52 -54 52 -81 0 -5 -52 -9 -120 -9 -77 0 -120 4 -120 10
0 6 7 24 15 40 30 58 112 77 173 40z"/>
<path d="M27854 4483 c39 -108 135 -370 141 -385 5 -13 18 -18 44 -18 l36 0
75 207 c41 113 76 212 78 220 5 21 -64 17 -73 -4 -4 -10 -29 -81 -56 -158 -27
-77 -52 -147 -55 -155 -4 -10 -11 -1 -20 25 -8 22 -35 100 -60 173 l-46 132
-39 0 -38 0 13 -37z"/>
<path d="M28952 4341 c3 -163 5 -182 24 -208 52 -71 153 -81 226 -23 l38 31 0
-31 c0 -27 3 -30 30 -30 l30 0 0 220 0 220 -35 0 -35 0 0 -140 c0 -159 -11
-199 -59 -224 -44 -23 -88 -20 -116 9 -25 24 -25 27 -25 190 l0 165 -41 0 -41
0 4 -179z"/>
<path d="M22100 2380 l0 -300 40 0 40 0 1 253 1 252 83 -250 83 -250 37 0 37
0 83 250 83 250 1 -252 1 -253 40 0 40 0 0 300 0 300 -58 0 -58 0 -78 -242
c-43 -134 -81 -246 -85 -250 -3 -3 -42 106 -86 243 l-80 249 -62 0 -63 0 0
-300z"/>
<path d="M25430 2574 l0 -106 -30 26 c-85 71 -214 25 -254 -91 -18 -53 -21
-131 -6 -184 36 -128 180 -191 261 -113 l29 28 0 -27 c0 -24 4 -27 35 -27 l35
0 0 300 0 300 -35 0 -35 0 0 -106z m-60 -129 c109 -56 76 -305 -40 -305 -90 0
-141 83 -125 203 13 95 89 142 165 102z"/>
<path d="M29000 2645 c0 -33 2 -35 35 -35 33 0 35 2 35 35 0 33 -2 35 -35 35
-33 0 -35 -2 -35 -35z"/>
<path d="M26123 2647 c-31 -18 -33 -22 -33 -73 0 -53 0 -54 -30 -54 -28 0 -30
-3 -30 -35 0 -32 2 -35 30 -35 l30 0 0 -164 c0 -199 5 -210 91 -211 53 0 54 0
54 30 0 24 -5 31 -25 33 -48 7 -50 15 -50 168 l0 144 35 0 c33 0 35 2 35 35 0
33 -2 35 -35 35 l-34 0 -3 73 -3 73 -32 -19z"/>
<path d="M22885 2515 c-50 -18 -100 -71 -114 -122 -14 -49 -14 -137 0 -188 14
-51 73 -110 124 -124 152 -42 265 54 265 225 0 164 -128 261 -275 209z m135
-71 c46 -27 65 -71 64 -144 0 -100 -47 -160 -124 -160 -101 0 -160 124 -113
241 28 71 109 100 173 63z"/>
<path d="M23380 2523 c-8 -3 -25 -17 -37 -31 l-23 -27 0 28 c0 24 -3 27 -35
27 l-35 0 0 -220 0 -220 39 0 40 0 3 164 c3 160 4 165 28 191 22 23 31 26 67
21 39 -5 42 -4 51 24 10 27 8 29 -20 39 -33 12 -54 13 -78 4z"/>
<path d="M23643 2519 c-138 -42 -179 -299 -65 -402 73 -66 212 -60 284 13 47
47 48 66 6 73 -26 4 -37 0 -53 -18 -28 -32 -57 -45 -104 -45 -53 0 -108 47
-120 103 l-9 37 165 0 166 0 -7 53 c-16 118 -77 185 -177 192 -30 3 -69 0 -86
-6z m135 -79 c29 -18 52 -54 52 -81 0 -5 -52 -9 -120 -9 -77 0 -120 4 -120 10
0 6 7 24 15 40 30 58 112 77 173 40z"/>
<path d="M24830 2523 c-8 -3 -30 -19 -47 -36 l-33 -31 0 32 c0 29 -3 32 -30
32 l-30 0 0 -305 0 -305 35 0 35 0 0 106 0 105 33 -23 c46 -33 121 -31 175 4
104 69 120 271 31 373 -40 45 -117 67 -169 48z m89 -78 c40 -20 61 -71 61
-145 0 -73 -19 -119 -59 -143 -85 -50 -171 20 -171 137 0 121 83 196 169 151z"/>
<path d="M25721 2521 c-46 -12 -83 -41 -103 -82 l-18 -34 32 -7 c27 -5 36 -1
63 28 29 31 38 34 87 34 72 0 111 -27 106 -74 -3 -29 -6 -32 -63 -42 -33 -7
-82 -15 -108 -19 -104 -14 -159 -116 -105 -195 43 -63 147 -76 237 -31 49 26
47 26 54 1 4 -15 14 -20 42 -20 32 0 36 3 29 18 -4 9 -9 89 -11 177 -2 88 -9
173 -15 188 -6 15 -24 35 -40 43 -35 18 -141 26 -187 15z m169 -265 c0 -62
-64 -116 -137 -116 -51 0 -83 23 -83 60 0 40 27 56 125 73 44 8 83 15 88 16 4
0 7 -14 7 -33z"/>
<path d="M26423 2519 c-138 -42 -179 -299 -65 -402 73 -66 212 -60 284 13 47
47 48 66 6 73 -26 4 -37 0 -53 -18 -28 -32 -57 -45 -104 -45 -53 0 -108 47
-120 103 l-9 37 165 0 166 0 -7 53 c-16 118 -77 185 -177 192 -30 3 -69 0 -86
-6z m135 -79 c29 -18 52 -54 52 -81 0 -5 -52 -9 -120 -9 -77 0 -120 4 -120 10
0 6 7 24 15 40 30 58 112 77 173 40z"/>
<path d="M26859 2521 c-68 -21 -99 -61 -99 -127 0 -58 46 -95 150 -123 121
-33 150 -66 94 -110 -41 -33 -117 -29 -153 7 -15 15 -30 32 -32 38 -2 7 -17 9
-36 7 -39 -6 -42 -23 -13 -70 29 -48 73 -67 155 -67 113 0 175 49 175 140 0
65 -26 89 -128 119 -112 33 -136 46 -140 72 -4 30 33 53 88 53 49 0 90 -21 90
-47 0 -11 6 -14 23 -9 12 3 30 6 39 6 14 0 15 4 7 29 -25 70 -129 109 -220 82z"/>
<path d="M27527 2515 c-82 -29 -122 -102 -122 -220 1 -125 60 -206 162 -221
88 -13 171 34 198 111 7 22 12 41 12 41 -1 1 -19 4 -39 8 -34 6 -38 5 -38 -14
0 -12 -13 -35 -29 -51 -52 -51 -148 -32 -177 36 -18 45 -18 149 1 189 39 82
165 89 195 10 8 -20 14 -23 42 -17 42 8 40 5 28 39 -33 87 -133 125 -233 89z"/>
<path d="M27935 2515 c-50 -18 -100 -71 -114 -122 -14 -49 -14 -137 0 -188 14
-51 73 -110 124 -124 152 -42 265 54 265 225 0 164 -128 261 -275 209z m135
-71 c46 -27 65 -71 64 -144 0 -100 -47 -160 -124 -160 -101 0 -160 124 -113
241 28 71 109 100 173 63z"/>
<path d="M28450 2519 c-14 -5 -37 -22 -52 -36 l-28 -27 0 32 c0 30 -2 32 -35
32 l-35 0 0 -220 0 -220 39 0 40 0 3 161 3 161 33 29 c43 39 92 40 121 3 19
-25 21 -40 21 -190 l0 -164 35 0 35 0 0 133 c0 72 5 149 10 169 13 46 52 78
94 78 71 0 85 -40 86 -242 l0 -138 36 0 35 0 -3 184 c-3 169 -5 187 -24 213
-47 63 -151 68 -210 9 l-32 -32 -28 34 c-23 27 -38 35 -74 38 -25 2 -56 -1
-70 -7z"/>
<path d="M29320 2515 c-19 -9 -42 -23 -52 -32 -17 -15 -18 -14 -18 10 0 24 -4
27 -35 27 l-35 0 0 -220 0 -220 39 0 40 0 3 161 3 161 33 29 c39 35 97 39 133
10 23 -19 24 -24 27 -190 l3 -171 35 0 34 0 0 178 c0 189 -5 210 -50 244 -35
26 -116 32 -160 13z"/>
<path d="M29749 2521 c-81 -26 -120 -90 -127 -203 -4 -69 -2 -83 23 -134 45
-92 133 -126 226 -86 l49 20 0 -34 c0 -75 -43 -114 -126 -114 -38 0 -51 5 -72
28 -15 16 -42 32 -61 35 -33 7 -33 7 -27 -25 14 -73 103 -117 206 -103 62 9
107 39 133 88 17 34 20 65 25 283 l5 244 -37 0 c-29 0 -36 -4 -36 -20 0 -25
-4 -25 -39 1 -32 23 -101 33 -142 20z m122 -84 c75 -50 79 -201 8 -261 -83
-70 -189 2 -189 129 0 124 93 192 181 132z"/>
<path d="M24222 2341 c3 -163 5 -182 24 -208 52 -71 153 -81 226 -23 l38 31 0
-31 c0 -27 3 -30 30 -30 l30 0 0 220 0 220 -35 0 -35 0 0 -140 c0 -159 -11
-199 -59 -224 -44 -23 -88 -20 -116 9 -25 24 -25 27 -25 190 l0 165 -41 0 -41
0 4 -179z"/>
<path d="M29000 2300 l0 -220 35 0 35 0 0 220 0 220 -35 0 -35 0 0 -220z"/>
<path d="M30130 2115 c0 -34 1 -35 40 -35 39 0 40 1 40 35 0 34 -1 35 -40 35
-39 0 -40 -1 -40 -35z"/>
<path d="M30370 2115 c0 -34 1 -35 40 -35 39 0 40 1 40 35 0 34 -1 35 -40 35
-39 0 -40 -1 -40 -35z"/>
</g>
</svg>
