<svg width="19" height="18" viewBox="0 0 19 18" fill="none" xmlns="http://www.w3.org/2000/svg">
<path d="M18.393 8.99775C18.393 13.9671 14.4115 17.9955 9.49997 17.9955C4.58848 17.9955 0.606934 13.9671 0.606934 8.99775C0.606934 4.02843 4.58848 0 9.49997 0C14.4115 0 18.393 4.02843 18.393 8.99775Z" fill="white"/>
<path d="M0.606934 9.89797C0.606934 9.31283 0.606934 8.72768 0.606934 8.14254C0.65587 8.11553 0.646972 8.06602 0.651421 8.02551C0.664767 7.68792 0.731498 7.35934 0.807127 7.03526C1.27425 5.01425 2.28856 3.33083 3.88121 2.0165C5.07792 1.03076 6.43924 0.418605 7.95181 0.135034C8.22763 0.0810203 8.5168 0.0945236 8.78372 0.00450113C9.2286 0.00450113 9.67347 0.00450113 10.1183 0.00450113C10.1317 0.0540135 10.1673 0.0495124 10.2029 0.0495124C10.6122 0.0540135 11.0081 0.130533 11.3996 0.225056C14.5626 0.99925 16.7069 2.93923 17.8636 6.0045C18.0371 6.46362 17.9659 6.89122 17.6634 7.28282C17.0495 8.08852 16.3332 8.7907 15.5636 9.43436C15.2655 9.68192 14.963 9.93398 14.6116 10.1635C14.6116 10.06 14.6116 9.988 14.6116 9.91598C14.6116 8.20105 14.6116 6.48162 14.6116 4.76669C14.6116 4.28957 14.2957 3.96999 13.8242 3.96099C13.4327 3.95649 13.0367 3.95649 12.6452 3.96099C12.1648 3.96999 11.8534 4.29857 11.8534 4.7847C11.8534 6.94524 11.8534 9.10128 11.8578 11.2618C11.8578 11.5139 11.7777 11.7254 11.5731 11.8605C11.3506 12.0045 11.0971 12.09 10.8346 12.171C10.8346 12.1215 10.8346 12.09 10.8346 12.0585C10.8346 10.2536 10.8346 8.44411 10.8301 6.63916C10.8301 6.19355 10.5276 5.89647 10.0917 5.89197C9.67792 5.88747 9.25974 5.90548 8.84601 5.88747C8.37444 5.86497 8.05858 6.31058 8.06303 6.69767C8.08082 8.64666 8.07193 10.5956 8.07193 12.5446C8.07193 12.9002 7.90732 13.1388 7.58701 13.2288C7.41351 13.2783 7.24001 13.3188 7.04871 13.3683C7.04871 13.2738 7.04871 13.2018 7.04871 13.1253C7.04871 11.6174 7.04871 10.114 7.04871 8.60615C7.04871 8.11103 6.74175 7.79595 6.25239 7.79145C5.86535 7.78695 5.48276 7.78695 5.09572 7.79145C4.60635 7.78695 4.29939 8.10653 4.29939 8.61515C4.29939 10.168 4.29939 11.7164 4.29939 13.2693C4.29939 13.6429 4.0903 13.8995 3.73885 13.949C3.43189 13.994 3.12492 14.03 2.81796 14.0525C2.39533 14.0795 2.03943 13.913 1.81699 13.5484C1.30984 12.7202 0.980628 11.82 0.784883 10.8702C0.718152 10.5461 0.664767 10.2221 0.606934 9.89797Z" fill="#13151C"/>
<path d="M8.83266 17.9955C8.47676 17.937 8.12086 17.8875 7.76941 17.8155C6.54601 17.5724 5.42492 17.0908 4.41061 16.3661C4.38392 16.3481 4.36167 16.3121 4.32608 16.2716C4.85548 16.1725 5.37154 16.0825 5.87869 15.979C7.75606 15.5964 9.57115 15.0113 11.3062 14.1965C12.9033 13.4494 14.398 12.5266 15.7327 11.3608C16.6891 10.5236 17.5389 9.5919 18.264 8.54764C18.2951 8.50262 18.3129 8.43061 18.393 8.46211C18.393 9.00225 18.393 9.54238 18.393 10.0825C18.3085 10.1095 18.3218 10.186 18.3129 10.2491C18.2729 10.4786 18.2462 10.7082 18.1928 10.9332C17.6901 13.0938 16.5824 14.8537 14.8296 16.195C13.7129 17.0503 12.4628 17.5949 11.0837 17.847C10.7634 17.9055 10.4342 17.8965 10.1228 18C9.69127 17.9955 9.26419 17.9955 8.83266 17.9955Z" fill="#EFB80E"/>
</svg>
