<svg width="18" height="18" viewBox="0 0 18 18" fill="none" xmlns="http://www.w3.org/2000/svg">
<g clip-path="url(#clip0_412_948)">
<path d="M17.8463 10.3748C17.9138 10.9345 17.8739 11.497 17.8909 12.0581C17.93 13.3589 17.4305 14.4363 16.5349 15.3482C15.7049 16.193 14.6999 16.7657 13.6043 17.1879C12.5017 17.6139 11.3563 17.8547 10.1796 17.9499C8.44275 18.0915 6.73606 17.9419 5.06663 17.4242C3.93921 17.0744 2.88939 16.5695 1.97095 15.8168C1.20628 15.1904 0.605308 14.4425 0.294678 13.4877C0.175071 13.1294 0.112203 12.7547 0.108349 12.377C0.106462 11.8897 0.108349 11.4024 0.106934 10.9147C0.110616 10.7341 0.124712 10.5538 0.149152 10.3748C0.363786 9.15491 1.04071 8.22232 1.97378 7.45176C2.52829 6.99372 3.14294 6.6312 3.7984 6.33802C3.89275 6.29533 3.92011 6.25241 3.89888 6.14509C3.68 5.03654 3.46112 3.92799 3.25545 2.81543C3.02336 1.56041 3.95006 0.264119 5.22347 0.044768C6.61741 -0.195339 7.88871 0.717679 8.0991 2.1128C8.11676 2.24522 8.12464 2.37877 8.12268 2.51235C8.12481 3.4006 8.12599 4.28862 8.12127 5.17758C8.12127 5.2875 8.15429 5.30589 8.255 5.29905C8.75328 5.2678 9.25303 5.2678 9.75131 5.29905C9.9065 5.30825 9.9065 5.30872 9.9065 5.15754C9.9065 4.26126 9.8966 3.36499 9.90981 2.46872C9.92396 1.49484 10.3622 0.752353 11.2186 0.290064C12.718 -0.51894 14.5678 0.455166 14.7867 2.14582C14.8398 2.55787 14.7527 2.95082 14.6761 3.34871C14.4931 4.29688 14.3087 5.24465 14.123 6.19202C14.1077 6.2708 14.1256 6.30995 14.2022 6.34415C15.0447 6.72861 15.8207 7.21472 16.4793 7.87277C17.1706 8.56338 17.6616 9.36578 17.8319 10.3429C17.8355 10.3541 17.8404 10.3647 17.8463 10.3748ZM17.1349 11.2739C17.1502 11.0347 17.1398 10.7946 17.1041 10.5576C16.9861 9.75731 16.6007 9.09524 16.0521 8.51715C15.303 7.72913 14.3839 7.20411 13.3812 6.81352C13.2715 6.77083 13.2553 6.72224 13.2763 6.61587C13.5267 5.34457 13.7768 4.07304 14.0183 2.8001C14.144 2.13969 13.9518 1.57173 13.4312 1.14388C12.9265 0.729001 12.3481 0.642677 11.7363 0.87618C11.0783 1.12714 10.6598 1.75382 10.6582 2.47508C10.6557 3.65014 10.6557 4.82521 10.6582 6.00027C10.6582 6.10476 10.6346 6.13094 10.5249 6.1182C10.2053 6.08235 9.8841 6.05145 9.56262 6.03966C8.87508 6.01418 8.18731 6.02621 7.50378 6.1123C7.37807 6.12811 7.37076 6.08211 7.37099 5.98376C7.37304 4.81656 7.37304 3.64936 7.37099 2.48216C7.36887 1.40993 6.47047 0.62994 5.41075 0.776175C4.50245 0.901417 3.83048 1.81396 3.99794 2.71024C4.24135 4.00276 4.49144 5.2941 4.74822 6.58426C4.7718 6.70856 4.74822 6.75904 4.62698 6.80479C3.97738 7.04506 3.36242 7.37023 2.79811 7.77182C2.10845 8.26713 1.52658 8.8582 1.16053 9.63796C0.902494 10.1875 0.815697 10.7675 0.85603 11.3699C0.85603 11.6961 0.85603 12.0223 0.85603 12.3485C0.858848 12.6159 0.898531 12.8817 0.97396 13.1384C1.20393 13.9356 1.68154 14.5682 2.29478 15.1064C3.17573 15.8796 4.20809 16.3753 5.31876 16.7152C7.05423 17.2464 8.82579 17.365 10.6231 17.1483C11.7847 17.0082 12.905 16.7157 13.9657 16.2161C14.8603 15.7951 15.6684 15.2536 16.2991 14.4778C16.7738 13.8936 17.0845 13.2365 17.1246 12.4758C17.1479 12.0754 17.1335 11.6737 17.1349 11.2727V11.2739Z" fill="#6D3E24"/>
<path d="M0.857896 11.3692C0.817563 10.7668 0.905069 10.1868 1.16239 9.63726C1.52845 8.85751 2.11032 8.26644 2.79998 7.77113C3.36428 7.36953 3.97924 7.04437 4.62885 6.8041C4.75055 6.75834 4.77461 6.70787 4.75008 6.58357C4.49582 5.29309 4.24573 4.00175 3.9998 2.70954C3.83116 1.81327 4.50431 0.899778 5.41262 0.775479C6.47234 0.629245 7.37026 1.40924 7.37286 2.48146C7.37537 3.64866 7.37537 4.81586 7.37286 5.98306C7.37286 6.08142 7.37993 6.12741 7.50565 6.11161C8.18965 6.02552 8.87695 6.01349 9.56448 6.03896C9.88596 6.05076 10.2072 6.08165 10.5268 6.1175C10.6372 6.12977 10.6603 6.10359 10.6601 5.99957C10.6571 4.82451 10.6571 3.64945 10.6601 2.47439C10.6617 1.75313 11.0801 1.12644 11.7382 0.875484C12.35 0.641981 12.9283 0.728306 13.4331 1.14319C13.9536 1.57104 14.1459 2.13781 14.0201 2.7994C13.7786 4.07306 13.5286 5.34388 13.2781 6.61517C13.2571 6.72154 13.2734 6.77013 13.3831 6.81282C14.3857 7.20341 15.3049 7.72844 16.054 8.51645C16.6026 9.09337 16.9885 9.75661 17.1059 10.5569C17.1417 10.7939 17.152 11.034 17.1368 11.2732C17.1307 11.2917 17.1258 11.3105 17.122 11.3296C17.0394 11.9553 16.8012 12.5169 16.424 13.0207C15.858 13.7755 15.1228 14.3241 14.2947 14.7552C12.9566 15.452 11.5193 15.793 10.0256 15.9109C9.20658 15.9751 8.38336 15.9623 7.56674 15.8727C6.40724 15.7458 5.28478 15.4767 4.21751 15.0033C3.28067 14.588 2.43133 14.0458 1.75959 13.258C1.32372 12.7464 1.01852 12.169 0.901059 11.5003C0.890445 11.4548 0.905304 11.4017 0.857896 11.3692ZM11.2068 10.6343C11.2186 10.9913 11.2919 11.3418 11.5226 11.6395C11.8615 12.0782 12.3502 12.0768 12.7019 11.672C12.9335 11.4058 13.0283 11.0836 13.0489 10.7402C13.0736 10.3293 12.9939 9.94035 12.7404 9.60471C12.3962 9.14974 11.8646 9.15186 11.5193 9.60471C11.2908 9.90638 11.2146 10.255 11.2068 10.6343ZM4.94184 10.6107C4.94184 11.0446 5.06991 11.4324 5.29563 11.6831C5.65343 12.0798 6.13671 12.0605 6.46409 11.6374C6.66103 11.3831 6.75302 11.089 6.77519 10.7746C6.8075 10.3175 6.72566 9.88515 6.40795 9.53372C6.0643 9.15304 5.59093 9.17592 5.27204 9.57688C5.03241 9.87949 4.94325 10.2333 4.94231 10.6107H4.94184Z" fill="#D58B4C"/>
<path d="M0.857916 11.3693C0.905088 11.4018 0.890465 11.4549 0.898013 11.499C1.01594 12.1676 1.32068 12.745 1.75655 13.2566C2.42828 14.0453 3.27762 14.5876 4.21446 15.002C5.28268 15.4754 6.40514 15.7445 7.56369 15.8714C8.38031 15.961 9.20354 15.9738 10.0225 15.9096C11.5165 15.7917 12.9538 15.4506 14.2916 14.7539C15.1198 14.3227 15.8556 13.7746 16.421 13.0193C16.7984 12.5155 17.0364 11.954 17.1189 11.3282C17.1227 11.3091 17.1277 11.2903 17.1338 11.2719C17.1324 11.6728 17.1467 12.0738 17.1257 12.4747C17.0854 13.2354 16.7748 13.8925 16.3002 14.4767C15.6695 15.2525 14.8615 15.794 13.9669 16.215C12.9055 16.7146 11.7858 17.0071 10.6242 17.1472C8.82697 17.3639 7.05541 17.2453 5.31994 16.7141C4.20927 16.3742 3.17691 15.8785 2.29596 15.1053C1.68272 14.5671 1.20463 13.9345 0.97514 13.1373C0.899711 12.8807 0.860027 12.6148 0.857209 12.3474C0.856973 12.0217 0.858152 11.6957 0.857916 11.3693Z" fill="#FBDD92"/>
<path d="M11.2068 10.6343C11.2141 10.255 11.2903 9.90639 11.5191 9.60567C11.8644 9.15187 12.396 9.14975 12.7401 9.60567C12.9937 9.9413 13.0734 10.3302 13.0486 10.7411C13.0281 11.0845 12.9333 11.4067 12.7017 11.673C12.3502 12.0777 11.8615 12.0791 11.5224 11.6404C11.2924 11.3418 11.2191 10.9914 11.2068 10.6343Z" fill="#6D3E24"/>
<path d="M4.94238 10.6108C4.94238 10.2313 5.03248 9.87958 5.27259 9.57697C5.59147 9.17601 6.06485 9.15242 6.4085 9.53381C6.7262 9.88524 6.80805 10.3176 6.77573 10.7747C6.75356 11.0891 6.66157 11.3832 6.46463 11.6375C6.13725 12.0604 5.65398 12.0799 5.29617 11.6832C5.07046 11.4334 4.94262 11.0457 4.94238 10.6108Z" fill="#6D3E24"/>
</g>
<defs>
<clipPath id="clip0_412_948">
<rect width="17.7861" height="18" fill="white" transform="translate(0.106934)"/>
</clipPath>
</defs>
</svg>
