<svg width="19" height="18" viewBox="0 0 19 18" fill="none" xmlns="http://www.w3.org/2000/svg">
<g clip-path="url(#clip0_417_955)">
<path d="M8.21643 17.9868C7.67993 17.9727 7.14522 17.9341 6.6114 17.8814C5.96281 17.8173 5.31866 17.7216 4.67985 17.5968C4.07218 17.4783 3.4743 17.3255 2.90133 17.0874C2.36484 16.8644 1.87195 16.5728 1.45468 16.1661C0.965338 15.6901 0.651272 15.121 0.540059 14.45C0.440412 13.8484 0.526714 13.267 0.767823 12.7084C0.977794 12.221 1.28919 11.8064 1.70735 11.4718C1.8497 11.3577 1.99117 11.2417 2.14953 11.1486C2.15576 11.1355 2.14598 11.1267 2.13975 11.1179C1.89864 10.7815 1.76518 10.4056 1.70379 9.99986C1.52496 8.81948 2.10594 7.46432 3.03123 6.73887C3.38533 6.46134 3.78125 6.27252 4.22343 6.18118C4.23767 6.17854 4.2519 6.17151 4.26614 6.17064C4.2955 6.16888 4.30351 6.15571 4.30618 6.12672C4.33732 5.78508 4.4076 5.45046 4.48501 5.1176C4.52326 4.95512 4.60245 4.80582 4.67985 4.65739C4.91473 4.20948 5.21634 3.80811 5.58023 3.45593C6.46994 2.59698 7.41302 1.80303 8.48067 1.16278C9.14172 0.766685 9.83747 0.448753 10.5848 0.244996C10.9629 0.141361 11.3473 0.0746134 11.737 0.0368481C12.0235 0.00874371 12.31 -0.00706502 12.5982 0.0043524C12.8206 0.013135 13.0413 0.0368481 13.2539 0.107109C13.31 0.125553 13.3643 0.148388 13.4159 0.17737C13.6418 0.302084 13.7201 0.495301 13.6481 0.741215C13.616 0.851876 13.5538 0.943216 13.4683 1.01787C13.407 1.07232 13.3402 1.1215 13.2744 1.17244C12.7254 1.59489 12.3945 2.14468 12.2957 2.82446C12.2272 3.29608 12.3375 3.73609 12.5653 4.15063C12.7806 4.54146 13.0751 4.86729 13.415 5.15536C13.6605 5.36351 13.9248 5.54619 14.2015 5.71218C14.5831 5.94229 14.9719 6.16098 15.3376 6.41655C15.6535 6.63699 15.9471 6.88115 16.1891 7.1824C16.5174 7.59167 16.6917 8.05802 16.7229 8.57796C16.738 8.82738 16.722 9.07417 16.6677 9.31921C16.6419 9.4369 16.5921 9.54668 16.5449 9.65646C16.4925 9.77678 16.4382 9.89711 16.3812 10.0166C16.3261 10.1334 16.2656 10.2467 16.1908 10.3529C16.2086 10.3837 16.2416 10.3933 16.2682 10.41C16.9275 10.8149 17.4578 11.3445 17.8332 12.0181C18.1473 12.5828 18.3101 13.1862 18.2852 13.8344C18.2621 14.4175 18.0824 14.9524 17.7727 15.4469C17.3955 16.0485 16.8768 16.4999 16.2558 16.8442C15.7389 17.1305 15.1855 17.3263 14.6134 17.4721C14.149 17.5907 13.6774 17.6759 13.2014 17.7409C12.6845 17.8111 12.1658 17.8594 11.6462 17.9007C11.1444 17.9402 10.6418 17.9727 10.1382 17.9868C10.091 17.9762 10.0439 17.9833 9.99672 17.985C9.94334 17.9868 9.88729 17.9701 9.83658 18.0017C9.36237 18.0017 8.88815 18.0017 8.41394 18.0017C8.34899 17.9719 8.28226 17.9806 8.21643 17.9868ZM9.19332 1.91721V1.91457C9.0999 1.94619 9.0225 2.00591 8.93976 2.05685C8.29828 2.44856 7.70929 2.90965 7.14878 3.40499C6.78222 3.72819 6.41922 4.05578 6.09715 4.42377C5.86761 4.68549 5.66742 4.96742 5.52507 5.28535C5.41119 5.53917 5.34624 5.80352 5.33912 6.08105C5.33734 6.1601 5.33912 6.16185 5.41742 6.17854C5.56155 6.2084 5.70657 6.23826 5.85159 6.26461C6.03487 6.29711 6.21548 6.33926 6.40054 6.36298C6.52688 6.40162 6.65588 6.43324 6.77955 6.48154C6.96817 6.55532 7.14344 6.64841 7.26711 6.81616C7.39256 6.98654 7.40057 7.18064 7.28669 7.35541C7.17636 7.52492 6.94415 7.63031 6.76087 7.59606C6.64788 7.57498 6.53755 7.54336 6.42723 7.50999C6.19858 7.44148 5.97526 7.35629 5.74483 7.29306C5.62294 7.24827 5.4966 7.2184 5.36937 7.19118C5.15495 7.14463 4.93698 7.11916 4.71811 7.13673C4.40315 7.1622 4.11311 7.26495 3.84709 7.43446C3.40758 7.7155 3.08728 8.0993 2.87108 8.56654C2.68958 8.95912 2.60506 9.36927 2.66734 9.80138C2.71183 10.107 2.83105 10.3793 3.03657 10.6129C3.17091 10.7657 3.12198 10.7438 3.31949 10.7016C3.53569 10.6559 3.74477 10.576 3.96898 10.569C3.99567 10.5699 4.02236 10.5725 4.04905 10.5716C4.34888 10.5611 4.64604 10.5865 4.93965 10.6428C5.14962 10.6832 5.35336 10.7402 5.54286 10.8412C5.64874 10.8974 5.74127 10.9686 5.80889 11.0687C5.92366 11.2391 5.94501 11.4156 5.83202 11.5957C5.71992 11.7748 5.55977 11.8556 5.34357 11.8223C5.24659 11.8073 5.15406 11.7783 5.06154 11.7459C4.89516 11.6861 4.73235 11.6132 4.5544 11.5913C4.53483 11.586 4.51437 11.579 4.49479 11.5755C4.25813 11.5412 4.02236 11.5535 3.78837 11.6001C3.32216 11.6932 2.90133 11.8881 2.52232 12.1692C2.16377 12.4353 1.87284 12.7576 1.68511 13.1642C1.48137 13.6051 1.45023 14.0592 1.5908 14.5229C1.71358 14.926 1.95113 15.2571 2.26431 15.5373C2.63353 15.8693 3.06326 16.1003 3.53213 16.2628C4.07485 16.4507 4.63003 16.5912 5.1941 16.6975C5.49482 16.7581 5.7991 16.8038 6.10249 16.8468C6.44769 16.8951 6.79468 16.9302 7.14166 16.9619C7.4068 16.9864 7.67193 17.0014 7.93795 17.0145C8.17105 17.026 8.40504 17.033 8.63904 17.0356C9.28763 17.0409 9.93622 17.0488 10.5839 17.0058C10.8286 16.9891 11.0733 16.9724 11.3179 16.9522C11.5537 16.9329 11.7886 16.9083 12.0235 16.8811C12.3669 16.8407 12.7085 16.795 13.0502 16.7405C13.5315 16.665 14.0111 16.5781 14.4862 16.4727C14.6214 16.4428 14.7584 16.4191 14.8874 16.3664C14.9017 16.3655 14.9177 16.3664 14.931 16.362C15.2522 16.268 15.5654 16.1565 15.8625 16.0019C16.2104 15.821 16.5129 15.5874 16.7603 15.2852C17.0957 14.876 17.2807 14.4061 17.3217 13.8835C17.3457 13.5814 17.3048 13.2837 17.2096 12.9947C17.0503 12.5108 16.7656 12.1095 16.3919 11.7634C16.0867 11.4806 15.7424 11.2567 15.3652 11.0819C15.101 10.9589 14.8198 10.8939 14.5315 10.8553C14.5031 10.8483 14.4746 10.8412 14.4452 10.8351C14.2629 10.7991 14.0796 10.7666 13.9016 10.7121C13.7317 10.6603 13.5653 10.6006 13.4363 10.4697C13.1943 10.2229 13.2477 9.87164 13.5547 9.71355C13.7655 9.60464 13.9862 9.60025 14.2104 9.66085C14.3474 9.69774 14.4808 9.74517 14.6161 9.78732C14.8243 9.87339 15.0449 9.91731 15.2611 9.97439C15.2949 9.98318 15.318 9.97088 15.3341 9.94102C15.3447 9.91994 15.3563 9.89974 15.367 9.87866C15.4613 9.68632 15.5423 9.48871 15.6143 9.28759C15.7264 8.97844 15.7487 8.66139 15.6828 8.33995C15.6116 7.9904 15.4186 7.71199 15.1534 7.47925C14.9604 7.30974 14.7451 7.16922 14.5218 7.04187C14.1685 6.83987 13.8118 6.64314 13.4683 6.42358C13.0653 6.16537 12.6819 5.88169 12.342 5.54356C12.0137 5.21684 11.7432 4.85149 11.5519 4.42992C11.358 4.00308 11.2681 3.55341 11.2459 3.08881C11.2352 2.87276 11.2476 2.65759 11.2752 2.44241C11.3055 2.20967 11.3535 1.9822 11.4398 1.76351C11.551 1.48159 11.7067 1.22953 11.9621 1.04949C11.9692 1.04509 11.9772 1.03895 11.9701 1.0205C11.9452 1.0205 11.9167 1.01875 11.8882 1.0205C11.7201 1.03104 11.5537 1.05212 11.3882 1.08286C11.2726 1.10482 11.1551 1.11711 11.0439 1.15927C11.0208 1.16366 10.9968 1.16629 10.9745 1.17244C10.5528 1.28047 10.1453 1.42977 9.75295 1.61596C9.56967 1.70379 9.38639 1.79337 9.21289 1.89964C9.20311 1.9014 9.1951 1.90579 9.19332 1.91721Z" fill="#010101"/>
<path d="M8.21647 17.9868C8.28231 17.9806 8.34904 17.9718 8.41221 18C8.34726 18 8.28142 18 8.21647 18C8.21202 17.9956 8.21202 17.9912 8.21647 17.9868Z" fill="#926747"/>
<path d="M9.83569 18C9.88641 17.9684 9.94157 17.9851 9.99584 17.9833C9.99495 17.9886 9.99495 17.9939 9.99584 18C9.94246 18 9.88908 18 9.83569 18Z" fill="#6B4B32"/>
<path d="M9.99578 17.9999C9.99489 17.9946 9.99489 17.9893 9.99578 17.9832C10.0429 17.9814 10.0901 17.9744 10.1372 17.9849C10.1364 17.9902 10.1364 17.9946 10.1381 17.9999C10.0901 17.9999 10.0429 17.9999 9.99578 17.9999Z" fill="#926747"/>
<path d="M4.55345 11.5913C4.73139 11.6133 4.89421 11.6862 5.06058 11.7459C5.15222 11.7784 5.24475 11.8074 5.34262 11.8223C5.55792 11.8557 5.71896 11.7749 5.83106 11.5957C5.94317 11.4165 5.9227 11.24 5.80793 11.0687C5.7412 10.9686 5.64779 10.8975 5.54191 10.8413C5.3524 10.7403 5.14777 10.6832 4.93869 10.6428C4.6442 10.5857 4.34793 10.5611 4.0481 10.5716C4.02141 10.5725 3.99471 10.5699 3.96802 10.569C3.98849 10.5435 4.02763 10.5681 4.0481 10.5418C4.05166 10.5198 4.03831 10.5031 4.02763 10.4856C3.84702 10.1949 3.77229 9.87518 3.75272 9.53969C3.74916 9.48348 3.7714 9.4299 3.77051 9.37545C3.76784 9.27269 3.79008 9.17257 3.8141 9.07421C3.87372 8.82829 3.98493 8.60346 4.12016 8.38916C4.22337 8.22493 4.34437 8.07387 4.48138 7.93773C4.58815 7.83146 4.70648 7.73486 4.8346 7.64791C5.04368 7.50563 5.26877 7.40375 5.51344 7.33876C5.58995 7.31856 5.67003 7.31856 5.74476 7.29309C5.9752 7.35632 6.19851 7.44152 6.42717 7.51002C6.53749 7.54339 6.64781 7.57501 6.76081 7.59609C6.94408 7.63034 7.17541 7.52495 7.28662 7.35545C7.4005 7.18067 7.39249 6.98658 7.26705 6.81619C7.14338 6.64844 6.96811 6.55535 6.77949 6.48157C6.65582 6.43327 6.52681 6.40253 6.40047 6.36301C6.41293 6.35335 6.42094 6.34193 6.42094 6.32612C6.41916 6.19702 6.44585 6.0723 6.47521 5.94759C6.51881 5.75876 6.5882 5.58048 6.68251 5.41097C6.73144 5.32402 6.78572 5.24147 6.83554 5.1554C6.96188 4.93495 7.09533 4.7189 7.22612 4.50109C7.33555 4.31841 7.45299 4.14013 7.56599 3.9592C7.68076 3.77653 7.80354 3.59736 7.92988 3.42259C8.07757 3.21971 8.22615 3.01771 8.38629 2.82361C8.55712 2.61546 8.73328 2.41258 8.91923 2.21761C8.99396 2.13856 9.07404 2.06479 9.15144 1.9875C9.1719 1.9673 9.19859 1.94974 9.19326 1.91461V1.91724C9.19948 1.91109 9.2066 1.90583 9.21283 1.89968C9.38632 1.79341 9.56871 1.70382 9.75288 1.616C10.1452 1.42893 10.5527 1.2805 10.9744 1.17248C10.9976 1.16633 11.0207 1.16369 11.0438 1.1593C11.0447 1.19355 11.0234 1.2199 11.0091 1.24801C10.9549 1.3613 10.8935 1.47196 10.8454 1.58789C10.6924 1.95676 10.5928 2.34057 10.5687 2.73754C10.5509 3.01858 10.5501 3.30226 10.5963 3.58419C10.6372 3.83449 10.6924 4.08128 10.776 4.32105C10.865 4.57838 10.9798 4.82341 11.1141 5.06142C11.2912 5.37496 11.5207 5.64635 11.7681 5.90543C11.9122 6.05562 12.0732 6.18911 12.228 6.32876C12.3917 6.47631 12.5643 6.61244 12.7263 6.76174C12.7823 6.81356 12.8402 6.86274 12.898 6.9128C13.011 7.01029 13.1266 7.10514 13.2405 7.20263C13.3411 7.2887 13.4425 7.37301 13.543 7.4582C13.6533 7.5513 13.7485 7.65845 13.8615 7.74891C13.9033 7.78228 13.9309 7.83586 13.9736 7.87186C14.0386 7.92807 14.0911 7.9957 14.1436 8.06245C14.318 8.28465 14.463 8.52441 14.5457 8.79668C14.5751 8.89153 14.5946 8.98814 14.6133 9.08562C14.6516 9.28323 14.6845 9.48084 14.6738 9.68284C14.6712 9.72676 14.6747 9.7733 14.616 9.78648C14.4808 9.74344 14.3473 9.69602 14.2103 9.66001C13.9861 9.60029 13.7654 9.6038 13.5546 9.7127C13.2476 9.87167 13.1943 10.223 13.4363 10.4689C13.5653 10.6006 13.7316 10.6595 13.9016 10.7113C14.0795 10.7657 14.2628 10.7982 14.4452 10.8342C14.4736 10.8395 14.503 10.8474 14.5315 10.8544C14.5075 10.8913 14.5404 10.9071 14.56 10.9265C14.7005 11.0644 14.8331 11.2093 14.9621 11.3577C15.1089 11.5254 15.2441 11.7011 15.3705 11.8846C15.5173 12.0981 15.6436 12.322 15.7406 12.5609C15.7869 12.6742 15.8242 12.7901 15.8598 12.9078C15.9221 13.116 15.9577 13.3259 15.9737 13.5411C15.9799 13.6219 15.9897 13.7018 15.9737 13.7826C15.9666 13.8212 15.9701 13.8634 15.9844 13.9038C15.9959 13.9371 15.995 13.974 15.9835 14.0074C15.9746 14.0329 15.971 14.0583 15.9728 14.0847C15.9799 14.1611 15.9612 14.2358 15.9497 14.3104C15.915 14.5326 15.8598 14.7495 15.7788 14.9603C15.7148 15.1263 15.6427 15.2888 15.5529 15.4442C15.4523 15.6199 15.3313 15.7815 15.213 15.9449C15.1187 16.0748 15.0279 16.2092 14.9087 16.3199C14.8954 16.3322 14.8874 16.3471 14.8865 16.3664C14.7575 16.4191 14.6196 16.442 14.4852 16.4727C14.0092 16.5781 13.5306 16.665 13.0492 16.7406C12.7076 16.7941 12.3659 16.8407 12.0225 16.8811C11.7876 16.9083 11.5528 16.9329 11.317 16.9522C11.0723 16.9724 10.8276 16.9891 10.583 17.0058C9.93527 17.0497 9.28667 17.0418 8.63808 17.0357C8.40409 17.0339 8.1701 17.0269 7.93699 17.0146C7.67097 17.0014 7.40584 16.9865 7.14071 16.9619C6.79372 16.9294 6.44674 16.8951 6.10153 16.8468C5.79726 16.8038 5.49387 16.7581 5.19315 16.6975C5.19048 16.6642 5.16023 16.6598 5.13798 16.6475C5.09172 16.6211 5.04279 16.6018 4.9983 16.5719C4.88264 16.4955 4.77676 16.4086 4.67089 16.3199C4.51163 16.1864 4.35593 16.0467 4.20469 15.9045C3.99916 15.7121 3.79186 15.5207 3.61748 15.2976C3.4431 15.0745 3.29007 14.8409 3.18686 14.5783C3.08811 14.3297 3.04896 14.068 3.02494 13.8045C3.01248 13.6675 3.03028 13.5305 3.04629 13.3953C3.06853 13.2047 3.11836 13.0185 3.18775 12.8384C3.25537 12.6637 3.34701 12.5012 3.45644 12.3475C3.53385 12.2386 3.62816 12.1472 3.72247 12.055C3.8835 11.8961 4.07568 11.7854 4.28387 11.6958C4.37195 11.6563 4.46893 11.6414 4.55345 11.5913ZM9.56782 14.2805C9.65323 14.2858 9.79203 14.2735 9.92993 14.2551C10.2182 14.2164 10.4993 14.1462 10.7654 14.0259C10.9727 13.9319 11.1791 13.8353 11.3624 13.6983C11.5287 13.5735 11.6408 13.4199 11.6159 13.1985C11.5848 12.9254 11.3472 12.7067 11.0421 12.7594C10.8606 12.791 10.7013 12.8727 10.542 12.9579C10.3783 13.0457 10.2173 13.1406 10.034 13.1871C9.82406 13.2407 9.61142 13.2653 9.39255 13.2451C9.18703 13.2266 8.98773 13.1915 8.8009 13.1028C8.68079 13.0457 8.56157 12.9877 8.44146 12.9307C8.3427 12.8832 8.24127 12.8428 8.1354 12.8139C8.08113 12.7998 8.02507 12.7849 7.96902 12.791C7.75994 12.8165 7.61492 12.9342 7.52684 13.1169C7.44232 13.2934 7.49837 13.4523 7.60958 13.5999C7.71368 13.7369 7.85514 13.8274 8.00372 13.9073C8.47526 14.1593 8.97973 14.2788 9.56782 14.2805ZM11.26 11.1926C11.3535 11.197 11.4656 11.1715 11.5679 11.1135C11.865 10.9432 11.9967 10.6744 11.9958 10.3468C11.9949 10.0947 11.8855 9.88221 11.6746 9.73115C11.2316 9.41234 10.6897 9.60556 10.5367 10.0895C10.4495 10.3661 10.4949 10.6296 10.6506 10.8703C10.784 11.0766 10.9771 11.1952 11.26 11.1926ZM8.61228 10.3758C8.62207 10.0798 8.46103 9.83215 8.23415 9.69163C7.83735 9.44483 7.34445 9.59941 7.1763 10.0289C7.04996 10.3512 7.10245 10.6577 7.31242 10.9309C7.56065 11.2523 7.99216 11.2611 8.25729 11.0679C8.49306 10.8966 8.59982 10.6595 8.61228 10.3758Z" fill="#825C3C"/>
<path d="M14.6152 9.7865C14.6739 9.77333 14.6713 9.72766 14.673 9.68286C14.6837 9.48086 14.6508 9.28238 14.6125 9.08565C14.5939 8.98816 14.5743 8.89155 14.5449 8.7967C14.4622 8.52444 14.3172 8.28467 14.1428 8.06247C14.0912 7.9966 14.0387 7.92809 13.9729 7.87189C13.9301 7.835 13.9026 7.7823 13.8607 7.74893C13.7478 7.65847 13.6526 7.55132 13.5422 7.45822C13.4417 7.37303 13.3403 7.28872 13.2397 7.20265C13.1267 7.10516 13.0102 7.01119 12.8972 6.91282C12.8394 6.86276 12.7815 6.81358 12.7255 6.76176C12.5636 6.61334 12.391 6.47633 12.2272 6.32878C12.0724 6.18913 11.9114 6.05564 11.7673 5.90546C11.5199 5.64725 11.2904 5.37498 11.1133 5.06144C10.979 4.82343 10.8642 4.57752 10.7753 4.32107C10.6925 4.0813 10.6365 3.83539 10.5955 3.58421C10.5493 3.30228 10.5502 3.0186 10.568 2.73756C10.5929 2.34146 10.6925 1.95766 10.8446 1.58791C10.8927 1.47111 10.9532 1.36132 11.0084 1.24803C11.0226 1.21904 11.0431 1.19357 11.0431 1.15932C11.1543 1.11717 11.2717 1.10487 11.3874 1.08291C11.5529 1.05217 11.7192 1.0311 11.8874 1.02056C11.9159 1.0188 11.9443 1.02056 11.9692 1.02056C11.9755 1.039 11.9675 1.04515 11.9612 1.04954C11.705 1.2287 11.5502 1.48164 11.439 1.76357C11.3527 1.98138 11.3037 2.20972 11.2744 2.44246C11.2468 2.65764 11.2352 2.87281 11.245 3.08887C11.2673 3.55347 11.3571 4.00226 11.5511 4.42997C11.7424 4.85154 12.0137 5.2169 12.3411 5.54361C12.681 5.88174 13.0636 6.16454 13.4675 6.42363C13.81 6.6432 14.1668 6.83993 14.5209 7.04193C14.7442 7.16928 14.9595 7.3098 15.1526 7.4793C15.4186 7.71204 15.6108 7.99133 15.682 8.34C15.7478 8.66144 15.7256 8.97938 15.6135 9.28765C15.5405 9.48789 15.4604 9.68638 15.3661 9.87872C15.3555 9.8998 15.3439 9.92 15.3332 9.94107C15.3181 9.97181 15.2941 9.98411 15.2603 9.97445C15.0441 9.9156 14.8234 9.87257 14.6152 9.7865Z" fill="#6B4B32"/>
<path d="M4.55355 11.5912C4.46903 11.6413 4.37205 11.6562 4.28308 11.6939C4.07489 11.7827 3.88271 11.8942 3.72168 12.0532C3.62737 12.1454 3.53395 12.2376 3.45566 12.3456C3.34622 12.4993 3.25458 12.6609 3.18697 12.8366C3.11757 13.0166 3.06775 13.2028 3.0455 13.3934C3.02949 13.5286 3.01169 13.6656 3.02415 13.8027C3.04906 14.0661 3.08821 14.3279 3.18608 14.5764C3.29017 14.839 3.4432 15.0726 3.61669 15.2957C3.79107 15.5188 3.99927 15.7102 4.2039 15.9026C4.35515 16.0449 4.50996 16.1836 4.6701 16.318C4.77598 16.4067 4.88185 16.4937 4.99751 16.5701C5.042 16.5999 5.09093 16.6192 5.1372 16.6456C5.15944 16.6579 5.18969 16.6623 5.19236 16.6957C4.62829 16.5894 4.07222 16.4489 3.53039 16.2609C3.06152 16.0984 2.63179 15.8675 2.26256 15.5355C1.95028 15.2544 1.71184 14.9242 1.58906 14.5211C1.44848 14.0574 1.47962 13.6033 1.68337 13.1624C1.87109 12.7558 2.16203 12.4334 2.52058 12.1673C2.89959 11.8863 3.32042 11.6913 3.78663 11.5982C4.02062 11.5517 4.25639 11.5403 4.49305 11.5736C4.51351 11.5789 4.53309 11.5859 4.55355 11.5912Z" fill="#926747"/>
<path d="M14.8856 16.3655C14.8865 16.347 14.8945 16.3321 14.9079 16.3189C15.0271 16.2083 15.1179 16.0739 15.2122 15.9439C15.3305 15.7806 15.4515 15.619 15.552 15.4433C15.641 15.2879 15.714 15.1254 15.778 14.9594C15.859 14.7495 15.9141 14.5317 15.9488 14.3095C15.9604 14.2357 15.9782 14.1602 15.972 14.0838C15.9693 14.0574 15.9737 14.0319 15.9826 14.0065C15.9942 13.9722 15.9951 13.9362 15.9835 13.9028C15.9693 13.8624 15.9657 13.8203 15.9729 13.7816C15.9889 13.7 15.9791 13.6209 15.9729 13.5401C15.9568 13.3249 15.9213 13.115 15.859 12.9069C15.8243 12.7892 15.786 12.6733 15.7398 12.56C15.6428 12.3211 15.5164 12.0971 15.3696 11.8837C15.2433 11.7002 15.1081 11.5245 14.9613 11.3568C14.8323 11.2083 14.6997 11.0634 14.5591 10.9255C14.5395 10.9062 14.5075 10.8904 14.5306 10.8535C14.8189 10.8922 15.1001 10.958 15.3643 11.0801C15.7415 11.2549 16.0858 11.4788 16.391 11.7616C16.7647 12.1077 17.0494 12.509 17.2087 12.993C17.3039 13.2819 17.3439 13.5796 17.3208 13.8818C17.2798 14.4043 17.0948 14.8742 16.7594 15.2835C16.512 15.5856 16.2095 15.8192 15.8616 16.0001C15.5645 16.1547 15.2513 16.2662 14.9301 16.3602C14.9159 16.3655 14.9008 16.3646 14.8856 16.3655Z" fill="#6B4B32"/>
<path d="M5.74298 7.29304C5.66825 7.31851 5.58817 7.31851 5.51166 7.33871C5.26699 7.4037 5.0419 7.50558 4.83282 7.64786C4.70559 7.73481 4.58726 7.83142 4.4796 7.93769C4.34259 8.07382 4.22159 8.22488 4.11838 8.38911C3.98315 8.60341 3.87193 8.82824 3.81232 9.07416C3.7883 9.17252 3.76695 9.27265 3.76873 9.3754C3.76962 9.43073 3.74827 9.48343 3.75094 9.53964C3.77051 9.87601 3.84524 10.1957 4.02585 10.4855C4.03653 10.5022 4.04988 10.5189 4.04632 10.5417C4.02496 10.5681 3.98671 10.5435 3.96624 10.569C3.74204 10.576 3.53296 10.6559 3.31676 10.7016C3.11925 10.7429 3.16818 10.7648 3.03383 10.6129C2.82831 10.3801 2.70909 10.107 2.66461 9.80136C2.60233 9.36838 2.68685 8.95823 2.86835 8.56652C3.08455 8.09929 3.40484 7.71549 3.84435 7.43444C4.10949 7.26406 4.40042 7.1613 4.71537 7.13671C4.93424 7.11915 5.15222 7.14549 5.36664 7.19116C5.49476 7.21839 5.62109 7.24825 5.74298 7.29304Z" fill="#926747"/>
<path d="M9.1933 1.91455C9.19864 1.94968 9.17195 1.96725 9.15149 1.98745C9.07408 2.06386 8.9949 2.13851 8.91928 2.21755C8.73333 2.41253 8.55806 2.6154 8.38634 2.82355C8.2262 3.01765 8.07762 3.21965 7.92992 3.42253C7.8027 3.5973 7.68081 3.77559 7.56604 3.95915C7.45215 4.14007 7.3356 4.31836 7.22617 4.50104C7.09538 4.71884 6.96193 4.93578 6.83559 5.15534C6.78577 5.24141 6.73149 5.32485 6.68256 5.41092C6.58825 5.57954 6.51885 5.75871 6.47526 5.94753C6.44679 6.07225 6.41921 6.19696 6.42099 6.32607C6.42099 6.34187 6.41298 6.35329 6.40052 6.36295C6.21547 6.33924 6.03486 6.29708 5.85158 6.26459C5.70655 6.23824 5.56153 6.20926 5.4174 6.17852C5.33911 6.16183 5.33733 6.16007 5.33911 6.08103C5.34622 5.8035 5.41117 5.53826 5.52505 5.28532C5.6683 4.96739 5.86848 4.68547 6.09713 4.42375C6.41921 4.05576 6.78221 3.72816 7.14876 3.40496C7.71017 2.90962 8.29826 2.44853 8.93974 2.05683C9.02159 2.00677 9.09989 1.94705 9.1933 1.91455Z" fill="#926747"/>
<path d="M9.21379 1.89966C9.20756 1.90581 9.20044 1.91108 9.19421 1.91722C9.1951 1.90581 9.20311 1.90141 9.21379 1.89966Z" fill="#926747"/>
<path d="M9.56786 14.2805C8.97976 14.2787 8.4753 14.1593 8.00465 13.9089C7.85518 13.8299 7.71371 13.7386 7.61051 13.6016C7.4993 13.454 7.44324 13.295 7.52777 13.1185C7.61585 12.935 7.76087 12.8181 7.96995 12.7927C8.02511 12.7857 8.08116 12.8006 8.13632 12.8155C8.2422 12.8436 8.34363 12.8849 8.44238 12.9323C8.56249 12.9894 8.68171 13.0474 8.80182 13.1045C8.98866 13.1932 9.18795 13.2283 9.39348 13.2467C9.61234 13.2669 9.82498 13.2423 10.035 13.1888C10.2173 13.1422 10.3784 13.0474 10.543 12.9595C10.7022 12.8744 10.8615 12.7918 11.043 12.7611C11.3473 12.7084 11.5857 12.9271 11.6168 13.2002C11.6418 13.4215 11.5305 13.5752 11.3633 13.6999C11.18 13.8369 10.9736 13.9335 10.7663 14.0275C10.5012 14.1478 10.22 14.2181 9.93086 14.2567C9.79206 14.2743 9.65327 14.2857 9.56786 14.2805Z" fill="#010100"/>
<path d="M11.2601 11.1926C10.9772 11.1952 10.785 11.0766 10.6506 10.8694C10.4949 10.6287 10.4496 10.3652 10.5368 10.0886C10.6898 9.6038 11.2325 9.41146 11.6747 9.73027C11.8855 9.88221 11.9959 10.0939 11.9959 10.3459C11.9968 10.6735 11.8642 10.9423 11.5679 11.1127C11.4656 11.1715 11.3535 11.197 11.2601 11.1926Z" fill="#010100"/>
<path d="M8.61229 10.3758C8.59984 10.6594 8.49307 10.8966 8.2573 11.0678C7.99217 11.2602 7.56066 11.2523 7.31244 10.9308C7.10247 10.6577 7.04997 10.3521 7.17631 10.0289C7.34535 9.59851 7.83736 9.44393 8.23417 9.6916C8.46104 9.833 8.62119 10.0798 8.61229 10.3758Z" fill="#010100"/>
</g>
<defs>
<clipPath id="clip0_417_955">
<rect width="17.7861" height="18" fill="white" transform="translate(0.5)"/>
</clipPath>
</defs>
</svg>
