<svg width="25" height="24" viewBox="0 0 25 24" fill="none" xmlns="http://www.w3.org/2000/svg">
<path d="M0.106934 12C0.106934 5.37258 5.47952 0 12.1069 0C18.7344 0 24.1069 5.37258 24.1069 12C24.1069 18.6274 18.7344 24 12.1069 24C5.47952 24 0.106934 18.6274 0.106934 12Z" fill="#039BE5"/>
<path d="M7.27023 11.2205L16.7298 7.5732C17.1689 7.41459 17.5523 7.68031 17.4101 8.3442L17.4109 8.34338L15.8002 15.9315C15.6809 16.4695 15.3612 16.6003 14.9139 16.3468L12.4612 14.5391L11.2781 15.6789C11.1473 15.8097 11.0369 15.92 10.7834 15.92L10.9576 13.4239L15.5034 9.31714C15.7013 9.14299 15.4593 9.04488 15.1985 9.21821L9.58076 12.7551L7.15903 11.9997C6.63332 11.8329 6.62187 11.474 7.27023 11.2205Z" fill="white"/>
</svg>
