<svg width="41" height="40" viewBox="0 0 41 40" fill="none" xmlns="http://www.w3.org/2000/svg">
<rect x="0.875977" y="0.0292969" width="39.6768" height="39.6768" rx="19.8384" fill="#5865F2"/>
<g clip-path="url(#clip0_300_755)">
<path d="M26.8255 14.2607C25.7016 13.745 24.4964 13.365 23.2362 13.1474C23.2132 13.1432 23.1903 13.1537 23.1785 13.1747C23.0235 13.4504 22.8518 13.81 22.7315 14.0927C21.3761 13.8898 20.0277 13.8898 18.7001 14.0927C18.5798 13.8038 18.4019 13.4504 18.2462 13.1747C18.2344 13.1544 18.2114 13.1439 18.1885 13.1474C16.929 13.3643 15.7238 13.7443 14.5991 14.2607C14.5894 14.2649 14.581 14.2719 14.5755 14.281C12.2894 17.6964 11.6631 21.0279 11.9703 24.318C11.9717 24.3341 11.9808 24.3495 11.9933 24.3593C13.5016 25.467 14.9627 26.1394 16.3966 26.5851C16.4195 26.5921 16.4438 26.5838 16.4584 26.5649C16.7976 26.1017 17.1 25.6132 17.3592 25.0996C17.3745 25.0695 17.3599 25.0338 17.3286 25.0219C16.849 24.84 16.3924 24.6182 15.9531 24.3663C15.9183 24.346 15.9155 24.2963 15.9475 24.2725C16.04 24.2033 16.1324 24.1312 16.2207 24.0584C16.2367 24.0451 16.2589 24.0423 16.2777 24.0507C19.1636 25.3683 22.288 25.3683 25.1399 24.0507C25.1587 24.0416 25.1809 24.0444 25.1976 24.0577C25.2859 24.1305 25.3783 24.2032 25.4715 24.2725C25.5034 24.2963 25.5013 24.346 25.4666 24.3663C25.0273 24.6231 24.5706 24.84 24.0904 25.0212C24.0591 25.0331 24.0452 25.0695 24.0605 25.0996C24.3253 25.6125 24.6277 26.1009 24.9606 26.5641C24.9745 26.5837 24.9995 26.5921 25.0224 26.5851C26.4633 26.1394 27.9244 25.4669 29.4327 24.3593C29.4459 24.3495 29.4543 24.3348 29.4556 24.3187C29.8233 20.5149 28.8398 17.2108 26.8484 14.2817C26.8436 14.2719 26.8352 14.2649 26.8255 14.2607ZM17.7902 22.3146C16.9214 22.3146 16.2055 21.517 16.2055 20.5373C16.2055 19.5577 16.9075 18.76 17.7902 18.76C18.6799 18.76 19.3889 19.5647 19.375 20.5373C19.375 21.517 18.673 22.3146 17.7902 22.3146ZM23.6497 22.3146C22.7809 22.3146 22.0649 21.517 22.0649 20.5373C22.0649 19.5577 22.767 18.76 23.6497 18.76C24.5394 18.76 25.2484 19.5647 25.2345 20.5373C25.2345 21.517 24.5394 22.3146 23.6497 22.3146Z" fill="white"/>
</g>
<defs>
<clipPath id="clip0_300_755">
<rect width="17.6341" height="17.6341" fill="white" transform="translate(11.8973 11.0508)"/>
</clipPath>
</defs>
</svg>
