<svg width="40" height="40" viewBox="0 0 40 40" fill="none" xmlns="http://www.w3.org/2000/svg">
<path d="M0 19.8677C0 8.91125 8.88195 0.0292969 19.8384 0.0292969C30.7948 0.0292969 39.6768 8.91125 39.6768 19.8677C39.6768 30.8241 30.7948 39.7061 19.8384 39.7061C8.88195 39.7061 0 30.8241 0 19.8677Z" fill="#039BE5"/>
<path d="M11.8425 18.5791L27.4811 12.5494C28.2069 12.2872 28.8408 12.7264 28.6056 13.824L28.607 13.8226L25.9442 26.3673C25.7469 27.2567 25.2184 27.4729 24.479 27.0539L20.4241 24.0654L18.4682 25.9496C18.252 26.1659 18.0695 26.3484 17.6505 26.3484L17.9384 22.2218L25.4536 15.4324C25.7807 15.1445 25.3806 14.9824 24.9494 15.2689L15.6622 21.1161L11.6586 19.8672C10.7895 19.5915 10.7706 18.9981 11.8425 18.5791Z" fill="white"/>
</svg>
