<svg width="41" height="40" viewBox="0 0 41 40" fill="none" xmlns="http://www.w3.org/2000/svg">
<rect x="0.937988" y="0.0292969" width="39.6768" height="39.6768" rx="19.8384" fill="#03A9F4"/>
<g clip-path="url(#clip0_300_757)">
<path d="M29.5935 14.4003C28.9377 14.6879 28.239 14.8786 27.5104 14.9712C28.2599 14.5237 28.8319 13.8206 29.1008 12.973C28.4021 13.3896 27.6306 13.6839 26.8084 13.8481C26.1449 13.1416 25.1993 12.7041 24.1677 12.7041C22.1662 12.7041 20.5549 14.3286 20.5549 16.3202C20.5549 16.6068 20.5791 16.8823 20.6386 17.1446C17.6331 16.998 14.9737 15.5575 13.1871 13.3632C12.8752 13.9043 12.6923 14.5237 12.6923 15.1905C12.6923 16.4425 13.337 17.5524 14.2981 18.1949C13.7173 18.1839 13.1474 18.0153 12.6647 17.7497C12.6647 17.7607 12.6647 17.775 12.6647 17.7893C12.6647 19.5461 13.9178 21.0054 15.5611 21.3415C15.2669 21.422 14.9461 21.4605 14.6133 21.4605C14.3818 21.4605 14.1482 21.4473 13.9289 21.3988C14.3973 22.8305 15.7264 23.883 17.3069 23.9172C16.0769 24.8794 14.5152 25.4591 12.8245 25.4591C12.5281 25.4591 12.2437 25.4459 11.9594 25.4095C13.5607 26.4422 15.4586 27.0318 17.5053 27.0318C24.1578 27.0318 27.7948 21.5212 27.7948 16.7445C27.7948 16.5847 27.7893 16.4304 27.7816 16.2772C28.4991 15.768 29.1019 15.1321 29.5935 14.4003Z" fill="white"/>
</g>
<defs>
<clipPath id="clip0_300_757">
<rect width="17.6341" height="17.6341" fill="white" transform="translate(11.9594 11.0508)"/>
</clipPath>
</defs>
</svg>
