<svg width="41" height="40" viewBox="0 0 41 40" fill="none" xmlns="http://www.w3.org/2000/svg">
<rect x="0.813965" y="0.0292969" width="39.6768" height="39.6768" rx="19.8384" fill="#E60101"/>
<g clip-path="url(#clip0_300_760)">
<path d="M36.0712 19.7968C36.0701 20.6212 36.0762 21.3834 36.0486 22.1448C36.0154 23.0627 35.9864 23.981 35.9369 24.8983C35.889 25.7839 35.8249 26.669 35.7543 27.5533C35.6906 28.3526 35.6207 29.1518 35.5224 29.9478C35.4573 30.4747 35.3081 30.9813 35.0908 31.4663C34.7295 32.2805 34.1788 32.9965 33.4845 33.5545C32.9995 33.9454 32.453 34.2532 31.8674 34.4654C31.3238 34.6645 30.7612 34.7538 30.19 34.8083C29.5929 34.8651 28.996 34.925 28.3984 34.9766C27.9793 35.0128 27.5591 35.0374 27.1393 35.0672C26.4293 35.1177 25.7187 35.159 25.0076 35.1912C24.5111 35.214 24.0143 35.2262 23.5179 35.2479C21.8572 35.3209 20.1959 35.2974 18.5351 35.2748C17.5417 35.2614 16.5485 35.2076 15.5561 35.155C14.729 35.1115 13.9023 35.0508 13.0773 34.9852C12.4973 34.9391 11.9171 34.8926 11.3389 34.8248C11.0855 34.7951 10.8304 34.7799 10.5775 34.7468C10.2891 34.709 10.0043 34.6471 9.72618 34.5617C9.23364 34.4124 8.76409 34.1957 8.33082 33.9179C7.40803 33.3226 6.71429 32.5273 6.24962 31.5318C5.98934 30.9702 5.825 30.3691 5.76344 29.7532C5.69823 29.1159 5.63557 28.4785 5.58004 27.8402C5.50313 26.9562 5.4399 26.0714 5.39033 25.1857C5.34838 24.434 5.31705 23.682 5.28801 22.9297C5.2189 21.1376 5.22226 19.3452 5.26287 17.5528C5.28344 16.6436 5.32283 15.7345 5.37218 14.8262C5.42018 13.9406 5.48445 13.0555 5.55463 12.1712C5.61836 11.3673 5.68559 10.5631 5.78966 9.76353C5.89198 8.9763 6.16424 8.24514 6.58723 7.57194C7.11321 6.73546 7.81 6.08049 8.67758 5.60704C9.19661 5.32378 9.75831 5.12696 10.3406 5.02432C10.6852 4.96327 11.0333 4.94096 11.3801 4.90156C12.1587 4.81322 12.9404 4.75998 13.7208 4.69195C14.1443 4.65511 14.5696 4.63736 14.9939 4.60939C15.7311 4.56072 16.4691 4.5298 17.2072 4.49766C18.9884 4.42008 20.7702 4.43205 22.5525 4.45155C23.3312 4.46002 24.1096 4.49847 24.8878 4.5337C25.4782 4.56059 26.0682 4.59554 26.6581 4.62849C27.0782 4.65201 27.4971 4.69665 27.9172 4.72086C28.2971 4.74291 28.6757 4.78069 29.0546 4.81497C29.6253 4.86607 30.1963 4.91716 30.7645 4.98976C31.227 5.04838 31.6753 5.17611 32.1067 5.35655C32.9293 5.69712 33.6588 6.22894 34.2347 6.90787C34.6748 7.42363 35.0069 8.00192 35.2411 8.6395C35.4455 9.196 35.5339 9.77334 35.5884 10.3589C35.6184 10.6801 35.6505 11.001 35.6796 11.3222C35.7116 11.6748 35.7453 12.0272 35.7708 12.3801C35.8288 13.18 35.8925 13.9801 35.9345 14.7805C35.9755 15.5636 36.003 16.3474 36.0321 17.131C36.0658 18.0402 36.0685 18.9496 36.0712 19.7968ZM20.6641 26.9151C21.6237 26.9243 22.5946 26.8855 23.5652 26.8431C24.1061 26.8195 24.6466 26.7815 25.1868 26.7416C25.7494 26.6999 26.3106 26.6451 26.8721 26.5929C27.0771 26.5743 27.2801 26.5377 27.4787 26.4837C27.877 26.3747 28.2597 26.2245 28.6081 25.9997C29.3073 25.5483 29.8039 24.9578 29.9196 24.0989C29.9841 23.6197 30.0675 23.1434 30.125 22.6628C30.1971 22.0617 30.2416 21.4588 30.2696 20.8547C30.3071 19.9949 30.2961 19.1337 30.2365 18.2752C30.2041 17.7923 30.1594 17.3104 30.0979 16.8307C30.0387 16.3689 29.9634 15.9092 29.8819 15.4505C29.8337 15.1861 29.7361 14.9331 29.5941 14.705C29.3737 14.3431 29.0764 14.0554 28.7287 13.8176C28.2402 13.4823 27.6819 13.2623 27.0959 13.1741C26.6002 13.0976 26.0993 13.0645 25.5999 13.0244C24.9886 12.9756 24.377 12.9287 23.7646 12.8987C22.9061 12.8568 22.0469 12.8253 21.1872 12.818C20.2648 12.8106 19.3427 12.8252 18.421 12.862C17.7499 12.8878 17.0797 12.9251 16.4096 12.9696C15.7887 13.0112 15.1695 13.0713 14.55 13.1277C14.2328 13.1565 13.9196 13.2117 13.6171 13.3105C13.2116 13.4431 12.8303 13.6264 12.4848 13.8821C11.887 14.3243 11.4881 14.8855 11.3867 15.6399C11.3228 16.1147 11.2401 16.5866 11.1828 17.0627C11.1133 17.6409 11.0682 18.2221 11.0407 18.8036C10.9913 19.8918 11.0177 20.9821 11.1199 22.0665C11.183 22.7494 11.2784 23.4276 11.3911 24.1036C11.4132 24.2361 11.4314 24.3705 11.4707 24.4983C11.5917 24.8962 11.8172 25.2322 12.1099 25.5252C12.4206 25.8362 12.7822 26.071 13.1815 26.2513C13.5131 26.4009 13.8577 26.5102 14.2185 26.5605C14.6488 26.6206 15.082 26.6495 15.5141 26.6907C16.2006 26.7561 16.8886 26.8009 17.5769 26.8347C18.6014 26.8853 19.6266 26.9239 20.6641 26.9151Z" fill="#E60101"/>
<path d="M20.664 26.9149C19.626 26.9238 18.6013 26.8852 17.5773 26.835C16.889 26.8013 16.2011 26.7565 15.5145 26.691C15.0824 26.6499 14.6491 26.621 14.2189 26.5609C13.8581 26.5103 13.5135 26.401 13.1819 26.2516C12.7831 26.0716 12.421 25.8368 12.1103 25.5256C11.8176 25.2326 11.5927 24.8966 11.4711 24.4986C11.4321 24.3709 11.4136 24.2364 11.3915 24.104C11.2789 23.428 11.1834 22.7498 11.1203 22.0669C11.0181 20.9824 10.9917 19.8922 11.0411 18.804C11.068 18.2225 11.1137 17.6419 11.1833 17.0631C11.2405 16.587 11.3232 16.1151 11.3871 15.6403C11.4885 14.8859 11.8874 14.3247 12.4852 13.8825C12.8307 13.627 13.212 13.4435 13.6175 13.3109C13.9201 13.2121 14.2332 13.1568 14.5504 13.1281C15.1699 13.0717 15.7891 13.0116 16.41 12.9699C17.0801 12.925 17.7504 12.8878 18.4214 12.8624C19.3432 12.8265 20.2653 12.8119 21.1877 12.8184C22.0473 12.8254 22.9065 12.8569 23.765 12.8991C24.3774 12.9291 24.9885 12.976 25.6003 13.0248C26.0998 13.0651 26.6006 13.0979 27.0963 13.1744C27.6822 13.2625 28.2404 13.4823 28.729 13.8173C29.0767 14.0551 29.3744 14.3428 29.5943 14.7047C29.7363 14.9329 29.834 15.1858 29.8822 15.4502C29.9641 15.909 30.039 16.3686 30.0981 16.8304C30.1597 17.3101 30.2044 17.792 30.2368 18.2749C30.2964 19.1334 30.3074 19.9946 30.2698 20.8544C30.2419 21.4585 30.1974 22.0614 30.1253 22.6625C30.0676 23.1431 29.9844 23.6194 29.9199 24.0986C29.8046 24.9575 29.3071 25.548 28.608 25.9994C28.2595 26.2243 27.8767 26.3745 27.4786 26.4834C27.2798 26.5375 27.0767 26.574 26.8715 26.5926C26.3101 26.6448 25.7488 26.7002 25.1863 26.7413C24.6461 26.7816 24.1056 26.8192 23.5647 26.8428C22.5944 26.8853 21.6236 26.9246 20.664 26.9149ZM18.3507 19.8714V23.4067C18.3494 23.4291 18.3494 23.4516 18.3507 23.474C18.3573 23.5304 18.3797 23.5412 18.4323 23.5152C18.4521 23.5052 18.4697 23.4908 18.4888 23.4791C18.9001 23.2258 19.3115 22.9725 19.7228 22.7193L24.2606 19.9304C24.3435 19.8795 24.3441 19.8525 24.2626 19.8023C23.5199 19.3452 22.7771 18.888 22.0343 18.4309C21.1961 17.9158 20.3577 17.4011 19.5191 16.8867C19.1645 16.6689 18.8102 16.4508 18.4562 16.2326C18.3714 16.1804 18.3532 16.1922 18.3506 16.2956C18.3506 16.3091 18.3506 16.3225 18.3506 16.336L18.3507 19.8714Z" fill="#FFFEFE"/>
<path d="M18.3508 19.872V16.3368C18.3508 16.3233 18.3508 16.3099 18.3508 16.2965C18.3535 16.1929 18.3716 16.1812 18.4565 16.2334C18.811 16.4509 19.1653 16.669 19.5193 16.8875C20.3575 17.4023 21.1959 17.917 22.0345 18.4317C22.7775 18.8883 23.5203 19.3455 24.2628 19.8031C24.3443 19.8533 24.3435 19.8803 24.2608 19.9313L19.723 22.7201C19.3115 22.9731 18.9002 23.2264 18.489 23.4799C18.4699 23.4916 18.4523 23.506 18.4325 23.5161C18.38 23.5429 18.3575 23.5312 18.3509 23.4748C18.3497 23.4524 18.3497 23.4299 18.3509 23.4076L18.3508 19.872Z" fill="#E60101"/>
</g>
<defs>
<clipPath id="clip0_300_760">
<rect width="30.8373" height="30.8597" fill="white" transform="translate(5.23376 4.43799)"/>
</clipPath>
</defs>
</svg>
